<?xml version="1.0" standalone="no"?>
<!DOCTYPE svg PUBLIC "-//W3C//DTD SVG 20010904//EN"
 "http://www.w3.org/TR/2001/REC-SVG-20010904/DTD/svg10.dtd">
<svg version="1.0" xmlns="http://www.w3.org/2000/svg"
 width="575.000000pt" height="575.000000pt" viewBox="0 0 575.000000 575.000000"
 preserveAspectRatio="xMidYMid meet">
<metadata>
Created by potrace 1.11, written by Peter Selinger 2001-2013
</metadata>
<g transform="translate(0.000000,575.000000) scale(0.100000,-0.100000)"
fill="#000000" stroke="none">
<path d="M2644 5588 c-225 -152 -353 -238 -789 -533 -332 -225 -999 -674
-1322 -892 l-143 -96 0 -384 c0 -437 1 -442 75 -493 67 -46 155 -43 211 7 58
52 59 53 64 382 l5 304 85 58 c47 33 237 161 423 286 712 480 1336 902 1492
1008 72 48 135 88 141 88 6 0 73 -42 150 -95 76 -52 252 -170 389 -263 138
-93 311 -210 385 -260 74 -50 272 -184 440 -297 168 -113 386 -260 485 -328
99 -67 206 -138 238 -158 l57 -37 0 -293 c0 -322 2 -335 60 -391 79 -75 219
-49 271 49 18 32 19 64 19 426 l0 391 -167 113 c-330 222 -1215 819 -1613
1088 -358 242 -695 469 -706 475 -6 4 -119 -66 -250 -155z"/>
<path d="M2797 3934 c-1 -1 -26 -5 -55 -8 -227 -27 -441 -133 -612 -305 -236
-236 -343 -548 -304 -881 33 -286 211 -575 457 -742 90 -61 233 -125 336 -150
l91 -23 0 -643 0 -643 -277 187 c-153 103 -375 253 -493 332 -118 80 -276 187
-350 237 -203 138 -770 519 -812 546 l-37 24 -3 306 -3 306 -27 40 c-73 110
-245 99 -299 -21 -17 -38 -19 -72 -19 -427 l0 -386 142 -96 c79 -52 256 -171
393 -264 138 -93 363 -245 500 -338 138 -92 324 -219 415 -280 162 -110 354
-239 800 -540 124 -83 230 -155 236 -158 12 -7 26 2 384 245 215 145 578 391
955 645 110 74 295 198 410 276 116 78 333 225 483 326 l273 184 -3 402 -3
402 -27 35 c-75 98 -226 93 -290 -10 -22 -36 -23 -45 -26 -342 l-3 -305 -197
-132 c-196 -131 -573 -385 -1047 -705 -341 -231 -648 -438 -690 -466 l-35 -22
0 645 c0 509 3 645 13 646 93 5 267 74 393 155 247 158 419 417 474 714 7 36
12 117 12 180 -1 178 -36 320 -119 480 -158 305 -446 512 -788 564 -74 12
-238 18 -248 10z m273 -369 c123 -36 235 -100 316 -180 353 -347 262 -926
-181 -1146 -119 -58 -207 -78 -340 -74 -388 11 -687 311 -694 696 -7 346 228
639 573 714 78 17 253 12 326 -10z"/>
</g>
</svg>
