<?xml version="1.0" standalone="no"?>
<!DOCTYPE svg PUBLIC "-//W3C//DTD SVG 20010904//EN"
 "http://www.w3.org/TR/2001/REC-SVG-20010904/DTD/svg10.dtd">
<svg version="1.0" xmlns="http://www.w3.org/2000/svg"
 width="174.000000pt" height="174.000000pt" viewBox="0 0 174.000000 174.000000"
 preserveAspectRatio="xMidYMid meet">
<metadata>
Created by potrace 1.11, written by Peter Selinger 2001-2013
</metadata>
<g transform="translate(0.000000,174.000000) scale(0.100000,-0.100000)"
fill="#000000" stroke="none">
<path d="M655 1618 c-104 -60 -212 -123 -240 -138 -27 -16 -104 -60 -170 -98
l-120 -69 0 -139 0 -139 78 -3 c42 -2 77 1 78 5 1 4 2 45 4 91 1 46 4 84 6 86
2 2 130 76 284 165 195 113 286 160 300 156 11 -3 144 -76 295 -162 l275 -158
3 -92 3 -93 79 0 c69 0 80 2 81 18 1 9 2 69 3 132 1 87 -2 119 -13 133 -8 9
-17 17 -21 17 -4 0 -70 37 -146 81 -76 45 -152 90 -169 99 -16 9 -109 63 -206
119 -96 55 -184 101 -195 100 -10 0 -104 -50 -209 -111z"/>
<path d="M765 1213 c-176 -52 -286 -239 -245 -416 31 -131 108 -215 242 -266
l28 -10 -4 -138 c-3 -107 -7 -137 -17 -135 -16 4 -421 236 -460 263 -23 16
-26 25 -27 84 0 36 -1 74 -1 85 -1 19 -6 21 -78 18 l-78 -3 -1 -127 c-1 -70 2
-131 5 -136 3 -6 132 -83 286 -172 154 -89 318 -185 364 -213 l84 -50 41 22
c23 13 191 109 373 215 l333 191 0 138 0 138 -77 -3 -78 -3 -2 -84 c0 -46 -5
-87 -10 -91 -11 -10 -481 -280 -488 -280 -3 0 -5 63 -5 139 l0 140 63 30 c73
35 149 109 178 175 89 202 -23 435 -236 491 -69 18 -123 17 -190 -2z m165
-158 c102 -32 156 -158 111 -259 -33 -77 -94 -116 -176 -116 -139 0 -234 156
-171 278 20 39 80 90 114 98 15 3 32 7 37 8 15 4 58 0 85 -9z"/>
</g>
</svg>
