<?xml version="1.0" standalone="no"?>
<!DOCTYPE svg PUBLIC "-//W3C//DTD SVG 20010904//EN"
 "http://www.w3.org/TR/2001/REC-SVG-20010904/DTD/svg10.dtd">
<svg version="1.0" xmlns="http://www.w3.org/2000/svg"
 width="732.000000pt" height="732.000000pt" viewBox="0 0 732.000000 732.000000"
 preserveAspectRatio="xMidYMid meet">
<metadata>
Created by potrace 1.11, written by Peter Selinger 2001-2013
</metadata>
<g transform="translate(0.000000,732.000000) scale(0.100000,-0.100000)"
fill="#000000" stroke="none">
<path d="M2090 6361 l-1555 -898 -3 -572 -2 -571 335 0 335 0 0 373 1 372
1229 707 1230 707 1230 -707 1229 -707 1 -372 0 -373 335 0 335 0 -2 571 -3
572 -1550 895 c-852 492 -1559 896 -1570 898 -13 2 -602 -333 -1575 -895z"/>
<path d="M3465 5144 c-429 -63 -789 -280 -1038 -626 -117 -164 -216 -403 -252
-613 -24 -134 -24 -375 -1 -510 37 -211 137 -452 263 -628 77 -108 237 -267
348 -345 148 -105 293 -171 523 -238 9 -3 12 -128 12 -585 0 -319 -4 -579 -8
-577 -5 2 -482 275 -1060 608 l-1052 605 0 373 0 372 -335 0 -335 0 2 -572 3
-572 1340 -773 c1833 -1058 1773 -1023 1785 -1023 12 0 -48 -35 1785 1023
l1340 773 3 572 2 572 -335 0 -335 0 0 -372 0 -373 -1052 -605 c-578 -333
-1055 -606 -1060 -608 -4 -2 -8 258 -8 577 0 457 3 582 13 585 229 67 374 133
522 238 111 78 271 237 348 345 126 177 227 418 263 628 23 135 23 376 -1 510
-59 342 -242 667 -499 884 -193 164 -404 271 -646 328 -90 21 -134 25 -305 28
-110 2 -213 1 -230 -1z m398 -693 c266 -69 489 -274 579 -537 78 -225 55 -459
-65 -674 -57 -102 -205 -250 -307 -307 -210 -118 -446 -142 -666 -68 -130 43
-218 99 -324 205 -106 106 -162 194 -205 324 -74 222 -50 454 68 666 57 101
196 241 300 302 85 50 207 93 302 108 83 12 228 4 318 -19z"/>
</g>
</svg>
