<?xml version="1.0" standalone="no"?>
<!DOCTYPE svg PUBLIC "-//W3C//DTD SVG 20010904//EN"
 "http://www.w3.org/TR/2001/REC-SVG-20010904/DTD/svg10.dtd">
<svg version="1.0" xmlns="http://www.w3.org/2000/svg"
 width="130.000000pt" height="130.000000pt" viewBox="0 0 130.000000 130.000000"
 preserveAspectRatio="xMidYMid meet">
<metadata>
Created by potrace 1.11, written by Peter Selinger 2001-2013
</metadata>
<g transform="translate(0.000000,130.000000) scale(0.100000,-0.100000)"
fill="#000000" stroke="none">
<path d="M483 1285 c-17 -12 -30 -12 -74 -3 -92 18 -175 -17 -234 -100 -25
-37 -30 -53 -30 -105 0 -53 9 -83 58 -201 31 -76 57 -147 57 -158 0 -10 15
-41 34 -68 20 -29 33 -59 31 -70 -2 -11 -1 -20 3 -21 4 -1 22 -2 41 -3 37 -2
43 7 45 63 1 36 2 37 151 123 83 48 155 88 162 88 16 0 295 -159 309 -176 6
-8 10 -32 9 -54 -1 -23 3 -40 9 -41 6 -1 24 -2 39 -3 15 -2 30 1 33 6 3 5 7
38 8 74 2 61 0 67 -25 85 -15 10 -30 19 -33 19 -3 0 -29 15 -58 33 -29 19 -60
37 -68 40 -8 4 -37 21 -65 37 -27 17 -60 36 -72 42 -12 6 -27 23 -33 39 -18
43 -84 109 -109 109 -13 0 -81 35 -152 77 -125 76 -128 78 -99 86 24 6 37 3
57 -13 31 -24 51 -25 81 -4 25 17 29 60 9 87 -17 24 -59 30 -84 12z"/>
<path d="M701 662 c-69 -7 -139 -70 -159 -145 -10 -36 -10 -47 4 -110 8 -38
59 -95 100 -112 24 -10 34 -21 35 -37 2 -48 -1 -121 -5 -126 -3 -2 -63 29
-133 70 l-128 74 -5 49 c-5 50 -5 50 -42 51 -36 1 -38 -1 -39 -30 -4 -92 -1
-121 12 -128 204 -121 288 -170 347 -200 l43 -23 47 26 c26 14 92 52 147 84
55 32 124 71 153 88 l53 29 -3 76 -3 76 -37 1 c-21 1 -39 -3 -39 -9 -1 -6 -2
-29 -3 -51 -1 -28 -7 -42 -21 -50 -18 -9 -103 -58 -160 -92 -18 -11 -85 -43
-89 -43 -1 0 -2 33 -1 72 l0 73 43 23 c124 69 136 248 22 327 -43 30 -88 42
-139 37z m99 -122 c47 -50 44 -106 -8 -153 -43 -39 -119 -25 -151 27 -30 48
-18 111 26 138 45 28 100 23 133 -12z"/>
</g>
</svg>
