<svg width="823pt" height="280pt" viewBox="0 0 823 280" xmlns="http://www.w3.org/2000/svg"><path d="M96.81 2.56c2.94-2.23 7.75-1.01 8.84 2.63 9.78 25.84 19.43 51.74 29.13 77.61 21.25 2.2 42.16 9.36 59.61 21.82 1.96 1.22 3.01 4.1 1.72 6.17-1.39 1.78-3.84 2.37-6 1.94-2.37-1.14-4.37-2.9-6.61-4.25-13.6-8.58-29.17-13.95-45.11-15.89 19.22 50.78 38.14 101.68 57.25 152.51 1.02 1.86.7 4.3-.85 5.75-31.13 21.48-72.28 27.38-108.25 15.82-25.31-7.84-48.44-24.33-61.96-47.37-4.15 10.62-7.78 21.45-12.15 31.98-1.8 1.33-3.93 1.04-5.87.2-2.99-3.54-.06-7.66 1.07-11.33 3.95-10.38 7.79-20.8 11.71-31.18-7.6-17.81-8.69-38.27-3-56.79 6.86-21.73 22.48-40.18 41.84-51.95.94-.73 2.31-1.14 2.8-2.32C72.95 66.14 84.7 34.28 96.81 2.56M72.19 92.81c16.4-7.39 34.5-10.81 52.45-10.55-8.26-21.36-16.05-42.89-24.37-64.23C91 42.99 81.52 67.87 72.19 92.81m-4.82 12.94c-7.59 19.7-14.9 39.51-22.38 59.25-5.7 13.1-9.81 26.81-15.19 40.04-1.12 2.04.64 3.92 1.41 5.72 5.05 10.04 12.29 18.88 20.7 26.29 36.34 31.77 93.93 34.8 134.03 8.33-19.24-51.24-38.48-102.47-57.88-153.63-21.01-1.16-42.34 3.67-60.69 14m-41.22 49.26c-3.99 12.55-4.21 26.17-1.19 38.96 9.99-26.59 19.9-53.21 29.94-79.78-13.32 10.34-23.84 24.61-28.75 40.82zM599.26 50.23c8.22-4.66 18.08-4.64 27.18-3.47 11.68 1.92 21.22 11.11 24.72 22.25-2.92.78-5.81 1.64-8.66 2.61-2.17-6.21-5.97-12.2-12.09-15.11-10.68-5.24-24.93-3.28-33.03 5.7-6.64 7.17-8.97 17.28-8.97 26.82-.19 10.09 2.15 20.85 9.17 28.47 9.29 9.89 26.06 11.09 36.91 3.11 4.88-3.6 7.64-9.31 8.63-15.18 3.16.58 6.28 1.37 9.37 2.31-2.21 6.98-5.5 13.91-11.48 18.44-10.05 7.87-24.1 9.21-36.1 5.69-9.19-2.64-16.73-9.69-20.64-18.33-5.64-12.34-6.28-26.71-2.69-39.72 2.63-9.69 8.68-18.79 17.68-23.59zM295.4 47.45c3.68.05 7.36-.01 11.04.06 2.91 9.08 7.03 17.71 10.42 26.61 6.61 16.13 13.08 32.32 19.71 48.44 1.34 3.27 2.91 6.44 4.48 9.61-3.76 0-7.51.03-11.26-.04-2.05-8.93-6.02-17.22-9.28-25.73-13 .1-26.01-.01-39.01.05-3.26 8.49-7.4 16.72-9.24 25.68-3.77.06-7.54.05-11.31.02 3.45-6.6 6.16-13.54 8.9-20.45 7.6-18.73 15.25-37.44 22.78-56.2 1.08-2.63 1.98-5.32 2.77-8.05M284.13 98.7c11.22.06 22.46.21 33.68-.07-5.58-14.52-11.72-28.85-16.72-43.58-5.61 14.56-11.2 29.14-16.96 43.65zm164.42-51.19c3.32-.05 6.63-.06 9.95-.01-1.79 12.37-.33 24.92-1.13 37.36 5.58-12.43 22.03-17.19 33.91-11.26 5.39 2.65 8.69 8.42 9.35 14.26.69 14.76-.67 29.6.94 44.32-3.28-.06-6.57-.01-9.85-.02 1.35-10.33.6-20.77.8-31.15-.17-6.18.97-13.23-3.22-18.41-4.33-5.15-12.28-5.03-18.05-2.64-8.29 4.24-14.37 13.54-13.58 23 .19 9.73-.49 19.51.78 29.19-3.3.01-6.59.01-9.88.01.98-6.02.74-12.13.76-18.19 0-18.65.02-37.29-.01-55.94.02-3.52-.26-7.03-.77-10.52zm-97.89-.02c3.29-.03 6.59-.02 9.89-.03-.36 3.85-.77 7.69-.76 11.56-.03 19.99 0 39.98-.01 59.98-.05 4.39.36 8.78.78 13.15-3.32.03-6.63.01-9.93.03.16-1.02.33-2.03.51-3.05.66-21.02.11-42.07.29-63.1-.15-6.18.44-12.43-.77-18.54zm384.78-.03c3.6.03 7.21-.02 10.82.06-.04 3.29-.02 6.58-.04 9.86-3.59.04-7.18.06-10.76.08-.04-3.33-.02-6.67-.02-10zm-335.29 24.6c9.6-2.23 20.94-.59 27.85 6.98 7.16 8.08 8.46 19.74 6.99 30.06-1.21 8.36-5.67 16.72-13.41 20.68-4.14 2.4-8.93 3.08-13.63 3.32-8.86-.02-17.65-4.24-22.6-11.71.5 10.22-.14 20.47.5 30.69.15.84.43 2.53.58 3.37-3.26-.03-6.51-.06-9.76-.03 1.02-6.43.76-12.95.81-19.43-.01-14.33-.01-28.65-.01-42.98-.05-6.94.23-13.91-.75-20.8 2.93.05 5.85.04 8.78.01-.02 3.53-.03 7.05-.15 10.57 3.44-5.2 8.66-9.31 14.8-10.73m1.63 6.75c-1 .34-2.01.67-3.01.99-12.77 5.41-16 22.31-10.74 34.08 5 12.51 24 16.24 33.14 6.22 5-5.36 5.95-13.09 5.63-20.12.07-6.7-2.27-13.8-7.67-18.06-4.83-3.9-11.48-4.03-17.35-3.11zm129.83-6.95c7.97-2.2 16.87-2.38 24.56.96 5.18 2.28 8.43 7.65 8.74 13.22.89 15.35-.62 30.81.89 46.14-3.06-.31-6.4.7-9.23-.78.76-2.32.58-4.78.63-7.18-7.42 6.99-18.18 10.64-28.24 8.39-5.25-.98-10.29-4.29-12.3-9.37-1.64-3.56-1.27-7.55-.98-11.33 1.52-5.03 4.98-9.38 9.77-11.62 9.73-4.61 20.76-5.03 31.35-5.05-.26-4.83 1.27-10.69-2.61-14.48-4.83-4.51-12.2-3.97-18.22-2.8-5.33 1.1-8.93 5.56-10.67 10.47-2.78-.78-5.62-1.35-8.43-2.03 2.32-6.8 7.72-12.58 14.74-14.54m17.95 30.02c-7.31.56-15.25.85-21.4 5.36-5.06 3.57-6.16 11.81-1.59 16.21 3.35 2.94 8.16 3.52 12.42 2.79 5.95-1.07 11.71-4.07 15.53-8.83 3.63-4.41 1.8-10.48 2.58-15.69-2.52-.16-5.04.01-7.54.16zm132.27-29.32c7.65-2.42 16.13-2.26 23.62.68 6.88 2.77 12.23 8.71 14.71 15.65 2.68 7.68 2.79 16.1.83 23.96-1.87 6.13-5.44 11.91-10.82 15.56-8.96 6.02-21.03 6.59-30.84 2.36-6.04-2.61-10.96-7.59-13.46-13.66-3.68-8.8-3.81-18.97-.75-27.97 2.6-7.71 8.92-14.13 16.71-16.58m7.34 5.58c-6.31.67-12.05 4.74-14.87 10.4-2.31 4.79-3 10.2-2.74 15.47.22 6.82 2.7 13.94 8.27 18.21 7.15 5.32 17.7 5.44 25.07.48 6.19-4.38 8.97-12.27 8.84-19.64.36-6.74-1.25-13.88-5.83-19.02-4.58-5.2-12.07-7-18.74-5.9zm96.71-6.1c8.44-2.01 19.01-.99 24.57 6.47 4.75 6.5 3.62 14.94 3.75 22.5.18 10.38-.49 20.81.66 31.15-3.24.02-6.47.01-9.7.01.94-11.69.45-23.43.58-35.14.01-4.57.18-9.49-2.41-13.49-1.38-2.37-3.88-3.66-6.27-4.78-5.73-1.1-12.05-.22-16.5 3.78-5.45 4.88-10.12 11.81-9.4 19.44.16 10.06-.43 20.15.67 30.18-3.2.01-6.4 0-9.59.05.92-10.05.41-20.15.55-30.22-.13-9.92.39-19.87-.58-29.76 2.98.03 5.97.02 8.97 0-.19 4.16.52 8.44-.66 12.51 3.68-5.63 8.51-11.13 15.36-12.7zm-50.12.23c3.29-.04 6.6-.01 9.91-.06-1.28 11.2-.54 22.5-.74 33.74.06 8.75-.31 17.52.74 26.23-3.39-.17-6.87.45-10.16-.58 1.09-3.07.79-6.38.97-9.58.04-12.65.02-25.29 0-37.93 0-3.95-.06-7.92-.72-11.82zm-229.07 100.3c4.36-.36 8.77-.19 13.15-.1 1.86.03 1.42 2.33 1.51 3.55.08 28.7-.2 57.41.21 86.1-.08.43-.24 1.29-.32 1.71-4.46-.2-8.94.77-13.35-.13-.11-2.33-.23-4.67-.35-7-5.13 6.7-14.15 10.04-22.39 8.23-8.43-1.48-15.24-8.16-18.28-15.97-4.06-10.21-3.98-21.98-.15-32.25 2.61-7.08 8.07-13.25 15.16-16.04 8.01-3.13 17.86-1.82 24.17 4.25-.24-8.96-.02-17.92-.12-26.87.07-1.84-.3-3.84.76-5.48m-18.22 40.15c-6.63 3.33-8.81 11.46-9.01 18.34-.2 6.3.82 13.31 5.43 18 4.25 4.47 12.06 4.52 16.51.32 3.55-3.43 4.84-8.57 4.57-13.38-.34-6.19 1.14-12.99-2.32-18.57-2.88-5.15-9.87-7.34-15.18-4.71zm-221.66-34.97c.28-.34.85-1.04 1.13-1.39 14.96.02 29.92 0 44.88.01 1.17 2.04.7 4.44.8 6.68-.06 2.17.25 4.46-.72 6.49-10.23-.02-20.46-.01-30.69.01.06 7.96.03 15.92.03 23.88 9.64.15 19.3-.31 28.92.24-.06 4.25.83 8.7-.54 12.8-9.45-.06-18.9-.02-28.35-.01-.06 11.19-.04 22.38-.01 33.57.01 1.31-.21 2.57-.66 3.8-4.23.15-8.5-.28-12.7.39-.7-.56-2.05-.69-1.99-1.8-.16-28.22.03-56.45-.1-84.67zm144.23 29.41c4.53-4.45 10.35-8.04 16.9-8.06 7.04-.53 14.48 2.7 18.27 8.79 4.04 6.21 4.65 13.9 4.44 21.12-.17 11.57.39 23.18-.29 34.73-4.91.54-9.89.64-14.78-.05-.67-13.22.04-26.49-.38-39.73-.37-3.8-1.43-8.03-4.77-10.32-4.54-2.95-11.03-1.49-14.36 2.63-2.3 2.68-3.22 6.25-3.33 9.71-.08 12.53.13 25.07-.1 37.6-4.16 1.19-8.5-.37-12.71.57-.77-.27-1.53-.54-2.29-.81-.19-17.1.08-34.2-.15-51.3.01-3.85-.51-7.72.01-11.55 4.39-.25 8.8-.11 13.19-.13.08 2.27.18 4.53.35 6.8zm-82.82-6.11c4.4-1.63 9.58-.25 14.28-.69.54 1.14.81 2.35.81 3.61.04 11.71-.13 23.43.09 35.14.21 4.79 1.54 11.01 6.79 12.62 6.95 2.56 14.76-3.52 15.05-10.7.28-13.47-.28-26.98.28-40.44 4.45-.4 8.92-.28 13.38-.17 1.93-.09 1.59 2.3 1.62 3.56.09 19.47-.39 38.95.49 58.41.01 1.58-1.79 1.63-2.95 1.71-3.56-.23-7.12-.29-10.69-.24-.13-2.25-.24-4.5-.32-6.74-3.44 3.36-7.34 6.59-12.21 7.5-7.95 2.22-17.64-.22-22.24-7.44-5.44-8.32-4.67-18.68-4.69-28.16.2-9.32-.42-18.69.31-27.97z" fill="#fefefe"/></svg>