<svg xmlns="http://www.w3.org/2000/svg" viewBox="0 0 376.6 435"><style>.st0{fill:#3660ac}</style><g id="_x23_ffffffff"><path class="st0" d="M187.8 0h.5c62.8 42.4 125.5 84.9 188.3 127.4V183c.2 6.9-5.7 13.2-12.6 13.3-6.9.5-13.5-5.3-13.8-12.2-.2-14.3.1-28.5-.1-42.8-54-36.4-107.8-73-161.8-109.4-54 36.5-107.9 73-161.9 109.6 0 14.2.1 28.3-.1 42.5-.1 8.6-10.1 14.9-18 11.5-5-1.9-8.6-7.1-8.4-12.4v-55.6l139.2-94.2c16.3-11.2 32.8-21.9 48.7-33.3z"/><path class="st0" d="M161.1 141.8c18.5-6.7 39.5-6.2 57.8 1.3 16.5 6.8 30.7 19.2 39.5 34.7 9 15.6 12.4 34.4 9.5 52.2-2.7 17.3-11.4 33.6-24.1 45.6-11.6 11-26.5 18.5-42.3 21.1 0 32.5-.1 65.1-.1 97.6 29.2-20.2 58.8-39.9 88.2-59.8 20.2-13.6 40.3-27.3 60.5-40.9.2-14.3-.1-28.5.1-42.8.3-6.9 6.9-12.8 13.8-12.3 6.9.1 12.8 6.4 12.6 13.3v55.6c-62.7 42.7-125.6 85-188.2 127.6-11.7-7.4-22.9-15.6-34.4-23.2-51.3-34.7-102.6-69.5-154-104.2v-55.7c-.3-7 6-13.4 13-13.3 6.8-.3 13.2 5.6 13.3 12.4.1 14.2 0 28.3 0 42.5 49.6 33.6 99.1 67.1 148.7 100.6v-97.4c-17.3-2.8-33.5-11.5-45.5-24.3-12.7-13.3-20.5-31.1-21.7-49.5-1.2-17.2 3.3-34.7 12.7-49.1 9.6-14.6 24.1-26.1 40.6-32m15.5 22.9c-18.4 3.9-34.1 18.1-39.9 36.1-5.1 15.3-2.8 32.8 6.2 46.2 9 13.9 24.6 23.2 41.1 24.4 5 0 10.1.3 15-.9 16.4-3.2 30.9-14.4 38.1-29.5 6.1-12.3 7.1-27 2.8-40.1-4.3-13.5-14.3-25.1-26.9-31.6-11.2-5.6-24.2-7.3-36.4-4.6z"/></g></svg>