<svg xmlns="http://www.w3.org/2000/svg" viewBox="0 0 600 742"><style>.st0{fill:#fff}</style><g id="_x23_ffffffff"><path class="st0" d="M305.8 0h.5c62.8 42.4 125.5 84.9 188.3 127.4V183c.2 6.9-5.7 13.2-12.6 13.3-6.9.5-13.5-5.3-13.8-12.2-.2-14.3.1-28.5-.1-42.8-54-36.4-107.8-73-161.8-109.4-54 36.5-107.9 73-161.9 109.6 0 14.2.1 28.3-.1 42.5-.1 8.6-10.1 14.9-18 11.5-5-1.9-8.6-7.1-8.4-12.4v-55.6l139.2-94.2c16.3-11.2 32.8-21.9 48.7-33.3z"/><path class="st0" d="M279.1 141.8c18.5-6.7 39.5-6.2 57.8 1.3 16.5 6.8 30.7 19.2 39.5 34.7 9 15.6 12.4 34.4 9.5 52.2-2.7 17.3-11.4 33.6-24.1 45.6-11.6 11-26.5 18.5-42.3 21.1 0 32.5-.1 65.1-.1 97.6 29.2-20.2 58.8-39.9 88.2-59.8 20.2-13.6 40.3-27.3 60.5-40.9.2-14.3-.1-28.5.1-42.8.3-6.9 6.9-12.8 13.8-12.3 6.9.1 12.8 6.4 12.6 13.3v55.6c-62.7 42.7-125.6 85-188.2 127.6-11.7-7.4-22.9-15.6-34.4-23.2-51.3-34.7-102.6-69.5-154-104.2v-55.7c-.3-7 6-13.4 13-13.3 6.8-.3 13.2 5.6 13.3 12.4.1 14.2 0 28.3 0 42.5 49.6 33.6 99.1 67.1 148.7 100.6v-97.4c-17.3-2.8-33.5-11.5-45.5-24.3-12.7-13.3-20.5-31.1-21.7-49.5-1.2-17.2 3.3-34.7 12.7-49.1 9.6-14.6 24.1-26.1 40.6-32m15.5 22.9c-18.4 3.9-34.1 18.1-39.9 36.1-5.1 15.3-2.8 32.8 6.2 46.2 9 13.9 24.6 23.2 41.1 24.4 5 0 10.1.3 15-.9 16.4-3.2 30.9-14.4 38.1-29.5 6.1-12.3 7.1-27 2.8-40.1-4.3-13.5-14.3-25.1-26.9-31.6-11.2-5.6-24.2-7.3-36.4-4.6zM1.3 742c17.3-38.6 34.4-77.4 51.7-116 8.9.1 17.8-.2 26.8.2 17 38.7 34.4 77.2 51.6 115.8H103c-3.5-8.2-6.8-16.5-10.2-24.7H39.4c-3.4 8.2-6.8 16.5-10.2 24.7h.8H1.3m64.8-89C60 667.6 54 682.2 48 696.8c12.1-.1 24.2 0 36.3 0-6.1-14.6-12.2-29.2-18.2-43.8zm109.4-27c7.5-.1 14.9 0 22.4 0 19.1 23.4 38.2 46.8 57.4 70.2v-70.1h26.5v116h-22.2c-19.2-23.2-38.2-46.6-57.3-69.9v69.9h-26.8V626zm167 0h27v53.9c16.9-18 34-35.8 50.8-53.8 10.1-.1 20.1 0 30.2 0-15.8 17.4-32 34.5-47.9 51.8l50.7 64.2h-31.7c-12.3-15-24.4-30.2-36.8-45.2-5.1 5.3-10.2 10.7-15.3 16 .1 9.7 0 19.4 0 29.2h-27V626zm155 0c15.8-.1 31.7 0 47.5-.1 8.4 0 16.9.6 24.9 3.4 8.9 2.9 17.2 8.5 22.2 16.6 6.4 10 7.3 22.8 4.5 34.2-2.9 11.2-11.7 20.2-22.1 24.8 8.5 12.2 17.1 24.4 25.5 36.7v.4h-28.8c-7.5-10.7-14.9-21.5-22.4-32.3h-24.3v32.2h-27V626m27 22.2c-.1 13.3 0 26.7 0 40H548c5.7-.2 11.8-1.4 16.3-5.1 7.3-6 8.2-17.3 3.9-25.3-3.8-6.6-11.9-9.3-19.1-9.5-8.2-.1-16.4 0-24.6-.1z"/></g></svg>