<svg width="800" height="742pt" viewBox="0 0 600 742" xmlns="http://www.w3.org/2000/svg"><g fill="#fff"><path d="M306.18 0h.15c62.75 42.46 125.49 84.94 188.23 127.42 0 18.53.02 37.07-.01 55.61.22 6.86-5.69 13.11-12.55 13.27-6.96.55-13.61-5.33-13.83-12.32-.12-14.2 0-28.39-.06-42.59-53.95-36.52-107.89-73.06-161.86-109.56-53.96 36.52-107.91 73.05-161.87 109.57-.04 14.18.06 28.36-.04 42.55-.19 6.81-6.51 12.61-13.3 12.37-6.65.09-12.78-5.59-13.01-12.26-.07-18.9-.02-37.8-.02-56.7C180.75 84.93 243.45 42.44 306.18 0z"/><path d="M259.82 151.83c24.84-17.94 60.05-19.58 86.47-4.09 14.58 8.32 26.45 21.3 33.39 36.59 7.78 16.93 9.28 36.61 4.29 54.55-4.22 15.4-13.24 29.41-25.41 39.75-11.04 9.47-24.7 15.76-39.03 18.21-.02 23.75-.06 47.49-.09 71.24-.02 8.78.04 17.56-.03 26.34 49.43-33.78 99.15-67.16 148.7-100.79.06-14.2-.06-28.4.06-42.6.23-6.97 6.81-12.82 13.75-12.33 6.87.12 12.84 6.37 12.63 13.25.03 18.54.01 37.09.01 55.64-62.71 42.5-125.52 84.89-188.18 127.45-62.88-42.32-125.55-84.98-188.37-127.4-.01-18.91-.04-37.83.02-56.74.3-6.63 6.36-12.29 12.99-12.2 6.78-.27 13.1 5.5 13.33 12.3.07 14.2 0 28.41.03 42.61 49.56 33.55 99.12 67.09 148.68 100.64-.01-8.76 0-17.52 0-26.28-.01-23.71.01-47.42-.01-71.13-25.21-4.06-47.89-20.87-59.09-43.81-9.05-18.09-10.77-39.67-4.8-58.99 5.15-16.96 16.17-32.03 30.66-42.21m35.55 12.74c-14.46 2.91-27.5 12.05-35.21 24.6-7.63 12.16-10.01 27.44-6.49 41.35 4.07 16.68 16.62 30.94 32.6 37.19 8.76 3.63 18.44 4.34 27.78 3.26 15.27-2.12 29.35-11.21 37.7-24.16 8-12.18 10.67-27.67 7.22-41.82-3.42-14.54-13.22-27.38-26.27-34.62-11.21-6.34-24.73-8.41-37.33-5.8zM1.32 742c17.26-38.65 34.38-77.36 51.67-116 8.89.07 17.79-.15 26.68.11 17.1 38.68 34.45 77.26 51.67 115.89H102.9c-3.44-8.24-6.8-16.5-10.23-24.75H39.33c-3.45 8.23-6.8 16.5-10.22 24.74l.96.01H1.32m46.65-45.21c12.08-.09 24.16-.03 36.24-.03-6.05-14.57-12.07-29.16-18.09-43.75-6.16 14.55-12.11 29.18-18.15 43.78zm127.52-70.78c7.46-.03 14.92 0 22.39-.01 19.13 23.37 38.23 46.77 57.37 70.14-.01-23.37 0-46.75-.01-70.13 8.84-.02 17.68-.02 26.52 0-.01 38.66-.01 77.33-.01 115.99h-22.19c-19.14-23.25-38.19-46.58-57.3-69.86-.02 23.29-.01 46.57-.01 69.86H175.5c0-38.66 0-77.32-.01-115.99zm167 .01c9.01-.03 18.01-.03 27.02 0-.01 17.96-.01 35.92 0 53.88 16.82-18.05 33.99-35.79 50.78-53.87 10.06-.06 20.12-.03 30.18-.01-15.78 17.42-31.96 34.48-47.88 51.79 16.84 21.44 33.75 42.83 50.7 64.19h-31.73c-12.28-15.05-24.41-30.22-36.82-45.16-5.11 5.3-10.15 10.64-15.25 15.94.03 9.74 0 19.48.01 29.22h-27c-.01-38.66.01-77.32-.01-115.98zm155 .01c16.17-.07 32.34 0 48.51-.04 8.06.05 16.24.75 23.9 3.42 8.91 2.91 17.18 8.53 22.19 16.57 6.25 9.83 7.23 22.3 4.67 33.47-2.68 11.53-11.6 20.83-22.31 25.47 8.55 12.21 17.06 24.43 25.55 36.68v.4h-28.82c-7.5-10.71-14.88-21.51-22.34-32.26-8.11.03-16.22 0-24.33.02-.02 10.74 0 21.49-.01 32.24h-27c-.01-38.66.01-77.32-.01-115.97m27.05 22.2c-.08 13.34-.02 26.68-.03 40.01 4.82.01 9.64 0 14.46.01 6.33-.06 12.86.48 18.95-1.68 5.58-1.74 10.33-6.15 11.93-11.84 1.74-6.23 1.1-13.47-2.85-18.75-4.23-5.39-11.31-7.44-17.9-7.72-8.19-.03-16.38.02-24.56-.03z"/></g><g fill="#1c51ae"><path d="M223.08 102.14c21.62-15.31 47.54-24.38 73.96-26.17 28.71-1.97 58.02 4.61 82.93 19.1 28.91 16.48 51.82 43.18 63.76 74.24 10.06 25.87 12.35 54.62 6.94 81.81-7.91 40.3-33.81 76.59-69.29 97.26-18.79 11.15-40.16 17.95-61.94 19.7.03-23.75.07-47.49.09-71.24 14.33-2.45 27.99-8.74 39.03-18.21 12.17-10.34 21.19-24.35 25.41-39.75 4.99-17.94 3.49-37.62-4.29-54.55-6.94-15.29-18.81-28.27-33.39-36.59-26.42-15.49-61.63-13.85-86.47 4.09-14.49 10.18-25.51 25.25-30.66 42.21-5.97 19.32-4.25 40.9 4.8 58.99 11.2 22.94 33.88 39.75 59.09 43.81.02 23.71 0 47.42.01 71.13-27.23-2.56-53.64-12.98-75.27-29.72-23.48-18.04-41.33-43.35-50.25-71.6-9.58-29.93-9.15-62.98 1.19-92.66 9.99-28.85 29.3-54.39 54.35-71.85z"/><path d="M295.37 164.57c12.6-2.61 26.12-.54 37.33 5.8 13.05 7.24 22.85 20.08 26.27 34.62 3.45 14.15.78 29.64-7.22 41.82-8.35 12.95-22.43 22.04-37.7 24.16-9.34 1.08-19.02.37-27.78-3.26-15.98-6.25-28.53-20.51-32.6-37.19-3.52-13.91-1.14-29.19 6.49-41.35 7.71-12.55 20.75-21.69 35.21-24.6z"/></g></svg>