<?xml version="1.0" encoding="UTF-8" ?>
<!DOCTYPE svg PUBLIC "-//W3C//DTD SVG 1.1//EN" "http://www.w3.org/Graphics/SVG/1.1/DTD/svg11.dtd">
<svg width="695pt" height="520pt" viewBox="0 0 695 520" version="1.1" xmlns="http://www.w3.org/2000/svg">
<g id="#ffffffff">
<path fill="#ffffff" opacity="1.00" d=" M 311.34 1.54 C 312.59 0.30 314.38 0.57 315.98 0.52 C 342.98 0.59 369.98 0.47 396.98 0.58 C 400.25 0.49 402.64 4.78 400.66 7.48 C 387.10 30.96 373.42 54.38 359.85 77.86 C 358.87 79.65 357.27 81.58 355.01 81.40 C 327.67 81.41 300.32 81.42 272.98 81.39 C 269.46 81.63 266.90 77.48 268.69 74.42 C 282.19 51.11 295.76 27.82 309.25 4.50 C 309.89 3.48 310.41 2.33 311.34 1.54 Z" />
<path fill="#ffffff" opacity="1.00" d=" M 273.01 88.57 C 327.34 88.57 381.66 88.54 435.98 88.46 C 438.52 88.48 441.09 88.25 443.62 88.62 C 446.28 89.39 447.56 92.70 446.21 95.10 C 432.01 118.94 417.83 142.79 403.60 166.60 C 402.57 168.70 400.23 169.73 397.97 169.47 C 371.15 169.43 344.32 169.57 317.50 169.40 C 324.16 157.97 330.09 146.11 336.74 134.67 C 339.77 134.73 342.81 134.76 345.85 134.67 C 343.64 130.20 341.00 125.94 338.40 121.69 C 333.40 121.66 328.39 121.48 323.38 121.66 C 324.92 124.91 326.85 127.96 328.68 131.05 C 322.45 142.62 315.90 154.04 309.91 165.74 C 296.24 142.55 282.88 119.17 269.36 95.90 C 267.06 93.11 269.46 88.40 273.01 88.57 Z" />
<path fill="#ffffff" opacity="1.00" d=" M 206.38 186.47 C 234.23 186.30 262.10 186.43 289.95 186.48 C 293.41 186.33 295.63 191.01 293.40 193.68 C 280.24 216.40 267.02 239.08 253.88 261.81 C 252.52 264.06 251.22 267.34 248.07 267.25 C 220.71 267.29 193.34 267.25 165.98 267.26 C 162.54 267.54 159.79 263.39 161.59 260.35 C 174.99 237.13 188.52 213.98 201.93 190.77 C 203.00 189.04 204.06 186.66 206.38 186.47 Z" />
<path fill="#ffffff" opacity="1.00" d=" M 424.29 190.63 C 451.26 190.55 478.24 190.62 505.21 190.60 C 507.65 191.90 509.41 195.13 507.50 197.64 C 493.83 221.26 480.09 244.84 466.41 268.46 C 465.51 270.01 463.99 271.62 462.03 271.39 C 434.66 271.39 407.29 271.39 379.92 271.39 C 376.56 271.84 373.44 267.52 375.55 264.64 C 388.98 241.09 402.87 217.81 416.24 194.23 C 422.65 205.48 428.97 216.84 434.94 228.32 C 434.28 231.64 431.57 234.28 430.26 237.43 C 435.28 237.73 440.32 237.52 445.36 237.57 C 447.87 233.20 450.70 228.99 452.83 224.41 C 449.53 224.30 446.23 224.33 442.94 224.29 C 436.68 213.09 430.71 201.74 424.29 190.63 Z" />
<path fill="#ffffff" opacity="1.00" d=" M 301.83 196.87 C 303.58 193.82 308.50 194.05 310.00 197.22 C 324.06 221.65 338.06 246.11 352.08 270.56 C 338.21 270.63 324.36 269.71 310.49 269.59 C 309.13 267.16 307.87 264.67 306.42 262.29 C 306.11 262.25 305.49 262.17 305.18 262.13 C 302.83 266.10 300.60 270.15 298.18 274.09 C 300.19 278.57 303.08 282.59 305.18 287.03 C 308.19 285.12 308.79 280.99 311.18 278.41 C 324.77 278.43 338.33 279.16 351.91 279.36 C 337.88 303.23 324.09 327.24 310.13 351.15 C 309.24 353.06 307.23 354.48 305.08 354.28 C 298.99 354.17 292.90 354.18 286.82 354.23 L 286.12 353.83 C 263.03 353.86 239.94 353.75 216.85 353.54 C 213.17 354.10 210.11 349.28 212.60 346.33 C 228.42 320.49 244.05 294.53 260.01 268.78 C 273.94 244.81 287.83 220.80 301.83 196.87 Z" />
<path fill="#ffffff" opacity="1.00" d=" M 379.35 278.43 C 435.24 278.40 491.13 278.42 547.02 278.30 C 550.42 277.61 553.89 281.77 551.81 284.83 C 537.70 308.60 523.54 332.34 509.39 356.09 C 508.36 358.17 506.05 358.77 503.91 358.67 C 476.29 358.61 448.67 358.70 421.06 358.62 C 419.04 358.76 417.63 357.04 416.74 355.46 C 403.35 332.26 389.91 309.10 376.49 285.93 C 374.30 283.31 375.99 278.87 379.35 278.43 Z" />
<path fill="#ffffff" opacity="1.00" d=" M 23.98 396.63 C 30.28 396.44 36.65 400.21 39.24 405.99 C 41.60 412.07 40.19 420.85 33.41 423.37 C 37.08 424.65 40.79 426.59 42.74 430.12 C 46.23 436.44 45.32 445.10 40.23 450.33 C 36.90 453.97 31.96 455.91 27.06 455.80 C 18.04 455.78 9.02 455.83 0.00 455.76 L 0.00 396.66 C 7.99 396.62 15.99 396.64 23.98 396.63 M 13.69 407.86 C 13.49 408.07 13.10 408.49 12.90 408.70 C 12.79 412.56 12.92 416.43 12.87 420.30 C 16.28 420.17 19.78 420.70 23.13 419.98 C 27.35 418.94 29.15 413.06 26.07 409.90 C 22.87 406.48 17.78 408.44 13.69 407.86 M 12.84 430.51 C 12.88 435.15 12.91 439.79 12.82 444.43 C 17.28 444.51 21.81 444.88 26.24 444.27 C 31.76 443.18 33.86 435.13 29.00 431.92 C 24.16 429.06 18.17 430.86 12.84 430.51 Z" />
<path fill="#ffffff" opacity="1.00" d=" M 153.06 395.99 C 167.19 393.65 182.15 402.06 187.34 415.43 C 191.34 426.27 189.11 439.52 180.65 447.66 C 169.96 459.08 150.62 460.24 138.25 450.91 C 131.90 446.21 127.21 439.00 126.34 431.07 C 125.90 425.67 125.90 420.00 128.09 414.93 C 132.27 404.81 142.14 397.21 153.06 395.99 M 151.47 408.75 C 144.08 411.35 138.61 419.06 139.26 426.98 C 138.96 435.85 146.36 444.07 155.13 444.97 C 164.57 446.61 174.25 439.29 175.75 429.94 C 177.66 421.58 172.64 412.53 164.87 409.16 C 160.63 407.41 155.81 407.20 151.47 408.75 Z" />
<path fill="#ffffff" opacity="1.00" d=" M 219.35 406.32 C 228.45 395.75 244.69 392.75 257.17 398.70 C 261.23 400.67 264.89 403.44 267.81 406.90 C 264.51 409.13 262.01 412.47 258.38 414.18 C 253.57 408.41 245.16 406.38 238.08 408.55 C 232.33 410.18 227.67 414.96 225.82 420.61 C 224.35 426.72 225.11 433.79 229.57 438.54 C 236.26 446.27 249.26 446.77 256.73 439.91 C 257.56 439.44 258.42 437.51 259.49 438.46 C 262.23 440.75 265.07 442.96 267.64 445.44 C 260.37 455.15 246.44 458.78 234.85 455.63 C 225.49 453.24 217.29 446.30 213.79 437.24 C 209.91 426.97 211.75 414.44 219.35 406.32 Z" />
<path fill="#ffffff" opacity="1.00" d=" M 327.65 396.62 C 332.94 396.68 338.24 396.58 343.53 396.68 C 336.37 404.56 329.64 412.82 322.54 420.75 C 322.00 421.60 320.31 422.72 321.48 423.80 C 329.03 434.44 336.51 445.14 344.13 455.74 C 338.92 455.84 333.70 455.82 328.48 455.75 C 323.01 447.84 317.23 440.16 311.86 432.19 C 309.58 435.07 306.32 437.37 304.85 440.78 C 305.59 445.74 304.52 450.72 305.25 455.68 C 300.79 455.88 296.32 455.83 291.86 455.72 C 292.38 440.82 291.57 425.93 291.99 411.03 C 291.77 406.24 291.98 401.46 291.85 396.67 C 296.29 396.62 300.73 396.60 305.17 396.69 C 304.73 405.53 305.43 414.36 304.75 423.19 C 312.34 414.30 320.07 405.52 327.65 396.62 Z" />
<path fill="#ffffff" opacity="1.00" d=" M 368.47 404.41 C 380.96 391.90 403.97 393.01 415.00 406.93 C 411.92 409.32 409.01 411.92 406.04 414.44 C 401.39 409.18 393.94 406.57 387.05 408.14 C 381.26 409.11 376.29 413.31 373.82 418.57 C 371.12 425.24 372.05 433.61 377.13 438.92 C 384.67 447.11 399.00 446.42 406.05 437.92 C 409.12 440.27 411.88 442.99 415.01 445.26 C 404.60 459.26 381.96 460.39 369.26 448.84 C 356.11 438.08 355.66 415.61 368.47 404.41 Z" />
<path fill="#ffffff" opacity="1.00" d=" M 70.14 396.65 C 74.51 396.63 78.89 396.63 83.27 396.66 C 83.22 412.38 83.28 428.10 83.23 443.82 C 90.90 443.77 98.58 443.80 106.25 443.80 C 106.26 447.79 106.25 451.77 106.27 455.77 C 94.24 455.84 82.21 455.76 70.17 455.81 C 70.17 436.09 70.24 416.37 70.14 396.65 Z" />
<path fill="#ffffff" opacity="1.00" d=" M 439.19 396.68 C 443.58 396.60 447.97 396.65 452.37 396.64 C 452.31 403.96 452.40 411.27 452.31 418.59 C 460.94 418.54 469.58 418.67 478.21 418.52 C 478.11 411.23 478.24 403.94 478.13 396.65 C 482.49 396.63 486.86 396.62 491.22 396.66 C 491.19 416.36 491.19 436.05 491.22 455.75 C 486.87 455.84 482.52 455.76 478.17 455.82 C 478.19 447.41 478.16 439.01 478.18 430.60 C 469.57 430.53 460.95 430.62 452.34 430.55 C 452.36 438.97 452.34 447.39 452.35 455.81 C 447.98 455.78 443.61 455.79 439.24 455.81 C 439.22 436.10 439.33 416.39 439.19 396.68 Z" />
<path fill="#ffffff" opacity="1.00" d=" M 539.61 396.60 C 543.50 396.66 547.39 396.65 551.29 396.61 C 559.51 416.29 567.42 436.10 575.80 455.71 C 571.09 455.88 566.37 455.76 561.66 455.79 C 560.19 452.45 559.10 448.95 557.45 445.70 C 549.46 445.78 541.46 445.84 533.48 445.67 C 531.69 448.90 530.67 452.47 529.17 455.84 C 524.48 455.74 519.80 455.83 515.11 455.79 C 523.31 436.07 531.32 416.28 539.61 396.60 M 536.94 435.32 C 542.60 435.31 548.26 435.32 553.93 435.31 C 550.88 428.32 548.53 421.03 545.19 414.17 C 542.89 421.38 539.64 428.25 536.94 435.32 Z" />
<path fill="#ffffff" opacity="1.00" d=" M 599.72 396.65 C 604.09 396.63 608.47 396.62 612.85 396.66 C 612.73 416.38 612.82 436.10 612.80 455.82 C 608.42 455.75 604.04 455.90 599.67 455.70 C 599.80 436.02 599.72 416.33 599.72 396.65 Z" />
<path fill="#ffffff" opacity="1.00" d=" M 641.82 396.66 C 645.79 396.63 649.78 396.61 653.76 396.68 C 663.10 408.87 672.43 421.09 682.02 433.08 C 681.66 420.94 681.96 408.80 681.85 396.67 C 686.23 396.62 690.61 396.60 695.00 396.71 L 695.00 455.51 C 691.30 456.00 687.57 455.75 683.86 455.83 C 674.08 443.33 664.37 430.77 654.59 418.26 C 654.61 430.78 654.60 443.30 654.60 455.82 C 650.34 455.78 646.07 455.81 641.82 455.76 C 641.83 436.06 641.83 416.36 641.82 396.66 Z" />
<path fill="#ffffff" opacity="1.00" d=" M 305.55 484.48 C 315.39 484.47 325.24 484.47 335.08 484.48 C 335.09 486.23 335.09 487.98 335.09 489.74 C 331.20 489.78 327.32 489.77 323.44 489.75 C 323.39 499.83 323.46 509.91 323.41 520.00 L 317.29 520.00 C 317.18 509.92 317.28 499.84 317.24 489.76 C 313.35 489.76 309.46 489.77 305.57 489.77 C 305.57 488.00 305.56 486.24 305.55 484.48 Z" />
<path fill="#ffffff" opacity="1.00" d=" M 416.30 484.47 C 424.29 484.48 432.28 484.46 440.27 484.48 C 440.25 486.24 440.24 488.01 440.24 489.78 C 434.35 489.75 428.46 489.77 422.57 489.76 C 422.56 492.98 422.56 496.20 422.55 499.43 C 427.63 499.42 432.72 499.42 437.81 499.41 C 437.80 501.17 437.80 502.93 437.80 504.70 C 432.72 504.67 427.64 504.68 422.56 504.68 C 422.57 507.96 422.56 511.24 422.55 514.52 C 428.56 514.50 434.58 514.53 440.60 514.50 C 440.58 516.32 440.56 518.16 440.55 520.00 L 416.37 520.00 C 416.26 508.16 416.39 496.31 416.30 484.47 Z" />
<path fill="#ffffff" opacity="1.00" d=" M 501.42 484.47 C 503.49 484.47 505.56 484.46 507.64 484.47 C 507.63 489.30 507.55 494.14 507.68 498.97 C 509.30 498.28 510.55 497.02 511.69 495.72 C 515.03 491.92 518.62 488.34 521.92 484.51 C 524.52 484.47 527.12 484.46 529.73 484.48 C 524.52 489.97 519.50 495.63 514.27 501.10 C 519.95 507.38 525.81 513.51 531.25 520.00 L 523.69 520.00 C 519.04 515.37 514.76 510.40 510.37 505.54 C 509.67 504.68 508.63 504.28 507.67 503.84 C 507.55 509.18 507.64 514.53 507.62 519.88 C 505.69 519.89 503.78 519.94 501.87 520.00 L 501.47 520.00 C 501.38 508.16 501.49 496.31 501.42 484.47 Z" />
<path fill="#ffffff" opacity="1.00" d=" M 544.78 484.50 C 552.74 484.45 560.71 484.48 568.68 484.47 C 568.66 486.23 568.66 488.00 568.67 489.77 C 563.04 489.82 557.42 489.66 551.80 489.82 C 551.52 490.06 550.97 490.53 550.69 490.77 C 551.59 493.56 551.02 496.52 550.79 499.37 C 555.99 499.48 561.20 499.39 566.41 499.43 C 566.40 501.18 566.39 502.93 566.40 504.68 C 561.33 504.67 556.26 504.72 551.19 504.64 C 551.13 507.93 551.16 511.22 551.11 514.51 C 557.14 514.54 563.17 514.47 569.20 514.55 C 569.19 516.30 569.19 518.07 569.20 519.84 C 561.06 519.93 552.92 519.88 544.78 519.87 C 544.79 508.08 544.80 496.29 544.78 484.50 Z" />
<path fill="#ffffff" opacity="1.00" d=" M 624.44 484.47 C 632.43 484.48 640.42 484.47 648.41 484.47 C 648.40 486.23 648.39 488.00 648.40 489.77 C 642.49 489.76 636.58 489.77 630.68 489.76 C 630.66 492.98 630.67 496.20 630.66 499.43 C 635.86 499.43 641.07 499.36 646.28 499.49 C 646.18 500.11 645.99 501.37 645.89 501.99 C 645.99 502.64 646.19 503.95 646.28 504.60 C 641.08 504.75 635.87 504.66 630.67 504.67 C 630.67 507.96 630.67 511.24 630.66 514.53 C 636.67 514.49 642.69 514.54 648.71 514.49 C 648.69 516.32 648.67 518.16 648.67 520.00 L 624.50 520.00 C 624.40 508.16 624.52 496.31 624.44 484.47 Z" />
<path fill="#ffffff" opacity="1.00" d=" M 688.34 484.46 C 690.55 484.46 692.77 484.47 695.00 484.48 L 695.00 484.90 C 690.38 491.58 685.93 498.38 681.33 505.08 C 681.34 510.02 681.33 514.95 681.34 519.89 C 679.30 519.89 677.26 519.89 675.24 519.90 C 675.25 515.11 675.20 510.33 675.28 505.56 C 670.71 498.49 666.11 491.44 661.36 484.49 C 663.86 484.46 666.37 484.47 668.88 484.51 C 671.92 489.51 675.26 494.31 678.23 499.36 C 681.71 494.47 684.96 489.42 688.34 484.46 Z" />
<path fill="#ffffff" opacity="1.00" d=" M 276.40 484.49 C 278.79 484.47 281.18 484.46 283.57 484.43 C 288.35 496.26 292.88 508.18 297.68 520.00 L 290.88 520.00 C 289.61 517.11 288.57 514.13 287.45 511.19 C 282.40 511.17 277.35 511.12 272.31 511.24 C 271.30 514.17 270.14 517.05 268.98 519.93 L 269.92 520.00 L 262.53 520.00 C 267.19 508.18 271.73 496.31 276.40 484.49 M 279.89 491.06 C 277.96 496.09 276.06 501.12 274.29 506.20 C 278.02 506.17 281.75 506.18 285.49 506.20 C 283.79 501.09 281.65 496.15 279.89 491.06 Z" />
<path fill="#ffffff" opacity="1.00" d=" M 372.48 484.47 C 377.66 484.55 382.84 484.33 388.01 484.57 C 392.51 484.92 397.14 488.23 397.35 493.04 C 397.75 496.40 395.55 499.22 392.98 501.06 C 396.88 502.14 399.95 505.84 399.66 509.99 C 399.81 515.32 394.86 519.48 389.79 519.77 C 384.04 520.07 378.27 519.77 372.51 519.92 C 372.49 508.10 372.54 496.28 372.48 484.47 M 378.53 498.77 C 381.73 499.37 385.05 499.07 388.23 498.44 C 390.16 497.73 390.76 495.77 391.36 494.03 C 389.80 488.43 383.00 489.81 378.62 489.67 C 378.62 492.70 378.65 495.73 378.53 498.77 M 378.59 504.24 C 378.63 507.69 378.63 511.15 378.60 514.62 C 383.08 514.39 387.97 515.46 392.07 513.10 C 394.00 510.65 393.95 506.57 390.84 505.13 C 387.01 503.46 382.64 504.50 378.59 504.24 Z" />
<path fill="#ffffff" opacity="1.00" d=" M 457.20 484.54 C 462.45 484.47 467.69 484.37 472.94 484.53 C 478.45 484.73 484.11 489.12 483.81 495.01 C 484.42 500.02 480.77 504.38 476.24 506.00 C 479.26 510.60 482.17 515.27 485.25 519.84 C 482.76 519.87 480.27 519.89 477.79 519.92 C 475.04 515.48 472.30 511.03 469.59 506.57 C 467.49 506.57 465.40 506.57 463.32 506.57 C 463.34 511.05 463.34 515.52 463.32 520.00 L 457.33 520.00 C 457.20 508.18 457.43 496.36 457.20 484.54 M 463.32 489.65 C 463.34 493.56 463.34 497.48 463.31 501.40 C 466.28 501.35 469.27 501.50 472.24 501.20 C 475.13 500.79 478.01 498.31 477.66 495.17 C 477.57 492.18 474.73 490.47 472.14 489.77 C 469.20 489.69 466.26 489.66 463.32 489.65 Z" />
<path fill="#ffffff" opacity="1.00" d=" M 586.09 484.48 C 588.18 484.47 590.28 484.46 592.38 484.47 C 592.33 494.49 592.40 504.51 592.34 514.53 C 598.03 514.49 603.72 514.54 609.42 514.49 C 609.40 516.32 609.38 518.15 609.38 520.00 L 586.20 520.00 C 586.03 508.16 586.24 496.32 586.09 484.48 Z" />
</g>
</svg>
