<?xml version="1.0" encoding="UTF-8" ?>
<!DOCTYPE svg PUBLIC "-//W3C//DTD SVG 1.1//EN" "http://www.w3.org/Graphics/SVG/1.1/DTD/svg11.dtd">
<svg width="752pt" height="220pt" viewBox="0 0 752 220" version="1.1" xmlns="http://www.w3.org/2000/svg">
<g id="#ffffffff">
<path fill="#ffffff" opacity="1.00" d=" M 58.09 21.31 C 70.68 13.98 85.66 11.69 100.06 12.09 C 147.85 12.17 195.64 11.93 243.43 12.21 C 243.70 13.12 243.98 14.03 244.26 14.93 C 242.54 19.41 243.09 24.37 241.89 28.99 C 241.11 36.01 239.78 42.95 239.14 50.01 C 237.72 52.99 238.35 56.42 237.46 59.54 C 186.71 59.97 135.94 59.48 85.18 59.79 C 81.09 59.69 77.24 60.59 73.63 62.44 C 71.95 63.85 70.38 65.39 69.12 67.19 C 68.06 69.05 67.31 71.07 66.68 73.11 C 65.12 83.37 63.66 93.64 62.26 103.93 C 61.23 108.09 61.41 112.36 61.46 116.60 C 61.28 115.40 61.12 114.20 61.01 113.00 C 59.71 118.62 59.90 124.46 58.36 130.04 C 58.11 136.48 56.21 142.70 56.12 149.15 C 55.65 150.70 55.65 152.33 56.09 153.89 C 56.28 155.05 56.43 156.22 56.56 157.39 C 57.75 158.84 59.03 160.21 60.39 161.52 C 63.29 162.79 66.30 163.90 69.53 163.68 C 120.51 163.78 171.49 163.69 222.47 163.73 C 222.22 168.20 221.64 172.64 221.17 177.09 C 219.82 179.50 220.24 182.33 219.88 184.97 C 218.58 193.37 217.44 201.78 216.24 210.20 C 215.96 210.33 215.40 210.59 215.12 210.73 L 215.87 211.59 C 171.90 211.70 127.93 211.61 83.97 211.64 C 75.44 211.58 66.91 211.84 58.40 211.29 L 58.90 210.30 C 51.48 210.76 44.37 208.10 37.68 205.20 C 36.46 204.46 35.18 203.84 33.91 203.19 C 29.58 200.30 25.49 197.06 21.93 193.23 C 19.08 189.94 16.38 186.45 14.47 182.51 C 7.88 170.86 8.11 156.87 9.94 144.00 C 10.15 140.63 10.65 137.30 11.54 134.05 C 12.88 120.62 15.47 107.35 16.85 93.93 C 18.10 89.36 18.14 84.57 18.81 79.90 C 20.12 76.36 19.71 72.46 20.92 68.88 C 22.07 65.26 22.53 61.32 24.36 57.96 C 25.62 54.79 27.35 51.85 28.81 48.77 C 32.15 43.84 35.69 39.08 39.89 34.83 C 42.16 32.76 44.43 30.69 46.79 28.71 C 50.43 26.07 53.98 23.21 58.09 21.31 Z" />
<path fill="#ffffff" opacity="1.00" d=" M 275.51 12.15 C 337.36 12.01 399.21 12.14 461.06 12.08 C 471.63 11.84 482.63 14.27 491.23 20.70 C 505.64 32.40 512.39 51.76 511.27 69.98 C 511.68 76.12 510.05 82.05 509.22 88.07 C 508.12 90.32 507.96 92.86 507.15 95.21 C 501.55 112.02 490.67 127.04 476.23 137.34 C 475.21 137.91 474.19 138.47 473.26 139.17 C 468.56 142.03 463.22 143.58 458.14 145.36 C 454.17 146.28 450.05 146.07 446.01 146.38 C 398.18 146.49 350.35 146.25 302.52 146.50 C 301.82 150.05 301.86 153.69 301.13 157.23 C 299.82 160.35 300.33 163.84 299.68 167.11 C 298.89 171.09 298.42 175.11 298.13 179.15 C 296.05 189.35 295.28 199.84 293.38 210.10 L 292.47 210.90 L 292.82 211.68 C 277.75 211.58 262.68 211.66 247.62 211.64 C 246.43 205.70 248.83 199.90 249.09 194.00 C 250.24 187.99 250.51 181.86 251.86 175.88 C 251.91 170.45 253.75 165.29 253.98 159.89 C 256.78 139.77 259.93 119.70 262.48 99.57 C 264.67 99.31 266.87 99.23 269.07 99.28 C 329.70 99.29 390.32 99.36 450.95 99.41 C 453.30 99.63 455.48 98.67 457.37 97.35 C 460.27 94.21 461.61 90.14 462.76 86.11 C 464.15 78.35 466.23 70.13 463.15 62.48 C 462.43 61.81 461.75 61.11 461.10 60.40 C 457.49 59.34 453.70 59.80 450.01 59.70 C 389.54 59.66 329.08 59.80 268.61 59.63 C 268.48 57.11 268.50 54.58 268.94 52.10 C 270.51 48.25 269.81 43.94 270.88 39.97 C 272.00 36.38 271.73 32.57 272.48 28.92 C 273.73 23.36 273.48 17.54 275.51 12.15 Z" />
<path fill="#ffffff" opacity="1.00" d=" M 591.20 13.19 C 594.56 11.77 598.39 12.39 601.96 12.09 C 651.71 12.13 701.47 12.01 751.22 12.15 C 751.09 22.58 748.83 32.78 747.64 43.09 C 746.21 48.58 746.96 54.49 744.57 59.74 C 700.37 59.65 656.17 59.73 611.97 59.70 C 603.67 59.81 595.35 59.36 587.08 60.21 C 582.08 61.47 577.52 64.80 575.48 69.65 C 574.08 74.01 573.18 78.53 573.10 83.13 C 571.51 88.17 572.11 93.62 570.51 98.66 C 568.77 113.09 566.45 127.46 564.58 141.89 C 563.72 147.60 562.10 154.22 565.75 159.31 C 568.60 162.33 572.84 163.90 576.98 163.68 C 628.07 163.79 679.16 163.67 730.24 163.74 C 729.19 176.95 726.13 189.94 725.20 203.19 C 724.16 205.89 724.18 208.84 723.34 211.60 C 692.89 211.69 662.44 211.61 632.00 211.64 C 610.41 211.52 588.81 211.89 567.23 211.42 L 567.88 210.42 C 559.91 210.80 552.13 208.40 544.99 205.06 C 543.95 204.40 542.84 203.85 541.76 203.29 C 536.53 199.67 531.24 195.81 527.53 190.56 C 520.04 181.88 516.49 170.36 516.38 159.01 C 516.50 145.85 519.63 133.01 520.79 119.95 C 522.39 115.03 521.70 109.75 523.28 104.82 C 524.83 92.09 526.66 79.39 528.84 66.74 C 534.33 47.44 547.89 30.48 565.83 21.38 C 566.10 21.13 566.65 20.63 566.92 20.38 C 569.60 19.40 572.13 18.05 574.73 16.88 C 580.16 15.39 585.51 13.36 591.20 13.19 Z" />
</g>
</svg>
