<svg width="337pt" height="169pt" viewBox="0 0 337 169" xmlns="http://www.w3.org/2000/svg"><g fill="#fff"><path d="M117.55 1.61c27.02-.05 54.04-.05 81.05 0-.09 7.09.01 14.19-.06 21.29-19.2.05-38.4 0-57.6.02-.07 35.24.08 70.49-.07 105.73-7.79.01-15.57.01-23.35-.01.1-42.34.04-84.69.03-127.03zM4.17 1.58H37c19.16.14 38.32 7.97 51.58 21.91 11 11.2 17.57 26.83 17.11 42.59-.04 11.76-4.05 23.34-10.8 32.92-10.76 15.44-28.24 25.59-46.7 28.56-14.51 2.02-29.22.75-43.81 1.07-.47-7.13-.13-14.31-.17-21.46 10.26-.02 20.51.01 30.76-.01 12.2-.07 24.66-4.06 33.65-12.53 8.15-7.14 13.13-17.68 13.57-28.5.22-11.09-4.45-22.16-12.56-29.73-9.11-8.99-21.98-13.48-34.67-13.48-10.22.11-20.45-.17-30.67.17-.25-7.16-.07-14.34-.12-21.51zm236.67 3.69c12.1-4.12 25.19-4.51 37.74-2.53-1.17 7.11-2.72 14.14-3.99 21.23-9.88-1.73-20.27-1.06-29.55 2.93-12.12 4.88-22.34 15.18-25.67 27.98-3 10-1.23 21.12 4.04 30.04 5.66 9.55 15.13 16.63 25.7 19.86 15.28 4.89 32.96 2.06 45.64-7.89 9.94-7.72 16.49-20.11 15.89-32.85.12-7.23-2.55-14.11-6.07-20.31-14.13 12.88-28.34 25.68-42.49 38.53-.8 1.14-1.81-.32-2.47-.78-4.88-4.62-9.95-9.02-14.88-13.57 13.51-12.55 27.29-24.83 40.93-37.24 6.75-5.92 13.12-12.29 20.08-17.97 4.68 4.56 9.88 8.58 14.09 13.61 7.11 8.38 12.22 18.64 13.79 29.57.16 6.01.11 12.03.04 18.04-2.05 14.86-10.47 28.48-21.94 37.99-22.82 19.09-57.26 21.98-83.24 7.73-16.71-8.97-29.91-25.19-33.24-44.08-2.34-12.9-.31-26.62 6.06-38.11 8.18-15.46 22.98-26.9 39.54-32.18z"/><path d="M162.39 47.18c1.02.23 1.77.98 2.58 1.6.7-.65 2.09-1.95 2.79-2.59 6.79 6.39 13.76 12.6 20.76 18.75-6.93 6.37-13.86 12.73-20.91 18.95-6.82-6.37-13.77-12.61-20.71-18.86 5.63-4.78 10.84-10.04 16.53-14.75l1.04-.29c-.68-.95-1.4-1.86-2.08-2.81zM5.77 143.35c3.65.29 8.2-1.2 10.99 1.88 2.5 2.65 1.36 6.55 1.62 9.81-.14 3.44.77 7.5-1.78 10.3-3.01 2.51-7.2 1.34-10.77 1.51.03-7.84.1-15.67-.06-23.5m7.71 3.69c-.86.01-2.57.05-3.43.06.01 5.49.19 10.98-.18 16.46 1.67-.08 4.57-.04 4.28-2.5-.14-4.66.62-9.47-.67-14.02zm7.7-3.71c1.41-.02 2.82-.02 4.23-.01 1.04 2.96 1.98 5.96 3.04 8.91.85-2.98 1.65-5.98 2.8-8.87 1.38-.04 2.77-.09 4.15-.12-1.32 4.73-3.53 9.16-4.94 13.87-.28 3.21-.05 6.45-.02 9.68-1.34.19-2.69.36-4.03.52-.33-3.46 0-6.94-.31-10.4-1.41-4.6-3.4-9.01-4.92-13.58zm17.53.02c1.41.01 2.81.03 4.22.09 1.58 4.54 3.52 8.96 5.2 13.47 0-4.56-.08-9.12.02-13.67 1.02.04 3.06.1 4.07.14.03 7.77-.11 15.54.1 23.3-1.28.09-2.9 1.13-3.98 0-2.11-4.1-3.22-8.64-5.45-12.68-.01 4.21.29 8.41.32 12.62-1.47.52-2.99.5-4.48.11.08-7.79.06-15.59-.02-23.38zm22.73-.17c1.19.1 2.39.21 3.59.32 1.44 8.04 4.06 15.81 5.52 23.85-1.34-.19-2.68-.38-4.02-.59-.41-1.63-.82-3.25-1.23-4.87l-4.39.03c-.49 1.75-.94 3.51-1.37 5.27-1.34-.14-2.67-.31-4.01-.49 2.11-7.81 3.87-15.7 5.91-23.52m1.56 8.55c-.51 2.21-1.03 4.41-1.6 6.61 1.11-.02 2.23-.03 3.35-.04-.51-2.21-.94-4.44-1.75-6.57zm11.18-8.34c1.28-.04 2.56-.08 3.85-.11 1.52 3.94 2.96 7.91 4.54 11.83 1.87-3.85 3.06-7.97 4.81-11.86 1.31.04 2.63.1 3.95.16-.1 7.78-.06 15.57-.02 23.35-1.02.13-3.04.38-4.06.51-.29-4.44-.03-8.89-.15-13.34-1.38 2.85-2.04 5.98-3.46 8.8-.46.11-1.38.31-1.84.41-1.42-3-2.22-6.25-3.43-9.34-.11 4.44.02 8.88-.08 13.32-1.36.01-2.72.03-4.07.04-.12-7.92-.08-15.85-.04-23.77zm22.26-.07c1.39-.01 2.79-.01 4.19.01 0 7.94.14 15.9-.07 23.84-1.01-.01-3.02-.02-4.02-.03-.22-7.94-.06-15.88-.1-23.82zm9.31 4.68c.56-5.11 8.07-6.58 11.03-2.75 1.31 1.36 1.23 3.4 1.64 5.12-1.42.04-2.84.06-4.26.06-.13-1.63-.73-3.07-2.09-4.03-.53.37-1.61 1.13-2.15 1.51-.2 4.76-.17 9.55-.05 14.32.67 1.68 2.28 1.21 3.66.94.19-.83.57-2.49.76-3.33 1.35.12 2.7.25 4.06.39-.34 2.09-.55 4.48-2.54 5.73-3.37 3.01-9.91.85-10.11-3.9-.07-4.68-.16-9.38.05-14.06zm41.59-4.66c1.39-.02 2.79-.02 4.19-.01 0 7.84-.02 15.69.02 23.54-1.4.02-2.8.02-4.19 0-.11-7.84-.01-15.69-.02-23.53zm18.51.12c1.31-.09 2.63-.15 3.95-.18.06 7.87.25 15.76-.08 23.63-1.3.44-3.3.69-3.94-.89-1.9-3.99-3.23-8.23-5.01-12.28-.13 4.48.13 8.97-.17 13.44-.98-.01-2.93-.03-3.91-.05-.19-7.94-.1-15.88-.08-23.83.94-.01 2.83-.04 3.77-.05 2.12 4.42 3.53 9.13 5.67 13.54-.1-4.44-.19-8.89-.2-13.33zm7.35-.03c4.19-.2 8.39-.13 12.58-.12.03 1.17.05 2.34.06 3.51l-4.22.06c-.26 6.74.46 13.57-.36 20.26-1.29.01-2.57-.09-3.84-.3.03-6.66.03-13.32 0-19.98h-4.17c-.03-1.15-.05-2.29-.05-3.43zm15.94-.08c3.77-.03 7.56-.17 11.34.08.12 1.12.2 2.24.23 3.37-2.44.1-4.89.08-7.34.06-.01 2.12-.03 4.25-.06 6.37 2.11 0 4.22-.01 6.32.01.04 1.18.07 2.36.1 3.54-2.15.07-4.3.08-6.45.08.03 2.14.06 4.29.1 6.44 2.42-.03 4.84-.04 7.27.08-.05 1.26-.1 2.52-.17 3.78-3.73-.04-7.46-.02-11.19.02-.34-7.94-.07-15.89-.15-23.83zm15.34 4.75c.41-5.23 8.37-6.75 11.19-2.61 1.26 1.37 1.13 3.3 1.18 5.03-1.3-.05-2.59-.11-3.88-.18.17-2.6-1.87-4.46-4.22-2.83.02 5.26-.13 10.53.07 15.79 2.43.84 4.46-.7 4.12-3.24 1.35.01 2.71.04 4.07.1.14 2.79-1.25 5.86-4.09 6.71-3.2 1.45-7.43-.54-8.37-3.88-.29-4.95-.15-9.93-.07-14.89zm17.07-4.75c1.38-.03 2.76-.03 4.14-.02.09 3.29.06 6.58.03 9.87l4.08.06c.02-3.29-.03-6.58.01-9.87 1.32-.06 2.64-.1 3.97-.12-.08 8.01.53 16.11-.3 24.06-1.24-.18-2.48-.4-3.71-.65.02-3.29-.06-6.59.16-9.87-1.4-.03-2.81-.04-4.21-.06.04 3.48.14 6.97-.12 10.45-1-.03-2.99-.08-3.98-.11-.07-7.91.02-15.83-.07-23.74zm26.96 2.34c2.35-2.59 6.38-3.5 9.41-1.55 2.35 1.14 2.78 3.99 2.73 6.34-.94-.03-2.82-.08-3.76-.1a25.74 25.74 0 0 0-.96-3.13c-1.4-.74-2.77-.12-4.04.53.08 4.74-.16 9.49.09 14.23.63 1.77 2.55 1.62 4 1.08.88-1.83.45-3.93.6-5.89-2.56.34-3.52-.99-3.22-3.37 2.38-.13 4.76-.12 7.15-.11-.4 3.92 1.58 9.04-1.91 11.96-1.47 1.44-3.67 1.48-5.57 1.84-2.26-1.18-5.25-2.59-5.11-5.62.12-5.4-.51-10.88.59-16.21zm17.08-2.3c3.55.22 7.78-1.15 10.76 1.36 3.25 3.13 2.82 9.36-1.03 11.86 1.57 3.11 2.34 6.55 3.97 9.64-.18.24-.54.71-.71.95-1.04.01-2.07.04-3.1.08-1.84-3.1-2.49-6.69-3.86-9.99-.47-.18-1.4-.54-1.86-.72-.07 3.53.04 7.06-.12 10.6-.98-.02-2.94-.05-3.92-.07-.18-7.9.01-15.81-.13-23.71m4.14 3.31c-.02 2.37-.04 4.74 0 7.11 1.5-.14 2.99-.35 4.47-.61.04-1.92.76-4.15-.52-5.85-1.3-.31-2.62-.53-3.95-.65zm16.7-3.09c3.45-1.36 8.65.09 9.23 4.24.11 5.04.29 10.11-.11 15.13-1.34 4.84-8.64 5.82-11.47 1.79-1.16-1.32-.92-3.15-.98-4.76.05-4.04-.08-8.08.07-12.12.05-1.95 1.75-3.32 3.26-4.28m.49 4.29c.03 4.81.05 9.62-.01 14.43 1.47 1.19 3.95 1.9 4.71-.44.14-4.5.15-9.01-.04-13.5-.54-2.35-3.27-1.45-4.66-.49zm13.77-4.52c1.33-.05 2.67-.1 4.02-.13.31 6.26-.1 12.54.19 18.8.54 1.83 3.69 2.07 3.92-.06.14-6.19 0-12.39.02-18.57 1.47-.05 2.95-.06 4.42-.02-.42 6.82.42 13.72-.54 20.5.68.57 1.35 1.15 1.98 1.79-.98-.14-1.82-.62-2.67-1.04-2.75 4.22-9.71 3.07-11.04-1.67-.41-6.51.12-13.07-.3-19.6zm17.68-.01c3.89.04 8.9-1.15 11.51 2.62 1.4 3.52 1.72 8.72-1.89 11.06-1.62 1.19-3.76.74-5.63.92.04 2.98.05 5.97-.02 8.96-1.34-.02-2.67-.05-4-.08.08-7.83.09-15.66.03-23.48m4.03 3.31c-.01 2.63-.01 5.26.01 7.89l3.58-.56c1.07-1.62 1.1-3.81.56-5.61-.42-1.96-2.74-1.29-4.15-1.72zm-190.78-3.32c3.91-.03 7.83-.17 11.74.1-.14.83-.43 2.48-.57 3.31-2.32.2-4.64.09-6.95.1-.02 2.19-.02 4.37-.05 6.56 2.15.01 4.3.02 6.45.09.04 1.1.08 2.19.11 3.29-2.19.11-4.38.2-6.57.35.05 3.34.09 6.68-.06 10.01-1.02-.01-3.05-.04-4.07-.05-.12-7.92 0-15.84-.03-23.76z"/></g></svg>