<svg width="631pt" height="208pt" viewBox="0 0 631 208" xmlns="http://www.w3.org/2000/svg"><path opacity=".95" d="M132.55 1.42c14.36 19.34 26.2 40.4 39.68 60.35 9.63 15.35 19.87 30.33 29.13 45.92-11.6 7.63-22.63 16.25-34.87 22.86-13.98-26.61-28.53-52.93-42.59-79.49-2.96-5.87-7.03-11.28-9.08-17.56-1.88-4.6 2.31-7.89 4.07-11.56 4.4-6.95 9.03-13.73 13.66-20.52zM21.93 171.95C46.9 132.96 72.39 94.31 97.3 55.28c3.79 5.23 6.83 10.95 9.79 16.68 12.57 24.16 25.69 48.02 38.18 72.22-24.83 18.1-51.13 34.12-76.2 51.91-5.76 3.27-10.83 9.18-18.07 8.67-16.42.67-32.88.49-49.29-.21 5.83-11.4 13.35-21.82 20.22-32.6zm271.31-63.63c19.41.48 40.19-3.62 58.45 4.99 5.87 3.16 10.79 8.02 14.34 13.65 5.06 7.89 4.55 17.78 3.59 26.71-3.31 12.63-14.33 22.86-26.92 26.06-16.14 4.01-32.95 1.99-49.38 1.95-.53-24.45-.48-48.91-.08-73.36m15.99 6.86c-.42 19.9-.41 39.82.1 59.72 11.05.01 23.15.71 32.71-5.9 14.82-10.44 16.01-35.21 1.34-46.42-9.32-8.32-22.5-8.03-34.15-7.4zm76.01-6.81c4.98-.17 10-.31 15-.42.71 11 .82 22.04.85 33.06 12.53.01 25.06.05 37.58-.24.31-10.92.35-21.85.37-32.77h13.95c.02 24.67.02 49.33 0 74-4.67-.01-9.31-.01-13.96 0-.05-11.56.08-23.12-.25-34.68-12.57-.36-25.14-.35-37.71-.34-.15 11.69.25 23.41-.7 35.08-5.03-.09-10.03-.1-15.04-.29-.55-24.46-.48-48.94-.09-73.4zm78.21-.14c3.88-.06 11.62-.2 15.5-.27 9.28 18.4 18.7 36.71 28.1 55.04l2.69-.16c8.54-18.4 16.85-36.95 26.16-54.97 1.75.16 5.26.5 7.01.66-5.22 12.35-11.41 24.25-17.12 36.36-6.6 13.47-12.56 27.25-19.57 40.52-5.37-2.7-7.65-8.4-10.31-13.36-10.63-21.37-21.8-42.46-32.46-63.82zm95.86 11.11c11.3-10.27 27.51-12.62 42.18-10.94 11.21 1.29 20.52 8.79 27.14 17.54-2.16 1.39-4.31 2.78-6.47 4.15-4.69-5.38-8.91-11.48-15.46-14.77-12.81-5.8-28.61-.33-36.75 10.65-8.85 12.24-7.88 30.59 2.4 41.7 9.14 8.76 23.89 12.34 35.37 6.07 5.5-3.34 9.6-8.51 14.51-12.6 2.28.4 4.28 1.62 6.33 2.65-6.02 7.6-13.21 14.98-22.56 18.22-12.71 3.62-26.95 3.08-38.73-3.25-13.93-6.96-22.25-23.49-19.45-38.83 1-8 5.93-15 11.49-20.59zM178.52 152.4c12.09-8.26 23.9-16.91 36.3-24.7 14.96 22.62 29.28 45.66 44.13 68.36 1.7 2.66 3.23 5.43 4.43 8.36-19.13.98-38.29.53-57.43.57-9.58-17.3-18.73-34.84-27.43-52.59zm-35.24 23.86c4.76-2.87 8.92-7.23 14.53-8.39 2.95 3.38 4.73 7.56 6.96 11.4 4.49 8.42 9.82 16.39 13.61 25.16-25.42.88-50.89.94-76.31.13 12.56-10.97 27.6-18.74 41.21-28.3z" fill="#fff"/></svg>