<?xml version="1.0" encoding="UTF-8" ?>
<!DOCTYPE svg PUBLIC "-//W3C//DTD SVG 1.1//EN" "http://www.w3.org/Graphics/SVG/1.1/DTD/svg11.dtd">
<svg width="167pt" height="165pt" viewBox="0 0 167 165" version="1.1" xmlns="http://www.w3.org/2000/svg">
<g id="#f8f8f8f8">
<path fill="#f8f8f8" opacity="0.97" d=" M 20.57 0.57 C 23.96 -0.58 27.08 1.47 30.05 2.80 C 35.61 6.02 41.16 9.37 46.00 13.62 C 52.98 10.72 60.54 9.82 68.04 9.76 C 73.74 10.45 79.89 10.46 84.93 13.57 C 88.82 14.09 90.94 9.76 94.18 8.26 C 99.58 4.98 105.13 1.64 111.40 0.36 C 115.12 2.92 112.95 7.78 113.15 11.49 L 112.58 11.41 C 111.20 22.81 107.50 33.78 104.55 44.83 C 104.56 46.22 104.65 47.60 104.81 48.99 C 105.82 54.09 106.76 59.25 108.77 64.09 C 109.95 66.62 111.19 69.11 112.55 71.55 C 115.52 71.44 118.50 71.50 121.47 71.60 L 121.52 72.38 C 124.19 72.35 126.85 72.52 129.52 72.60 L 129.46 73.44 C 130.66 73.49 131.87 73.56 133.08 73.64 C 137.17 75.24 142.00 76.45 144.40 80.50 C 145.52 84.09 141.54 86.31 139.33 88.36 C 138.49 88.77 137.66 89.20 136.85 89.65 C 135.96 90.46 134.88 90.85 133.60 90.81 C 133.53 91.31 133.38 92.30 133.30 92.80 C 137.87 97.03 141.88 101.97 145.06 107.34 C 146.66 109.93 147.15 113.13 146.56 116.10 C 143.98 119.98 138.46 121.62 134.19 119.69 C 132.15 118.96 130.49 117.51 128.75 116.27 C 125.65 113.69 122.78 110.86 119.99 107.95 C 117.00 104.78 113.28 102.43 110.18 99.37 C 109.48 99.65 108.78 99.94 108.09 100.23 C 100.65 102.16 93.18 104.36 85.47 104.82 C 85.44 105.23 85.38 106.07 85.35 106.48 C 89.60 109.83 93.66 113.45 97.22 117.54 C 98.85 119.57 100.71 122.26 99.50 124.97 C 95.94 129.48 89.43 130.62 84.14 128.91 C 82.03 128.49 80.00 127.76 78.05 126.86 C 68.25 122.09 59.03 115.41 52.54 106.57 C 48.39 106.42 44.03 107.15 40.06 105.75 C 37.73 105.48 35.29 105.72 33.11 104.73 C 32.06 104.56 31.00 104.40 29.94 104.26 C 28.67 103.77 27.37 103.34 26.09 102.89 C 23.79 101.61 20.25 101.32 19.27 98.53 L 18.64 98.47 C 18.61 97.14 18.58 95.81 18.54 94.48 L 19.67 94.48 C 19.57 94.00 19.39 93.05 19.30 92.57 L 20.18 92.49 C 20.84 90.96 21.96 89.78 23.61 89.33 L 23.63 88.39 C 24.10 88.45 25.03 88.57 25.50 88.63 L 25.46 87.68 C 27.30 86.78 29.15 85.93 31.08 85.23 C 32.59 84.64 34.08 83.98 35.57 83.32 C 33.35 79.18 32.08 74.58 31.11 70.00 C 29.29 62.49 28.97 54.73 29.13 47.03 C 28.20 41.59 26.08 36.44 25.12 31.01 C 23.78 26.41 22.80 21.73 21.86 17.05 C 21.61 15.34 21.57 13.55 20.83 11.96 C 20.29 8.19 20.21 4.36 20.57 0.57 M 54.65 14.65 L 54.43 15.46 L 53.27 15.54 L 53.56 16.56 L 52.34 16.38 L 52.62 17.62 L 51.24 17.46 C 51.51 19.41 52.18 21.26 52.88 23.09 C 51.01 23.35 50.03 24.94 48.93 26.25 C 50.69 26.40 52.58 26.40 54.05 27.53 C 51.65 27.38 49.09 26.64 46.86 27.97 C 45.49 30.02 47.57 33.04 49.92 32.71 C 51.80 32.82 53.01 31.18 54.12 29.92 C 54.59 31.67 55.73 33.08 56.70 34.56 C 59.05 34.73 61.39 34.71 63.74 34.62 L 63.28 33.33 L 64.60 33.56 C 64.54 31.71 64.47 29.85 64.34 28.00 C 63.52 27.35 62.73 26.68 61.94 25.99 C 58.62 25.47 61.89 21.63 60.38 19.68 C 61.26 18.80 62.15 17.92 63.03 17.03 C 61.85 16.07 60.59 15.10 60.20 13.55 C 59.38 13.55 57.72 13.55 56.90 13.55 C 56.33 13.83 55.21 14.37 54.65 14.65 M 71.52 14.53 C 71.50 15.29 71.45 16.81 71.43 17.57 C 70.64 17.51 69.06 17.41 68.27 17.36 L 68.72 18.59 L 67.64 18.47 C 67.63 19.41 67.61 21.28 67.60 22.22 C 68.30 23.51 69.04 24.77 69.82 26.01 C 70.45 25.36 71.08 24.71 71.71 24.06 C 71.44 22.53 71.20 20.98 71.00 19.43 C 72.80 19.67 74.74 19.44 76.34 20.44 C 74.74 20.54 73.15 20.60 71.55 20.60 C 71.72 21.34 72.07 22.83 72.25 23.57 C 75.03 24.06 78.05 23.98 80.54 22.48 C 82.34 19.89 80.95 17.47 79.05 15.49 C 78.64 15.54 77.81 15.64 77.40 15.69 L 77.61 14.37 C 75.58 14.38 73.55 14.44 71.52 14.53 M 61.51 25.63 C 62.27 25.30 63.78 24.64 64.53 24.32 C 64.76 21.76 64.79 19.19 64.51 16.63 C 60.88 18.23 61.25 22.35 61.51 25.63 M 45.39 19.45 L 45.47 20.72 C 44.99 20.62 44.01 20.40 43.53 20.30 C 43.45 21.73 43.38 23.17 43.30 24.60 C 45.21 24.21 46.95 24.84 48.58 25.77 C 49.28 24.45 50.30 23.48 51.64 22.86 C 51.54 21.58 51.18 20.39 50.55 19.28 C 48.83 19.37 47.11 19.42 45.39 19.45 M 81.11 23.14 C 82.69 23.71 83.74 24.83 84.25 26.50 C 84.91 25.99 86.24 24.98 86.90 24.48 C 87.61 24.55 89.02 24.70 89.72 24.78 C 89.67 23.98 89.56 22.39 89.50 21.60 C 86.88 20.13 81.15 18.61 81.11 23.14 M 38.40 22.56 L 38.61 23.66 L 37.34 23.30 L 37.54 24.54 L 36.54 24.31 L 36.50 25.43 L 35.53 25.70 C 35.33 28.32 35.32 30.95 35.52 33.58 L 36.72 33.44 C 36.65 33.93 36.51 34.92 36.44 35.41 C 37.26 35.48 38.90 35.63 39.72 35.70 C 39.40 33.71 38.92 31.74 38.60 29.75 C 38.13 27.31 40.12 24.75 42.53 24.43 L 42.55 22.22 C 41.52 22.31 39.44 22.48 38.40 22.56 M 90.04 22.51 C 90.41 24.42 91.58 26.06 93.44 26.71 C 94.08 28.04 94.54 29.46 94.42 30.96 C 93.36 32.40 93.51 34.19 93.41 35.87 C 94.22 35.76 95.83 35.55 96.64 35.44 C 96.58 34.99 96.46 34.09 96.40 33.64 L 97.58 33.51 C 97.63 31.15 97.60 28.79 97.51 26.43 L 96.29 26.53 C 96.37 26.09 96.53 25.21 96.61 24.77 C 96.01 24.54 94.79 24.08 94.18 23.84 C 93.94 23.54 93.46 22.93 93.22 22.63 C 92.43 22.60 90.83 22.54 90.04 22.51 M 76.24 24.42 L 76.45 25.32 C 74.88 25.36 73.31 25.39 71.74 25.41 C 72.02 27.13 71.03 27.62 69.44 27.34 L 69.66 28.52 L 68.51 28.47 C 68.49 30.43 68.49 32.39 68.50 34.35 C 70.68 35.26 72.95 35.87 75.33 35.66 C 76.32 34.65 77.34 33.66 78.38 32.69 C 78.44 32.02 78.56 30.67 78.62 30.00 C 79.01 31.16 80.17 31.60 81.11 32.20 C 81.17 32.53 81.29 33.19 81.35 33.52 C 83.62 33.79 85.56 32.99 86.83 31.09 C 86.26 29.97 85.65 28.88 84.99 27.82 C 82.99 26.78 80.83 28.87 78.83 27.87 C 80.90 27.50 83.40 27.54 82.94 24.67 C 82.20 24.36 80.71 23.76 79.97 23.46 C 78.87 24.29 77.63 24.61 76.24 24.42 M 39.37 27.63 C 39.40 28.64 39.46 30.65 39.50 31.65 C 41.41 31.74 43.33 31.75 45.24 31.66 C 45.89 29.92 45.61 27.29 48.00 26.79 C 45.47 24.53 41.18 24.41 39.37 27.63 M 84.87 26.67 C 86.20 28.34 87.05 30.30 87.97 32.20 C 89.41 32.44 90.86 32.61 92.32 32.71 C 95.35 30.26 92.74 26.85 90.32 25.24 C 88.42 25.37 86.59 25.85 84.87 26.67 M 39.56 32.55 C 40.21 34.14 40.07 36.78 42.46 36.66 L 42.58 37.61 C 45.33 37.67 48.61 34.75 47.34 31.88 C 44.77 31.76 42.25 33.15 39.56 32.55 M 48.79 33.81 C 47.29 35.41 46.01 37.21 46.31 39.54 L 47.63 39.58 C 47.58 40.00 47.49 40.84 47.44 41.26 C 49.61 41.89 51.91 42.26 53.90 43.37 C 57.51 43.29 62.01 44.90 64.94 42.14 C 64.38 41.58 63.82 41.00 63.28 40.41 C 63.64 40.47 64.36 40.58 64.72 40.64 L 64.69 37.55 C 63.01 38.17 59.65 39.40 57.97 40.02 C 59.10 40.50 60.24 40.98 61.38 41.45 C 60.03 41.49 58.69 41.54 57.34 41.59 C 57.67 40.84 57.67 40.03 57.63 39.23 C 55.97 38.72 54.25 38.27 52.83 37.22 C 56.56 38.01 63.22 40.94 64.23 35.31 C 61.72 35.32 59.18 35.72 56.69 35.30 C 55.75 34.39 55.21 33.13 54.15 32.35 C 52.28 32.52 50.63 33.53 48.79 33.81 M 79.10 33.03 C 77.06 35.02 74.89 37.20 71.75 36.48 C 70.90 36.14 69.20 35.47 68.35 35.13 C 67.75 38.09 70.10 38.29 71.90 39.51 C 74.60 40.01 77.01 38.90 79.10 37.30 C 79.22 37.51 79.45 37.95 79.57 38.17 C 78.12 38.84 76.67 39.52 75.29 40.33 C 74.20 40.30 73.10 40.25 72.01 40.19 C 70.66 39.39 69.18 39.06 67.60 39.20 C 67.57 40.05 67.53 41.75 67.51 42.61 L 68.42 42.30 L 68.51 43.51 L 69.77 43.53 L 69.34 44.54 C 72.11 44.48 74.88 44.47 77.65 44.55 L 77.40 43.58 C 78.75 43.56 80.11 43.54 81.47 43.53 C 81.53 43.33 81.64 42.93 81.70 42.73 C 83.03 42.31 84.35 41.87 85.66 41.41 L 85.27 40.26 L 86.61 40.58 C 87.00 38.20 85.78 36.32 84.24 34.68 C 82.48 34.29 80.84 33.51 79.10 33.03 M 85.32 35.52 C 86.15 36.20 86.97 36.88 87.79 37.58 C 88.75 37.56 90.66 37.52 91.62 37.50 L 91.37 36.30 L 92.56 36.64 C 92.68 35.82 92.92 34.19 93.04 33.37 C 90.92 33.56 88.85 33.20 86.87 32.46 C 84.98 32.29 85.40 34.36 85.32 35.52 Z" />
<path fill="#f8f8f8" opacity="0.97" d=" M 77.25 142.87 C 78.07 142.78 78.89 142.69 79.71 142.61 C 79.73 145.66 79.71 148.72 79.70 151.78 C 83.39 151.76 87.07 151.78 90.76 151.75 C 90.70 148.75 90.68 145.75 90.67 142.75 C 91.30 142.76 92.54 142.77 93.16 142.77 C 93.15 149.96 93.14 157.14 93.17 164.33 C 92.54 164.33 91.29 164.34 90.67 164.35 C 90.69 160.92 90.69 157.50 90.73 154.09 C 87.06 154.07 83.39 154.09 79.72 154.04 C 79.70 157.51 79.71 160.99 79.77 164.46 C 79.16 164.39 77.93 164.25 77.31 164.17 C 77.25 157.07 77.41 149.97 77.25 142.87 Z" />
<path fill="#f8f8f8" opacity="0.97" d=" M 0.00 142.78 C 4.51 142.87 9.37 142.23 13.54 144.37 C 20.33 148.15 20.30 159.70 13.26 163.20 C 9.08 164.96 4.41 164.18 0.00 164.31 L 0.00 142.78 M 2.16 145.09 C 2.21 150.76 2.25 156.43 2.14 162.11 C 5.42 162.05 8.90 162.43 12.00 161.10 C 17.41 158.43 17.44 149.76 12.47 146.63 C 9.39 144.74 5.60 145.21 2.16 145.09 Z" />
<path fill="#f8f8f8" opacity="0.97" d=" M 142.07 142.48 C 142.65 142.36 143.82 142.14 144.40 142.02 C 144.41 146.24 144.48 150.46 144.23 154.68 C 147.86 152.47 150.35 147.72 155.10 148.15 C 152.35 151.08 149.08 153.46 145.97 155.98 C 149.31 158.74 152.71 161.46 155.73 164.59 C 150.64 164.83 148.10 159.68 144.22 157.26 C 144.35 159.63 144.42 162.00 144.47 164.37 C 143.86 164.35 142.64 164.30 142.03 164.27 C 142.24 157.01 142.10 149.74 142.07 142.48 Z" />
<path fill="#f8f8f8" opacity="0.97" d=" M 29.14 148.15 C 35.02 146.33 41.38 152.11 39.73 158.14 C 38.43 164.58 29.28 167.14 24.96 162.09 C 20.33 157.77 23.10 149.37 29.14 148.15 Z" />
<path fill="#f8f8f8" opacity="0.97" d=" M 43.78 148.39 C 45.14 147.98 46.03 148.58 46.51 149.88 C 48.07 148.31 50.05 147.72 52.21 148.04 C 52.33 150.23 50.47 150.34 48.79 150.28 C 44.59 153.68 46.68 159.69 46.22 164.33 C 45.62 164.33 44.42 164.33 43.82 164.34 C 43.84 159.02 43.89 153.70 43.78 148.39 Z" />
<path fill="#f8f8f8" opacity="0.97" d=" M 54.20 155.91 C 54.30 150.72 60.08 146.63 65.00 148.28 C 66.65 148.70 67.88 149.94 69.18 150.97 L 69.00 148.52 C 69.59 148.51 70.77 148.47 71.36 148.46 C 71.43 153.80 71.31 159.14 71.39 164.49 C 69.16 164.79 68.62 163.73 69.32 161.84 C 67.67 163.04 65.99 164.35 63.91 164.70 C 58.92 165.56 53.76 161.01 54.20 155.91 M 60.46 150.60 C 56.19 152.14 55.13 158.43 58.85 161.14 C 62.33 164.55 68.91 161.86 69.18 157.07 C 69.86 152.52 64.63 148.64 60.46 150.60 Z" />
<path fill="#f8f8f8" opacity="0.97" d=" M 99.69 151.75 C 102.61 147.10 109.84 146.66 113.26 151.02 L 113.13 148.77 C 113.72 148.64 114.91 148.38 115.50 148.25 C 115.43 153.63 115.45 159.01 115.48 164.40 L 113.04 164.29 C 113.13 163.66 113.32 162.40 113.41 161.78 C 110.91 163.97 107.40 165.74 104.08 164.30 C 99.04 162.77 96.52 156.07 99.69 151.75 M 104.48 150.64 C 100.30 152.25 99.28 158.33 102.88 161.10 C 106.38 164.55 113.06 161.88 113.31 157.01 C 113.96 152.43 108.62 148.62 104.48 150.64 Z" />
<path fill="#f8f8f8" opacity="0.97" d=" M 127.22 148.21 C 130.79 147.27 134.69 148.66 137.15 151.34 C 136.20 154.15 134.04 151.34 132.52 150.69 C 127.92 148.15 121.21 152.60 122.91 157.94 C 124.26 162.92 131.10 164.14 134.60 160.64 C 135.61 159.02 138.33 161.34 136.24 162.18 C 131.93 166.35 123.79 165.40 121.11 159.85 C 118.70 155.15 122.16 149.11 127.22 148.21 Z" />
<path fill="#f8f8f8" opacity="0.97" d=" M 157.80 152.96 C 157.19 150.12 160.16 147.46 162.91 148.01 C 164.33 148.36 165.64 149.06 167.00 149.60 L 167.00 150.63 C 164.72 152.10 161.99 148.57 159.92 151.12 C 159.69 155.40 165.91 155.16 167.00 158.98 L 167.00 161.02 C 166.24 162.37 165.46 163.94 163.85 164.43 C 161.42 165.64 159.08 163.80 156.94 162.84 C 157.20 162.36 157.73 161.39 158.00 160.91 C 160.13 162.23 163.31 163.74 164.83 160.76 C 164.97 156.67 158.40 156.95 157.80 152.96 Z" />
</g>
</svg>
