<svg width="625pt" height="216" viewBox="0 0 625 162" xmlns="http://www.w3.org/2000/svg"><g fill="#fff"><path d="M39.8 0h68.25c-2.59 8.06-4.92 16.2-7.48 24.27-19.21-.02-38.43-.04-57.64 0-3.51-.21-6.91 2.31-7.49 5.83-3.71 17.27-7.36 34.56-11 51.84-1.24 4.19 2.29 8.89 6.67 8.77 12.31.08 24.63.04 36.94.02 6.55.11 12.18-4.89 13.89-11.03 8.47-.03 16.94-.01 25.41-.01-.8 8.17-3.59 16.35-9.13 22.54-7.71 8.84-19.7 13.03-31.24 12.84-12.67-.08-25.35.14-38.02-.11C13.76 114.23.72 100.85 0 85.71v-4.17c2.78-16.02 6.64-31.85 9.85-47.79 1.41-6.22 2.13-12.79 5.57-18.31C20.45 6.75 29.84.95 39.8 0zm214.58 34.48c23.21-.26 46.42-.01 69.63-.13 1.41.06 2.88-.15 4.25.3 1.9 1.07 1.13 3.59 1.32 5.36-.25 4.04.44 8.18-.35 12.15l-1.35 1.15c-20.6.3-41.23.04-61.84.13-5.33.1-10.86-.4-15.99 1.38-3.55 1.14-5.98 4.46-6.73 8.02-1.32 5.96-.75 12.11-.88 18.16.12 6.05-.41 12.18.8 18.14.66 3.28 2.53 6.51 5.66 7.96 3.76 1.75 8 1.8 12.06 1.84 14.37-.03 28.75.04 43.12-.03 2.52.11 5.41-1.17 5.93-3.89.93-4.27.32-8.7.5-13.04-.15-1.24.5-3.79-1.57-3.56-12.63-.11-25.26-.01-37.9-.04-1.4.03-3.33-.03-3.76-1.71-.35-3.91-.13-7.86-.13-11.78-.2-1.59 1.3-2.89 2.84-2.68 18.37-.05 36.74-.02 55.11-.02 2.3-.35 4.65 1.39 4.31 3.87.07 10.31.01 20.63.03 30.95-.08 5.13-.42 10.66-3.43 15.02-2.91 4.07-8.12 5.69-12.95 5.6-19.3-.05-38.62.09-57.92-.07-10-.37-21.56-2.45-27.53-11.4-6.78-10.39-5.35-23.4-5.55-35.2.2-11.57-1.18-24.24 5.24-34.54 5.72-9.02 17.13-11.5 27.08-11.94zm98.37 4.56c-.32-2.14.88-4.76 3.35-4.62 24.62-.11 49.24-.01 73.86-.05 8.04-.06 17.41-.01 23.45 6.14 5.86 6.28 5.17 15.48 5.05 23.44-.06 6.18-3.12 12.26-8.33 15.67 5.76 3.34 9.11 9.82 9.01 16.42-.02 7.87.91 16.54-3.58 23.48-3.94 6.07-11.64 8.03-18.47 8.09-26.7.04-53.41.01-80.11.02-2.18.32-4.46-1.3-4.19-3.65-.1-28.31-.01-56.63-.04-84.94m20.47 14.94c-.24 6.37-.02 12.76-.09 19.14 16.97.01 33.94-.01 50.92.01 3.5-.05 7.1.13 10.49-.93 2.64-.79 4.27-3.48 4.32-6.16.04-3.27.56-6.85-1.01-9.85-1.79-2.99-5.68-3.33-8.81-3.37-18.33.06-36.68-.14-55.01.1-.2.26-.61.79-.81 1.06m-.09 33.71c.02 6.48-.05 12.95.01 19.43-.37 1.77 1.39 2.35 2.81 2.07 18.01-.02 36.02.02 54.02-.02 3.04-.05 6.82-.66 8.25-3.75 1.21-2.99.81-6.32.81-9.47.1-2.83-1.2-5.93-3.96-7.07-2.87-1.21-6.05-1.14-9.09-1.2-17.62.02-35.24 0-52.85.01zm110.24-53.22c5.43-.19 10.89-.16 16.32-.01 1.8.01 2.19 2.05 2.12 3.48.01 28.71.01 57.43 0 86.15.12 1.42-.38 3.42-2.12 3.46-5.42.13-10.86.17-16.27-.02-1.73-.16-2.11-2.08-1.99-3.48.01-28.71.01-57.42 0-86.13-.11-1.39.26-3.23 1.94-3.45zm48.15 10.13c6.53-8.13 17.66-9.85 27.46-10.18 21.47-.09 42.94-.06 64.4-.02.41.37 1.22 1.09 1.62 1.45v15.7c-.58 1.3-1.56 1.92-2.95 1.86-20.29.11-40.58-.07-60.86.08-5.02.13-11.13.99-13.69 5.95-3.19 6.71-1.82 14.39-2.12 21.57.28 7.16-1.02 14.79 2.04 21.52 2.47 5.05 8.63 5.98 13.67 6.11 20 .11 40 .02 60 .04 1.46-.13 2.89.31 3.91 1.4v16.04c-.38.36-1.15 1.09-1.53 1.46-20.48.12-40.96.01-61.44.05-7.75-.07-15.78-.62-22.86-4.02-5.91-2.81-10.24-8.34-12.05-14.57-3.22-10.71-1.8-22.02-2.12-33.02-.05-10.65-.41-22.58 6.52-31.42z"/><path d="M67.25 46.94c17.59 0 35.18-.01 52.77 0 10.79-.1 21.27 5.95 26.73 15.22 4.09 6.74 5.4 15.03 3.76 22.73-3.79 17.79-7.48 35.6-11.36 53.37-2.98 12.81-14.79 22.68-27.85 23.74H43.14c2.05-8.06 3.92-16.17 5.9-24.25 19.66-.01 39.32.02 58.97-.01 3.64.29 7.2-2.29 7.76-5.96 3.67-17.2 7.33-34.4 10.93-51.62 1.34-4.27-2.3-9.07-6.78-8.88-19.17-.07-38.34-.01-57.51-.03 1.61-8.1 3.22-16.21 4.84-24.31z"/></g></svg>