<svg width="640pt" height="236" viewBox="0 0 640 177" xmlns="http://www.w3.org/2000/svg"><path opacity=".97" d="M73.46 22.67c21.16-1.67 41.93 7.42 57.53 21.34 10.31 11.58 17.77 26.22 18.6 41.92 3.61 20.41-3.09 42.27-17.54 57.11-9.42 11.02-22.49 18.73-36.61 21.92-10.35 1.59-20.96 1.61-31.36.66-8.79-2.14-17.06-6.2-24.56-11.19-8.43-6.42-15.34-14.64-21.7-23.05-6.68-13.35-9.78-28.51-9.62-43.37 3.17-20.38 13.31-40.39 30.54-52.34 9.94-7.81 22.67-10.43 34.72-13M78.4 56.7c-16.11 1.05-31.82 12.34-35.66 28.36-3.54 11.04-1.06 23.48 5.21 33.05 5.8 7.54 14.23 12.42 21.21 18.74 4.19 3.85 6.67 9.12 10.3 13.45 3.17-2.57 4.71-6.5 7.08-9.71 4.13-7 11.86-10.31 18.09-15.04 7.25-5.87 10.99-14.86 13.06-23.71 1.84-12.66-3.25-25.43-11.91-34.55-7.83-6.02-17.16-11.24-27.38-10.59zm136.86-12.4c11.8-.29 23.61-.44 35.42-.1.45 23.6.5 47.22.3 70.83 1.31 17.8-13.3 34.9-31 36.59-11.66.85-23.36.4-35.03.39.05-8.19.01-16.37.26-24.55 7.23-.25 14.48-.14 21.69-.78 5.03-1.13 6.18-6.92 7.18-11.21 2.23-23.65.15-47.46 1.18-71.17zm88.46-.3c11.65.02 23.31-.12 34.96.21.81 23.6-.15 47.22.4 70.83-1.14 4.93 2.5 9.11 6.42 11.32 11.82 1.48 23.94-.45 35.69 1.84-.14 7.82-.22 15.64-.44 23.46-16.92.34-33.86.89-50.76.07-14.76-2.28-25.9-16.05-26.65-30.74-.75-25.65-.71-51.35.38-76.99zm93.96.79c24.65-.86 49.86-2.98 74.07 3 11.14 2.36 21.47 9.36 26.63 19.7 3.93 7.53 5.08 16.21 6.28 24.5.87 19.88.35 39.8.12 59.69-11.9.33-23.81.34-35.71.37-.09-8.29-.01-16.57-.3-24.84-11.85-.43-24.45-4.01-35.93.14.08 8.23.15 16.46.17 24.69-11.9-.02-23.8-.04-35.7-.35-.17-35.62-1.15-71.31.37-106.9m35.51 24.43c-.27 9.46-.61 18.96.3 28.39.39 2.15 2.08 4.44 4.48 4.31 10.28.48 20.58.1 30.87-.24-.94-9.6 4-22.25-5.74-28.65-8.51-6.62-20.03-3.34-29.91-3.81zm88.07-24.9c23.56-.29 47.16-.93 70.71.1 12.65.59 26.51 6.22 31.4 18.83 1.59 6.65 1.87 13.77.27 20.44-2.33 5.95-7.33 10.29-11.76 14.7 6.12 4.47 13.54 9.02 14.78 17.27 4.28 10.83-.74 24.29-10.12 30.8-6.47 3.78-14.06 5.44-21.51 5.44-15.26.29-30.6.79-45.82-.55-8.31-2.33-16.65-6.45-21.56-13.84-4.24-8.13-6.58-17.31-6.56-26.48-.38-22.23-.14-44.48.17-66.71m36.01 21.97c-.18 7.22-.27 14.45-.35 21.67 10.18.03 20.37.07 30.57.23 1.82-3.56 4.87-6.9 5.1-11.07-.8-4.62-3.13-10.62-8.57-11.05-8.92-.46-17.84-.06-26.75.22m-.21 41.96c.74 6.65-1.44 14.74 3.5 20.21 5.07 5.69 13.57 4.69 20.44 4.59 6.87 1.19 10.09-5.9 11.49-11.25.02-3.72-1.59-7.58-3.85-10.48-8.93-6.65-21.39-1.97-31.58-3.07z" fill="#f8f8f8"/></svg>