<svg width="172" height="154pt" viewBox="0 0 129 154" xmlns="http://www.w3.org/2000/svg"><g fill="#fff"><path d="M45 .5h5.08C55.1 8 60.09 15.51 65.1 23.02c5-7.53 9.98-15.07 15.08-22.53 1.69 0 3.38.01 5.07.01v42c-1.66 0-3.33 0-4.99.01-.05-11.18.05-22.36-.05-33.54-5.05 7.44-10.02 14.94-15.22 22.28-5.11-7.45-10.21-14.9-15.26-22.39.03 11.21.03 22.43.01 33.65-1.58 0-3.16-.01-4.74-.01V.5zm14.43 53.12c6.74-1.67 14.33-.38 19.67 4.22 9.17 7.75 9.9 23.2 1.59 31.84-8.09 9.06-24.12 8.79-31.87-.58-6.11-7.18-6.81-18.29-1.85-26.28 2.74-4.53 7.32-7.91 12.46-9.2m0 4.89c-7.9 2.76-12.13 12.09-10.16 20.01 1.53 8.59 10.68 14.94 19.26 12.81 8.97-1.7 14.43-11.63 12.45-20.29-1.45-9.62-12.4-16.31-21.55-12.53zm48.3-4.74c6.93-2.02 14.62-.07 20.19 4.41-.99 1.31-1.97 2.62-2.94 3.93-4.87-3.91-12.1-6.42-17.89-3.05-3.5 1.84-4.11 7.39-.86 9.74 4.82 3.4 11.12 3.08 16.31 5.69 3.28 1.41 5.85 4.34 6.46 7.91v3.14c-.48 4.1-3.22 7.75-7.08 9.25-8.34 3.38-18.09.54-24.59-5.33 1.04-1.25 2.08-2.5 3.13-3.75 5.16 4.83 13.2 7.98 19.95 4.67 4.1-1.88 4.98-8.35.93-10.75-5.7-3.31-12.96-2.71-18.36-6.71-3.71-2.44-4.37-7.43-3.43-11.45 1.1-3.8 4.43-6.65 8.18-7.7zM0 53.75h5c-.01 8.22.02 16.43-.02 24.65 7.83-8.3 15.75-16.51 23.72-24.68 2.13.03 4.26.03 6.39.02-5.75 6.28-12.04 12.03-17.75 18.34 6.19 7.81 12.42 15.59 18.6 23.42-2.13-.17-4.48.42-6.5-.31-5.31-6.44-10.42-13.06-15.61-19.6-2.97 2.89-5.88 5.85-8.83 8.77 0 3.72 0 7.43-.01 11.15-1.66-.01-3.33-.01-4.99-.01V53.75z"/><path d="M63.14 71.91c2.26-1.46 5.71.21 5.13 3.11.06 2.83-4.34 3.83-5.77 1.6-1.18-1.42-.76-3.59.64-4.71zm-7.15 41.01c7.4-4.4 17.3-2.51 23.72 2.83-.96 1.29-1.92 2.58-2.9 3.86-4.01-3.17-9.2-5.33-14.38-4.38-2.69.44-5.35 2.12-6.27 4.79-.59 2.39.01 5.31 2.28 6.63 6 3.61 13.84 2.81 19.33 7.51 5.28 4.84 3.52 14.66-2.92 17.67-8.46 4.03-19.01 1.38-25.66-4.92 1.04-1.22 2.07-2.44 3.11-3.66 5.09 4.74 12.85 7.81 19.57 4.84 4.51-1.64 5.46-8.73 1.08-11.07-5.92-3.31-13.51-2.62-18.86-7.14-4.97-4.52-3.84-13.57 1.9-16.96z"/></g></svg>