<svg width="1178pt" height="236pt" viewBox="0 0 1178 236" version="1.1" xmlns="http://www.w3.org/2000/svg">
	<g id="#ffffffff">
		<path fill="#ffffff" opacity="1.00" d=" M 7.60 0.00 L 11.18 0.00 C 15.39 0.74 19.01 4.52 18.98 8.89 C 19.05 47.59 18.95 86.29 19.03 124.99 C 19.18 141.32 29.23 157.03 44.05 163.92 C 49.61 166.66 55.80 168.11 62.00 168.25 C 75.00 168.28 87.99 168.19 100.99 168.28 C 106.76 168.38 111.21 174.56 109.66 180.08 C 108.81 184.54 104.41 187.66 99.94 187.49 C 87.30 187.52 74.66 187.52 62.03 187.48 C 45.46 187.27 29.08 180.29 17.64 168.28 C 7.47 157.95 1.27 143.97 0.00 129.55 L 0.00 7.35 C 0.99 3.71 3.89 0.81 7.60 0.00 Z" />
		<path fill="#ffffff" opacity="1.00" d=" M 567.96 11.89 C 570.01 9.42 574.19 9.32 576.34 11.73 C 580.55 15.92 584.77 20.11 588.95 24.35 C 591.16 26.59 590.93 30.57 588.55 32.61 C 586.38 34.58 582.69 34.53 580.61 32.45 C 577.77 29.73 575.06 26.88 572.26 24.13 C 569.34 26.96 566.56 29.93 563.62 32.72 C 561.08 35.09 556.24 34.64 554.56 31.45 C 553.32 29.27 553.49 26.11 555.45 24.40 C 559.63 20.24 563.80 16.07 567.96 11.89 Z" />
		<path fill="#ffffff" opacity="1.00" d=" M 125.55 77.69 C 136.79 64.14 153.54 55.25 171.11 53.85 C 188.78 52.19 207.04 57.92 220.47 69.55 C 223.04 71.93 226.32 74.23 226.96 77.91 C 227.71 81.20 226.55 84.82 224.06 87.08 C 200.55 110.57 177.06 134.07 153.57 157.58 C 152.59 158.54 151.52 159.41 150.45 160.26 C 166.45 170.98 188.89 170.96 204.48 159.48 C 208.24 156.15 214.52 156.21 217.96 159.97 C 221.86 163.74 221.41 170.83 217.14 174.14 C 203.54 184.40 185.91 189.14 169.00 186.98 C 154.32 185.31 140.31 178.49 129.88 168.04 C 118.11 156.54 110.93 140.47 110.18 124.03 C 109.21 107.38 114.80 90.45 125.55 77.69 M 157.93 76.82 C 143.61 82.99 132.77 96.60 130.07 111.97 C 127.67 124.02 130.64 136.77 137.29 147.01 C 139.84 143.72 142.99 140.97 145.88 137.98 C 164.97 118.81 184.23 99.81 203.20 80.53 C 189.94 71.90 172.40 70.25 157.93 76.82 Z" />
		<path fill="#ffffff" opacity="1.00" d=" M 263.07 64.86 C 271.97 57.59 283.78 53.95 295.22 55.25 C 306.51 56.41 317.39 62.16 324.37 71.18 C 326.24 69.80 327.70 67.97 329.42 66.41 C 340.36 56.37 356.68 52.83 370.86 57.17 C 388.21 62.08 401.39 78.85 401.76 96.93 C 401.74 124.28 401.77 151.63 401.74 178.98 C 401.35 184.51 395.33 188.76 389.99 187.19 C 385.83 186.33 382.42 182.28 382.74 177.96 C 382.75 151.94 382.76 125.91 382.74 99.89 C 382.83 92.37 379.58 84.80 373.69 80.05 C 368.00 75.41 360.13 73.37 352.96 75.19 C 342.89 77.39 334.78 86.67 334.26 97.02 C 334.21 123.70 334.30 150.40 334.22 177.08 C 334.31 181.12 331.88 185.03 328.08 186.47 C 322.33 188.91 314.88 184.49 315.01 178.08 C 314.98 151.75 315.01 125.41 315.00 99.08 C 315.06 92.23 312.24 85.39 307.16 80.77 C 300.86 74.73 291.13 72.57 282.89 75.53 C 273.48 78.66 266.46 88.04 266.49 98.02 C 266.50 124.66 266.52 151.30 266.48 177.94 C 266.48 182.29 263.27 186.38 258.97 187.23 C 253.29 188.80 247.07 183.94 247.26 178.05 C 247.28 142.43 247.16 106.80 247.31 71.19 C 247.75 63.77 257.57 60.06 263.07 64.86 Z" />
		<path fill="#ffffff" opacity="1.00" d=" M 447.02 68.51 C 457.38 59.43 471.34 54.60 485.09 55.44 C 500.23 56.10 514.88 63.69 524.21 75.62 C 531.09 84.19 535.27 94.96 535.75 105.95 C 535.75 130.29 535.77 154.62 535.74 178.96 C 535.52 184.50 529.34 188.72 524.08 187.20 C 519.89 186.37 516.59 182.28 516.75 178.00 C 516.75 155.32 516.75 132.63 516.75 109.94 C 516.79 101.76 514.08 93.53 508.82 87.22 C 500.73 77.14 486.63 72.25 474.08 75.54 C 459.39 78.91 447.95 92.89 447.75 107.99 C 447.74 131.35 447.79 154.71 447.73 178.07 C 447.64 182.49 444.30 186.62 439.87 187.31 C 434.31 188.59 428.24 183.81 428.51 178.03 C 428.49 142.71 428.50 107.39 428.50 72.07 C 428.38 66.99 433.01 62.53 438.06 62.71 C 441.95 62.50 445.37 65.13 447.02 68.51 Z" />
		<path fill="#ffffff" opacity="1.00" d=" M 641.57 55.70 C 644.34 55.15 647.17 54.94 650.00 54.99 C 664.36 55.06 678.73 54.92 693.09 55.05 C 697.93 55.10 702.45 59.12 702.53 64.06 C 703.04 69.40 698.36 74.53 692.95 74.25 C 678.98 74.25 665.01 74.26 651.05 74.24 C 643.76 73.93 635.91 76.42 631.24 82.26 C 627.17 87.52 626.82 94.96 628.93 101.08 C 631.80 108.18 640.01 110.89 647.08 111.19 C 656.71 111.35 666.36 111.16 676.00 111.28 C 687.09 112.02 698.14 117.33 704.58 126.57 C 710.49 135.08 711.89 145.98 710.55 156.07 C 709.41 165.44 704.57 174.47 696.77 179.94 C 687.99 186.49 676.64 188.03 665.97 187.50 C 652.34 187.49 638.72 187.51 625.09 187.50 C 619.96 187.76 614.97 183.29 615.21 178.06 C 614.77 173.05 619.12 168.47 624.06 168.26 C 640.37 168.23 656.69 168.25 673.01 168.25 C 678.05 168.13 683.26 166.53 687.02 163.05 C 690.76 159.45 691.87 154.01 691.78 149.00 C 691.79 144.29 690.71 139.18 687.21 135.80 C 683.27 131.80 677.47 130.44 672.04 130.25 C 662.67 130.21 653.31 130.31 643.95 130.22 C 634.19 129.44 624.31 125.71 617.54 118.44 C 611.37 111.95 608.43 102.87 608.47 94.02 C 608.28 84.83 611.12 75.29 617.57 68.56 C 623.77 61.66 632.55 57.46 641.57 55.70 Z" />
		<path fill="#ffffff" opacity="1.00" d=" M 779.83 56.41 C 800.00 51.95 822.13 57.42 837.67 71.09 C 841.17 74.48 841.49 80.53 838.27 84.21 C 835.02 88.21 828.52 88.68 824.66 85.31 C 814.60 76.80 800.88 72.61 787.80 74.49 C 774.78 76.08 762.77 83.57 755.25 94.26 C 746.90 105.85 744.32 121.39 748.56 135.05 C 754.62 156.59 777.63 172.20 799.93 168.43 C 807.71 167.02 815.00 163.20 820.75 157.80 C 847.00 133.00 873.28 108.24 899.54 83.46 C 906.89 76.80 913.49 69.11 922.20 64.14 C 937.83 54.62 957.46 52.40 974.98 57.42 C 994.43 62.95 1010.86 77.91 1018.25 96.72 C 1021.38 104.44 1022.87 112.77 1023.00 121.08 C 1023.00 140.05 1022.99 159.03 1023.01 178.01 C 1023.35 183.05 1019.22 188.23 1013.98 188.08 C 1008.76 188.80 1003.77 184.22 1003.76 179.02 C 1003.72 159.35 1003.77 139.67 1003.74 120.00 C 1003.37 105.49 995.84 91.44 984.05 83.00 C 972.76 74.70 957.66 71.82 944.15 75.58 C 933.14 78.50 923.37 85.57 917.00 94.98 C 909.87 105.37 907.10 118.73 909.82 131.06 C 912.97 146.85 924.81 160.51 939.94 165.97 C 953.25 171.09 968.68 169.36 980.88 162.10 C 986.56 158.81 994.58 163.32 994.77 169.87 C 995.28 174.39 992.09 178.45 988.05 180.11 C 974.50 187.55 958.33 189.77 943.21 186.84 C 927.87 183.85 913.78 175.17 904.09 162.93 C 894.26 150.69 888.98 134.84 889.75 119.14 C 871.22 136.82 852.49 154.30 833.89 171.92 C 822.96 182.18 808.09 188.56 792.99 188.07 C 779.50 188.25 766.15 183.57 755.23 175.76 C 741.42 165.87 731.52 150.57 728.48 133.84 C 725.44 117.39 728.62 99.79 737.74 85.71 C 747.16 70.88 762.64 60.05 779.83 56.41 Z" />
		<path fill="#ffffff" opacity="1.00" d=" M 1068.76 69.53 C 1086.04 55.42 1110.53 50.98 1131.68 58.08 C 1148.12 63.45 1162.23 75.51 1170.11 90.91 C 1176.27 102.85 1178.70 116.69 1176.94 130.01 C 1174.82 147.14 1165.65 163.26 1152.03 173.85 C 1140.21 183.20 1125.10 188.45 1110.00 188.03 C 1095.05 188.13 1080.37 182.55 1068.73 173.28 C 1068.78 191.20 1068.73 209.12 1068.76 227.04 C 1068.93 231.05 1066.01 234.50 1062.46 236.00 L 1056.26 236.00 C 1052.52 234.72 1049.53 231.10 1049.74 227.03 C 1049.78 172.66 1049.69 118.29 1049.79 63.93 C 1050.16 56.68 1059.93 52.92 1065.28 57.66 C 1069.01 60.42 1069.02 65.35 1068.76 69.53 M 1101.59 74.86 C 1087.74 77.43 1075.59 86.77 1068.84 99.03 C 1068.67 113.72 1068.73 128.43 1068.81 143.12 C 1076.78 159.76 1095.62 170.26 1113.96 168.81 C 1127.34 167.96 1140.21 161.07 1148.33 150.39 C 1156.10 140.48 1159.63 127.38 1157.83 114.91 C 1156.22 103.03 1149.83 91.94 1140.47 84.47 C 1129.79 75.70 1115.13 72.10 1101.59 74.86 Z" />
		<path fill="#ffffff" opacity="1.00" d=" M 567.32 58.59 C 573.04 55.08 581.40 59.28 581.69 66.05 C 581.82 103.38 581.73 140.72 581.74 178.05 C 581.79 183.53 576.51 188.19 571.08 187.43 C 566.34 186.99 562.39 182.72 562.51 177.92 C 562.49 140.94 562.49 103.96 562.51 66.98 C 562.48 63.61 564.31 60.19 567.32 58.59 Z" />
	</g>
</svg>
