<svg width="1007pt" height="218pt" viewBox="0 0 1007 218" xmlns="http://www.w3.org/2000/svg"><path d="M108.15 0h.97c10.32 10.31 20.7 20.57 30.92 30.97C150.31 20.6 160.67 10.33 170.98 0h.11c10.18 10.42 20.61 20.59 30.84 30.96 9.99-10.47 20.78-20.2 30.44-30.96h1.14c.49.97 1.12 1.84 1.91 2.61 35.55 35.44 70.97 71 106.56 106.39-28.11 27.91-56.01 56.02-84.14 83.9-7.99 8.21-16.47 16.01-24.16 24.46l-.06.64h-1.16c-1.82-2.63-4.31-4.69-6.51-6.98-7.99-8.04-16.1-15.97-24.01-24.09-10.25 10.37-20.66 20.57-30.89 30.96l.8.11h-.82c-10.27-10.41-20.72-20.66-30.99-31.07-9.42 9.62-19.04 19.05-28.54 28.61-.71.75-1.34 1.57-1.87 2.46h-1.08c-1.02-1.78-2.46-3.25-3.93-4.66C69.71 178.6 35 143.65.02 108.98l-.02.87v-.86C36.37 72.72 72.74 36.46 108.98.06l-.83-.06M12 108.96c32.43 32.28 64.83 64.59 97.09 97.04 8.36-8.33 16.63-16.75 25.08-24.98-24.21-23.91-48.1-48.16-72.31-72.06 24.18-23.9 48.03-48.12 72.24-71.99-8.38-8.31-16.72-16.66-25.05-25.02C76.79 44.38 44.39 76.67 12 108.96m61.83.02C96 130.92 118.05 153 140.05 175.12c8.26-8.43 16.7-16.69 25.02-25.08-13.96-13.52-27.44-27.53-41.38-41.07 24.2-23.92 48.08-48.17 72.31-72.05-8.37-8.32-16.75-16.61-25-25.03-32.34 32.41-64.73 64.77-97.17 97.09m134.03-72.01c24.21 23.86 48.07 48.09 72.24 71.99-24.21 23.91-48.1 48.16-72.32 72.07 8.48 8.21 16.71 16.66 25.1 24.96 32.26-32.44 64.67-64.75 97.08-97.03-32.37-32.3-64.79-64.56-97.01-97-8.39 8.31-16.69 16.71-25.09 25.01m-30.92 30.91c13.93 13.54 27.45 27.5 41.34 41.09-24.24 23.87-48.1 48.13-72.31 72.04 8.39 8.28 16.74 16.6 25.01 25 32.33-32.39 64.66-64.78 97.14-97.02-22.07-22.04-44.19-44.02-66.15-66.16-8.28 8.41-16.68 16.71-25.03 25.05M135.69 109c11.88 11.63 23.58 23.44 35.3 35.22 11.69-11.81 23.42-23.57 35.27-35.22-11.85-11.65-23.58-23.42-35.27-35.22-11.72 11.79-23.43 23.59-35.3 35.22zm832.78-25.64c8.35-7.24 21.16-7.83 30.71-2.69 3.07 1.6 5.25 4.35 7.82 6.59v.4c-3.36 1.48-6.59 3.24-9.85 4.9-6.22-6.54-18.01-6.08-23.75.87-7.27 8.16-7.36 21.38-.72 29.95 3.26 4.42 8.71 7.93 14.4 6.91 4.64-.95 7.75-4.92 9.83-8.89 3.38 1.32 6.74 2.69 10.09 4.12v.86l-.46.13c-1.99 2.68-3.54 5.71-6 8.02-4.98 5.19-12.63 7.7-19.69 6.16-9.68-1.84-17.34-9.6-21.02-18.48-5.5-13-2.44-29.7 8.64-38.85zM456.15 79c3.47-.15 6.94-.05 10.42-.16.43 16.8.08 33.64.17 50.46 9.39-.01 18.78.01 28.17-.01-.01 3.52-.04 7.04.01 10.57-12.94.03-25.88.03-38.82 0 .09-20.29 0-40.57.05-60.86zm100.09.6c13.57-.02 27.15-.07 40.72.02-.18 3.55-.12 7.1-.06 10.65-5.02 0-10.04.02-15.05-.02-.05 13.02.01 26.04-.02 39.05 5.01-.01 10.02.01 15.04-.02-.01 3.53-.03 7.05.02 10.58-13.54.03-27.08.04-40.62-.01.05-3.51.05-7.03-.01-10.54 5.03-.03 10.05-.01 15.09 0-.01-12.99-.11-25.97.05-38.96-5.05-.18-10.09-.04-15.13-.07.05-3.56.07-7.12-.03-10.68zm95.94.02c3.64-.07 7.28-.03 10.92-.07 9.6 13.9 19.12 27.84 28.59 41.82.27.2.8.6 1.06.8-.35-13.82-.03-27.65-.17-41.47 3.57.04 7.15.04 10.73.01-.01 19.94-.05 39.87.02 59.81-3.81-.1-7.67.28-11.46-.15-9.83-14.03-19.32-28.3-29.09-42.37.23 13.95.01 27.91.12 41.87-3.56.01-7.12.02-10.67-.01.03-20.08.13-40.16-.05-60.24zm116.28 23.31c8.45-7.7 17.14-15.11 25.65-22.74 5.34 0 10.67.03 16.01-.06-7.65 7.44-16.11 14.05-23.85 21.41 7.97 12.74 15.83 25.58 23.42 38.55-4.15-.72-8.48.51-12.52-.43-6.45-10.32-12.73-20.75-18.98-31.18-3.34 2.88-6.59 5.88-9.92 8.77.05 7.76-.03 15.52.05 23.28-3.59.01-7.18 0-10.76.02.04-19.95.04-39.89 0-59.84 3.58.03 7.16.02 10.75 0 .09 7.4-.28 14.83.15 22.22zm86.48-22.69c3.88-.07 7.76-.1 11.65.02 5.95 15.05 12.07 30.03 18.07 45.06 5.43-14.88 10.08-30.12 15.27-45.13 3.76 0 7.54-.01 11.31.02-6.75 19.82-13.34 39.7-19.9 59.58-4.13.37-8.28.39-12.4.01-7.97-19.86-15.86-39.76-24-59.56z" fill="#fff"/></svg>