<?xml version="1.0" encoding="UTF-8" ?>
<!DOCTYPE svg PUBLIC "-//W3C//DTD SVG 1.1//EN" "http://www.w3.org/Graphics/SVG/1.1/DTD/svg11.dtd">
<svg width="881pt" height="96pt" viewBox="0 0 881 96" version="1.1" xmlns="http://www.w3.org/2000/svg">
<g id="#fefefefe">
<path fill="#fefefe" opacity="1.00" d=" M 840.14 0.00 L 849.99 0.00 C 854.59 0.58 859.20 1.49 863.48 3.34 C 870.12 6.07 875.07 11.65 878.24 17.97 C 874.04 20.37 869.78 22.66 865.58 25.04 C 859.18 15.64 845.94 12.85 835.68 16.85 C 830.51 18.84 826.78 25.37 829.53 30.61 C 831.41 34.09 835.31 35.80 838.98 36.70 C 847.05 38.65 855.58 38.62 863.35 41.80 C 869.39 44.00 875.16 47.91 877.95 53.90 C 882.40 63.74 881.66 76.28 874.78 84.84 C 869.14 91.52 860.40 94.67 851.94 95.68 C 843.17 96.41 834.01 95.99 825.87 92.35 C 818.02 88.79 812.29 81.67 809.17 73.76 C 813.40 70.99 817.99 68.85 822.27 66.17 C 823.70 68.58 825.07 71.05 826.90 73.20 C 832.89 79.37 842.09 81.51 850.43 80.31 C 855.24 79.41 860.66 77.82 863.29 73.30 C 865.16 70.66 864.84 67.25 864.58 64.21 C 863.33 59.88 859.14 57.14 855.06 55.81 C 846.99 53.47 838.39 53.55 830.46 50.63 C 824.30 48.54 818.32 44.57 815.54 38.49 C 811.01 28.98 812.29 16.48 819.96 8.94 C 825.37 3.60 832.91 1.53 840.14 0.00 Z" />
<path fill="#fefefe" opacity="1.00" d=" M 582.54 3.18 C 586.65 3.01 590.79 3.42 594.88 2.83 C 596.67 4.47 598.09 6.46 599.46 8.47 C 610.77 24.12 622.16 39.72 633.49 55.35 C 634.26 56.42 635.13 57.40 636.02 58.37 C 635.44 43.94 635.92 29.48 635.76 15.03 C 635.90 10.92 635.35 6.75 636.26 2.70 C 641.45 2.73 646.65 2.69 651.85 2.73 C 651.95 32.98 651.76 63.24 651.95 93.49 C 648.55 93.52 645.16 93.58 641.77 93.41 C 627.20 73.47 613.11 53.17 598.51 33.24 C 598.54 53.31 598.44 73.38 598.57 93.45 C 593.19 93.61 587.80 93.52 582.43 93.44 C 582.47 63.36 582.24 33.27 582.54 3.18 Z" />
<path fill="#fefefe" opacity="1.00" d=" M 29.52 3.24 C 34.03 3.24 38.54 3.26 43.06 3.25 C 45.61 9.34 47.42 15.70 49.88 21.82 C 54.55 34.11 57.95 46.82 62.02 59.31 C 66.81 44.65 70.66 29.68 76.36 15.32 C 79.13 23.16 82.54 30.96 84.27 39.05 C 78.77 57.26 72.99 75.38 67.52 93.61 C 64.06 93.72 60.59 93.62 57.12 93.48 C 49.71 72.20 43.54 50.49 36.24 29.17 C 30.00 50.64 23.67 72.09 17.56 93.60 C 11.70 93.55 5.85 93.72 0.00 93.54 L 0.00 92.26 C 9.96 62.63 19.65 32.90 29.52 3.24 Z" />
<path fill="#fefefe" opacity="1.00" d=" M 78.44 3.29 C 83.68 3.18 88.92 3.33 94.16 3.16 C 104.57 33.19 114.30 63.47 124.90 93.43 C 119.04 93.68 113.18 93.63 107.32 93.55 C 104.73 88.33 103.53 82.45 101.70 76.90 C 93.79 52.41 86.34 27.78 78.44 3.29 Z" />
<path fill="#fefefe" opacity="1.00" d=" M 104.27 3.17 C 110.18 3.34 116.10 3.17 122.01 3.27 C 124.21 9.43 126.08 15.70 128.01 21.95 C 135.68 45.79 142.85 69.79 150.70 93.57 C 145.38 93.68 140.04 93.68 134.72 93.44 C 124.58 63.35 114.35 33.29 104.27 3.17 Z" />
<path fill="#fefefe" opacity="1.00" d=" M 161.56 3.36 C 165.04 3.11 168.55 3.28 172.03 3.29 C 175.68 13.77 178.73 24.44 182.27 34.96 C 185.64 45.86 189.16 56.72 192.61 67.60 C 194.06 63.87 195.03 59.99 196.10 56.14 C 201.32 38.56 206.35 20.93 211.51 3.33 C 217.44 3.12 223.38 3.31 229.31 3.24 C 219.56 33.42 209.42 63.48 199.49 93.60 C 194.90 93.51 190.32 93.81 185.74 93.52 C 182.47 83.48 178.41 73.73 175.17 63.69 C 172.19 55.05 170.10 46.11 166.81 37.59 C 162.41 52.31 158.30 67.14 152.69 81.46 C 149.87 73.72 146.77 66.02 144.65 58.06 C 150.22 39.81 155.92 21.59 161.56 3.36 Z" />
<path fill="#fefefe" opacity="1.00" d=" M 273.01 3.92 C 273.18 3.66 273.52 3.15 273.69 2.89 C 285.46 2.81 297.23 2.85 309.00 2.69 C 316.71 2.58 324.78 3.91 330.98 8.80 C 344.32 19.24 346.57 40.24 337.43 54.10 C 332.89 61.44 324.67 66.24 316.09 66.83 C 307.13 67.40 298.15 67.15 289.20 66.84 C 289.06 75.70 289.21 84.56 289.12 93.42 C 283.72 93.58 278.31 93.59 272.91 93.39 C 273.17 79.41 273.12 65.43 272.94 51.45 C 285.61 51.38 298.27 51.45 310.93 51.41 C 316.20 51.41 321.94 49.37 324.69 44.57 C 330.17 36.00 326.46 22.73 316.31 19.71 C 301.91 19.32 287.50 19.68 273.10 19.53 C 273.13 14.33 272.93 9.12 273.01 3.92 Z" />
<path fill="#fefefe" opacity="1.00" d=" M 429.70 2.70 C 438.13 2.74 446.57 2.79 455.00 2.86 C 458.66 2.83 462.33 2.93 465.99 2.79 C 469.29 3.10 472.60 3.32 475.91 3.61 C 483.26 5.08 490.16 9.27 494.24 15.65 C 500.57 25.64 500.88 39.00 495.43 49.42 C 491.93 55.90 485.28 59.92 478.34 61.79 C 484.66 68.48 490.72 75.42 496.89 82.25 C 499.81 86.20 503.96 89.11 506.43 93.41 C 499.96 93.58 493.48 93.55 487.01 93.45 C 477.98 83.60 469.10 73.60 460.46 63.41 C 450.21 63.41 439.97 63.41 429.72 63.41 C 429.65 58.30 429.73 53.18 429.73 48.07 C 438.14 47.76 446.56 48.28 454.98 47.96 C 462.09 47.67 469.57 49.20 476.33 46.28 C 484.20 41.82 485.44 30.04 479.65 23.44 C 477.20 20.73 473.56 19.37 469.97 19.25 C 456.55 19.19 443.12 19.33 429.70 19.18 C 429.67 13.69 429.70 8.19 429.70 2.70 Z" />
<path fill="#fefefe" opacity="1.00" d=" M 504.70 2.81 C 512.48 3.07 520.24 2.93 528.00 3.17 C 538.00 2.35 548.00 3.49 558.01 2.82 C 563.10 3.01 568.23 2.54 573.30 3.29 C 573.41 8.43 573.35 13.57 573.35 18.71 C 564.51 18.91 555.66 18.74 546.82 18.80 C 546.87 43.69 546.72 68.58 546.89 93.46 C 541.52 93.51 536.14 93.66 530.77 93.37 C 530.77 68.51 530.97 43.64 530.67 18.79 C 522.01 18.83 513.35 18.75 504.69 18.83 C 504.67 13.49 504.64 8.15 504.70 2.81 Z" />
<path fill="#fefefe" opacity="1.00" d=" M 662.20 3.31 C 664.07 3.04 665.96 2.65 667.88 2.94 C 673.25 3.50 678.62 2.72 684.00 2.84 C 697.43 3.48 710.88 2.76 724.30 3.11 C 724.56 8.66 724.44 14.21 724.46 19.76 C 703.71 19.65 682.96 19.79 662.22 19.69 C 662.27 14.23 662.29 8.77 662.20 3.31 Z" />
<path fill="#fefefe" opacity="1.00" d=" M 735.44 18.84 C 735.49 13.46 735.41 8.09 735.50 2.71 C 746.68 2.74 757.86 2.81 769.04 2.88 C 774.52 3.35 780.19 2.77 785.49 4.55 C 794.39 7.48 801.79 15.04 803.92 24.24 C 806.22 32.35 805.35 41.31 801.62 48.86 C 798.16 55.61 791.34 59.92 784.17 61.82 C 793.84 71.86 802.90 82.46 812.29 92.76 C 812.12 92.94 811.79 93.30 811.63 93.47 C 805.33 93.52 798.97 93.81 792.70 93.30 C 783.85 83.37 775.04 73.38 766.20 63.42 C 755.95 63.38 745.69 63.44 735.44 63.39 C 735.48 58.24 735.43 53.10 735.48 47.95 C 747.96 48.00 760.44 47.83 772.91 48.07 C 777.84 48.06 783.58 46.92 786.42 42.45 C 789.32 38.86 789.09 34.08 788.78 29.75 C 787.70 24.15 782.65 19.70 776.97 19.32 C 763.14 18.89 749.24 19.81 735.44 18.84 Z" />
<path fill="#fefefe" opacity="1.00" d=" M 368.96 3.26 C 374.67 2.53 380.44 3.01 386.18 2.84 C 399.03 32.96 411.05 63.44 423.88 93.57 C 417.96 93.42 412.02 93.68 406.11 93.43 C 396.96 69.69 387.17 46.19 377.74 22.55 C 368.18 46.17 358.67 69.80 349.14 93.43 C 343.38 93.58 337.60 93.61 331.84 93.35 C 336.31 82.67 340.72 71.96 345.12 61.24 C 353.07 41.91 361.05 22.60 368.96 3.26 Z" />
<path fill="#fefefe" opacity="1.00" d=" M 662.22 40.31 C 682.34 40.29 702.46 40.30 722.58 40.30 C 722.88 45.70 722.75 51.12 722.71 56.53 C 702.54 56.56 682.38 56.54 662.21 56.54 C 662.28 51.13 662.27 45.72 662.22 40.31 Z" />
<path fill="#fefefe" opacity="1.00" d=" M 662.28 76.52 C 682.95 76.42 703.61 76.62 724.28 76.42 C 724.53 82.11 724.40 87.80 724.57 93.49 C 703.77 93.51 682.97 93.59 662.17 93.44 C 662.35 87.80 662.18 82.16 662.28 76.52 Z" />
</g>
</svg>
