<svg width="1012pt" height="412pt" viewBox="0 0 1012 412" xmlns="http://www.w3.org/2000/svg"><path d="M3.88.46c14.48 4.43 28.59 10.1 42.93 15.01 18.73 6.87 37.65 13.24 56.3 20.31-.09 2.07-.19 4.14-.19 6.22.02 79.01.01 158.01.01 237.02-.31 9.37.64 18.78-.2 28.13-27.64-8.89-55.03-18.57-82.59-27.73-5.47-2.04-11.22-3.38-16.47-5.97.38-35.14.06-70.29.17-105.44.02-55.85-.06-111.7.04-167.55zm154.4 1.47c-.43-2.36 2.29-.96 3.38-.61 31.9 11.52 63.96 22.65 95.76 34.43-.12 90.43.12 180.86-.12 271.29l-2.07-.4c-32.27-10.75-64.41-21.9-96.7-32.56-.14-1.01-.23-2.02-.26-3.04.02-89.7-.01-179.41.01-269.11zM312.75.48c1.61.24 3.17.73 4.7 1.32 31.43 11.4 63.04 22.32 94.38 33.94.08 79.74.01 159.49.04 239.23-.06 10.69.12 21.38-.13 32.06-2.83-.4-5.45-1.57-8.15-2.43-30.26-10.09-60.39-20.57-90.69-30.54-.44-27.02-.06-54.07-.19-81.1.03-64.16-.04-128.32.04-192.48zM691.3 76.23c12.55-10.4 28.4-16.88 44.71-17.74 16.21-.77 32.99 2.02 47.13 10.3 9.54 5.31 17.66 12.71 25.31 20.42-3.92 6-8.15 11.79-12.4 17.55-9.69-10.91-21.41-20.68-35.7-24.69-13.63-3.8-28.71-4.21-41.85 1.58-14.63 6.12-26.01 18.25-33.7 31.88-9.39 16.83-13.7 36.22-13.65 55.42-.19 18.17 2.73 36.63 10.46 53.18 6.2 13.31 16 25.24 28.83 32.59 15.8 9 35.39 10.68 52.59 4.93 11.76-3.91 22.86-10.29 31.57-19.16.04-18.8.04-37.6.02-56.39-15.56-.54-31.14.05-46.7-.31-2.81-3.16-4.58-7.19-6.96-10.7-1.84-3.53-4.71-6.59-5.79-10.45 24.97-.07 49.95.04 74.92-.05 1.21.17 3.95-.74 3.66 1.44.05 28.01-.03 56.04.04 84.06.05 1.01-.27 1.88-.97 2.61-15.95 17.04-37.4 29.45-60.76 32.41-16.83 1.6-34.27-.89-49.23-9.04-16.58-8.65-29.48-23.31-37.85-39.87-9.81-19.49-13.98-41.49-13.79-63.21-.3-19.16 3.19-38.44 10.68-56.1 6.61-15.5 16.28-29.96 29.43-40.66zm210.55-9.42c14-7.35 30.29-9.82 45.92-7.81 15.96 1.56 31.16 8.49 43.25 18.95 6.34 5.49 12.56 11.28 17.6 18.01-4.66 5.32-8.66 11.2-13.46 16.4-9.13-10.85-19.26-21.51-32.41-27.42-15.34-7.12-33.71-7.67-49.3-.98-15.03 6.45-26.89 18.89-34.47 33.21-10.07 18.96-13.74 40.88-12.5 62.19 1.25 21.62 8.07 43.41 21.77 60.43 9.46 11.79 22.69 21.04 37.72 23.83 6.61 1.4 13.42 1.13 20.11.52 16.02-2.14 29.98-11.66 40.75-23.31 3.52-3.49 6.38-7.59 10.02-10.96 4.36 4.98 8.51 10.14 12.79 15.19-9.31 11.63-19.93 22.58-32.96 30.04-12.82 7.47-27.8 10.9-42.59 10.4-19.51-.21-38.49-8.61-52.6-21.92-13.3-12.44-22.76-28.65-28.33-45.9-5.16-15.69-7.24-32.27-6.8-48.75.2-21.05 5.23-42.14 15.05-60.8 9.12-17.25 22.9-32.43 40.44-41.32zm-437.88-4.54c5.12-.25 10.24-.04 15.37-.14 38.56 59.08 76.81 118.38 115.18 177.6.27-59.18 0-118.36.13-177.53 6.27-.08 12.55-.06 18.82-.02.15 57.94.02 115.87.06 173.81-.11 15.39.23 30.8-.18 46.19-4.85-.61-10.2.97-14.73-.79-19.5-29.38-38.4-59.18-57.66-88.73-19.9-30.76-39.87-61.48-59.71-92.28-.29 56.87-.04 113.76-.13 170.65-.11 3.73.41 7.53-.5 11.2-5.25-.27-10.5.03-15.75-.15-1.37-.78-.53-2.8-.79-4.08.05-62.33.01-124.65.02-186.98-.07-9.58.16-19.17-.13-28.75zM248.28 374.31c8.76-8.75 25.19-7.85 32.36 2.51-2 1.36-3.94 2.79-5.82 4.32-3.38-3.77-8.55-6.38-13.66-4.83-6.55.89-10.33 7.54-10.32 13.7.22 5.37 2.99 10.92 8.3 12.82 5.49 2.27 15.04.37 14.63-7.06-3.32.01-6.64.09-9.95-.11-.01-2.38-.04-4.76.42-7.1 6.16.19 12.32.05 18.47.08.71 7.42-1.89 15.45-8.25 19.77-9.14 5.9-22.64 3.06-28.79-5.9-5.87-8.4-5.03-21.14 2.61-28.2zm397.54 9.47c2.12-8.16 9.71-14.41 18.06-15.25 5.61-.56 11.55-.03 16.52 2.83-.15 2.84-.23 5.69-.27 8.54-3.32-2.28-6.96-4.65-11.16-4.48-5.87-.48-12.01 3.03-13.9 8.74-1.97 6.19-.82 14.23 5.14 17.85 6.24 3.48 14.41 1.81 19.66-2.78-.1 3.03-.09 6.05-.1 9.08-9.57 5.36-23.19 4.01-30.18-4.91-4.5-5.41-5.22-12.95-3.77-19.62zM4.28 369.41c3.11-.02 6.21-.03 9.32.01 5.86 7.83 11.82 15.58 17.74 23.37 1.53 1.99 2.14 4.62 4.15 6.25-.21-.36-.63-1.09-.84-1.45-.08-9.4.02-18.8-.05-28.19 2.75-.01 5.5-.01 8.24-.03.82 6.51-.3 13.05 0 19.58.26 6.75-.53 13.6.44 20.29-2.18 2.34-6.08.59-8.98 1.09-6.09-8.11-12.34-16.1-18.48-24.17-1.44-1.92-2.38-4.14-3.11-6.41-.15 10.21.1 20.43-.05 30.65-2.78-.04-5.55-.06-8.33-.03-.05-13.66.04-27.31-.05-40.96zm70.85-.02c8.07.02 16.14-.01 24.21.02-.03 2.43-.02 4.86.01 7.29-5 .02-10 .12-15-.06-.84 2.8-.81 5.89.05 8.69 4.97-.18 9.95-.06 14.92-.08-.01 2.43 0 4.86.01 7.3-5.17.02-10.35-.04-15.52.05.02 3.35.03 6.7-.02 10.05 5.16.31 10.34.08 15.51.13l.03 7.56c-8.07.06-16.13-.05-24.19.05 0-3.47.02-6.93-.08-10.39.01-1.34.01-2.67.01-4-.06-5.34-.14-10.67-.04-16 .16-3.54.11-7.08.1-10.61zm70.79-.5c12.56-3.26 26.9 6.83 26.77 20.09.88 9.98-6.63 19.41-16.19 21.75-8.9 2.46-19.17-1.43-24.16-9.21-4.11-6.22-4.59-14.62-1.19-21.26 2.89-5.76 8.52-9.94 14.77-11.37m.25 8.07c-5.21 2.11-8.14 7.58-8.32 13.03.46 2.95.79 6.09 2.77 8.48 3.94 5.75 12.88 6.82 18.17 2.37 6.58-5.22 6.54-16.38.17-21.75-3.4-3.14-8.55-3.48-12.79-2.13zm166.45-7.55c2.95-.02 5.91-.03 8.87-.01-.05 11.12 0 22.24-.03 33.37 4.65.05 9.31.03 13.96.01.04 2.53.04 5.06.02 7.59-7.6-.05-15.21 0-22.81-.03.03-13.64.04-27.29-.01-40.93zm59.91 1.02c9.92-4.88 23.15-.85 28.53 8.82 4.21 7.36 3.58 17.35-1.82 23.96-3.73 4.6-9.37 7.61-15.27 8.17-8.89.84-18.17-4.18-21.96-12.33-1.48-2.8-1.73-5.97-2.17-9.04.07-8.28 5.03-16.27 12.69-19.58m5.1 6.37c-8.92 3.13-11.26 15.88-5.16 22.65 4.21 4.94 12.4 5.51 17.38 1.42 6.51-5.28 6.56-16.51.1-21.85-3.29-3.02-8.18-3.31-12.32-2.22zm56.56-7.4c6.35.29 12.9-.78 19.09 1 5.68 1.45 8.85 8.53 6.16 13.73-1.39 2.76-4.47 3.86-7.18 4.87 3.47.31 6.98 1.95 8.59 5.2 2.27 4.93.27 11.6-4.79 13.93-6.78 3.32-14.6 1.88-21.87 2.23.04-13.66.04-27.31 0-40.96m8.63 6.87c.01 3.11.02 6.22-.01 9.34 2.12.01 4.25-.1 6.37-.22 1.73-.87 2.69-2.47 3.2-4.28-.34-1.13-.68-2.26-.99-3.39-2.51-1.79-5.66-1.51-8.57-1.45m0 16.23c0 3.64 0 7.29.01 10.93 4.24.64 9.83-.23 10.52-5.37-.58-1.53-.69-3.45-2.29-4.32-2.33-1.86-5.5-1.13-8.24-1.24zm59.1-23.06c3.4-.07 6.82-.06 10.23-.04 5.25 13.66 10.62 27.27 15.76 40.96-3.36 0-6.71 0-10.07-.02-1.04-2.98-2.16-5.93-3.42-8.81-5.2.06-10.4.01-15.61.04-1 2.89-1.99 5.78-2.81 8.73-3.22.07-6.44.06-9.65.06 5.24-13.62 10.41-27.27 15.57-40.92m5.06 7.08c-1.46 6.18-3.78 12.08-5.72 18.11 3.78 0 7.56.07 11.34-.09-2.19-5.89-4.69-11.76-5.62-18.02zm48.2-7.12c2.87-.01 5.74-.02 8.62.01-.05 9.83 0 19.67-.03 29.52-.08 1.45.12 2.91.77 4.24 4.36-.76 8.82-.22 13.22-.39.04 2.52.05 5.05.06 7.58-7.55 0-15.09-.05-22.63.03-.02-13.66.04-27.33-.01-40.99zm166.53-.02c3.33.07 6.67-.11 10 .08 5.67 13.48 10.57 27.3 15.98 40.9-3.34-.02-6.68-.04-10 .03-1.19-2.94-2.32-5.9-3.46-8.84-5.21 0-10.42.04-15.62-.04-1.11 2.94-2.03 5.95-3.12 8.89-3.12-.08-6.23-.05-9.34-.05 5.11-13.69 10.37-27.32 15.56-40.97m-.72 25.19c3.68.1 7.38.09 11.07.03-1.52-6.12-4.87-11.8-5.08-18.2a602.96 602.96 0 0 1-5.99 18.17zm53.8-25.12c6.44.25 13.2-1.04 19.37 1.31 7.63 2.92 8.68 14.29 3.44 19.83-3.51 3.86-9.03 4.26-13.91 4-.05 5.26-.01 10.52-.01 15.79-2.97-.05-5.92-.03-8.88-.05.02-13.63.03-27.25-.01-40.88m8.92 6.13c-.06 4.06-.02 8.13-.03 12.2 2.23-.17 4.81.14 6.57-1.57 1.86-2.02 1.74-5.13.99-7.59-1.29-2.83-4.92-2.74-7.53-3.04zm46.04-6.15c2.95-.05 5.91-.06 8.88-.04-.05 13.67.04 27.34-.05 41.02-2.94-.06-5.88-.06-8.82-.1-.02-13.62.01-27.25-.01-40.88zm37.73-.06c9.63.07 19.26-.01 28.9.04-.03 2.43-.03 4.86-.01 7.29-3.34.05-6.68.02-10.01 0-.03 11.21.01 22.42-.02 33.63-2.96.04-5.91.02-8.84.04-.03-11.22-.04-22.43-.01-33.64-3.34 0-6.68-.01-10.01.02-.02-2.46-.02-4.92 0-7.38zm65.08-.01c3.36.05 6.72.03 10.09.04 5.34 13.63 10.47 27.34 15.89 40.94-3.33.01-6.66-.02-9.99.06-1.28-2.88-2.41-5.83-3.45-8.8-5.2-.12-10.39.05-15.58-.1-1.28 2.87-2.18 5.89-3.16 8.87-3.16-.01-6.31 0-9.45-.04 5.21-13.65 10.32-27.36 15.65-40.97m-.97 25.11c3.78.27 7.57.18 11.36.12-2.01-6.05-4.36-12-5.93-18.19-.69 6.29-3.17 12.21-5.43 18.07zm54-25.06c2.94-.03 5.89-.02 8.84-.02-.03 11.13-.01 22.26-.01 33.4 4.65.01 9.31.02 13.98-.02.02 2.53.03 5.07 0 7.61-7.61-.05-15.22-.04-22.82-.02.05-13.65.03-27.3.01-40.95z" fill="#fff"/></svg>