<svg width="437pt" height="161pt" viewBox="0 0 437 161" xmlns="http://www.w3.org/2000/svg"><path d="M78.98 0h.11c8.78 4.37 17.25 9.81 23.55 17.44 5.63 7.24 7.94 16.52 8.03 25.57-.07 20.8.04 41.6-.06 62.4-20.87-22.8-40.84-46.4-61.72-69.19.54-8.05 3.33-16.34 9.35-21.96C64.09 8.14 71.39 3.65 78.98 0zm156.95 17.67c2.25-4.66 9.59-4.99 12.72-1.22.76 2.54 1.25 6.14-.98 8.09-3.17 1.81-7.77 2.1-10.46-.67-1.92-1.52-1.01-4.12-1.28-6.2zm-51.03 1.55c4.35-.59 8.69-1.25 13.02-1.94 4.47 7.23 8.23 14.92 12.32 22.38 2.64 4.72 5.09 9.55 7.73 14.28-1.75-11.88-.92-23.97-1.14-35.94H228v52.89c-4.24.02-8.47-.08-12.7.08-3.93-6.33-7.12-13.07-10.88-19.5-2.91-5.95-6.93-11.39-9.06-17.7 1.08 12.33.47 24.75.64 37.12h-11.1c-.15-17.22-.12-34.45 0-51.67zM237 31.17c3.77-.02 7.45-.85 11.18-1.25-.01 9.89.05 19.78-.01 29.67l.49.85c-.09 3.49.24 6.97.45 10.44-3.59 0-7.18.07-10.77-.09-.57-2.89-1.45-5.75-1.34-8.72v-30.9zm19 1.19c3-.9 6.07-1.56 9.07-2.49.88 2.15 1.67 4.33 2.32 6.56 2.52-3.95 6.89-6.12 11.46-6.57.65 3.97 1.35 7.94 1.28 11.98-4.39-.5-9.39 1.09-11.29 5.35-.48 7.85-.03 15.74-.21 23.6-3.83.16-7.67.1-11.49.07-.06-9.95-.02-19.9-.02-29.86-.06-2.9.13-5.93-1.12-8.64zm54.03-2.29c3.62.83 7.32 1.04 11.03 1.14-4.62 13.18-8.58 26.57-13.26 39.73-4.16-.09-8.33-.06-12.49-.03-4.63-12.86-8.68-25.93-13.39-38.76 4.04-.92 8.21-1.44 12.32-1.73 2.81 9.83 4.84 19.9 7.67 29.74 3.09-9.92 4.9-20.22 8.12-30.09zm12.94 3.37c7.51-3.43 16.62-5.03 24.45-1.78 5.68 2.25 8.73 8.5 8.49 14.38.19 7.86-.7 15.85 1.06 23.59-2.95.64-5.92 1.28-8.75 2.32-1.02-1.39-.89-4.56-2.59-4.89-4.7 6.04-13.84 5.94-20.12 2.61-4.92-2.94-5.32-9.45-4.25-14.5 2.03-5.14 7.84-6.86 12.76-7.86 3.49-.42 6.98-.91 10.49-1.31-.49-2.17-.89-5.06-3.32-5.9-5.04-1.33-10.38-.17-14.99 2.04-1.12-2.24-1.94-4.61-3.04-6.85-.04-.46-.14-1.38-.19-1.85m10.2 22.71c-.75 1.34-1.54 2.79-1.13 4.38 2.62 3.96 9.41 3.08 11.5-.98 1.19-1.68.69-3.81.83-5.73-3.84.06-7.69.73-11.2 2.33zm27.87-23.94c2.94-.68 5.9-1.35 8.77-2.34.78 1.72 1.52 3.46 2.25 5.21 2.33-3.06 5.96-5.12 9.86-5.08 4.32-.27 9.28.41 12.28 3.87 2.85 3.34 2.98 7.89 3.44 12.03.05 8.3.03 16.61-.01 24.91-3.83.13-7.67.08-11.5.05-.06-7.95.01-15.91-.02-23.86-.02-2.44-.39-5.25-2.41-6.88-3.66-2.37-9.99.22-10.03 4.87-.1 8.49.12 17-.08 25.49-3.58.96-7.68.16-11.46.38-.06-10.28.02-20.56-.04-30.83.04-2.65-.37-5.27-1.05-7.82zm42.08 1.33c6.68-3.51 14.8-4.55 22.12-2.74 6.01 1.42 10.32 7.05 10.64 13.12.18 8.61-.53 17.31 1.1 25.82-2.98.5-5.93 1.19-8.78 2.21-.79-1.75-1.35-3.59-1.88-5.42-3.71 5.14-10.69 6.34-16.52 4.78-3.93-.69-7.59-3.46-8.51-7.48-.77-4.3-1.07-9.69 2.9-12.6 5.76-4.41 13.45-4.2 20.3-5.21-.26-2.21-.71-4.76-2.98-5.79-5.09-1.55-10.59-.29-15.29 1.92-1.02-2.84-3-5.56-3.1-8.61m10.19 22.88c-1.84 1.5-1.37 3.78-.27 5.57 2.49 1.06 5.46 1.62 7.92.14 3.07-1.48 4.13-5.11 3.87-8.28-3.91.13-8.16.35-11.52 2.57zM0 79.85c6.85-14.56 18.47-26.77 33.01-33.78-.05 22.81.04 45.63-.04 68.44C18.39 107.71 6.78 95.32 0 80.82v-.97zm125.15-33.97c14.77 7.12 27.11 19.47 33.48 34.64-6.65 14.87-18.63 27.5-33.53 34.21.06-22.95-.06-45.9.05-68.85zm-77.3 9.84c20.44 22.99 40.68 46.13 61.23 69.01-.09 6.74-2.36 13.44-6.34 18.88-6.41 7.51-14.65 13.38-23.69 17.34-9.87-4.79-19.65-11.09-25.7-20.46-3.68-6.14-5.73-13.33-5.57-20.5.05-21.42-.05-42.85.07-64.27zm266.49 30.85c1.23-4.81 7.39-5.08 11.18-3.38 2.71 1.44 2.56 4.71 2.39 7.34-2.61 5.15-12.16 4.99-13.6-1l.03-2.96zm-123.82 2.01c5.27-4.09 12.31-4.83 18.76-4.42 4.48.51 9.07 1.46 12.78 4.18-.96 2-1.87 4.01-2.83 6-.48 1.14-.97 2.26-1.45 3.4-4.9-2.63-10.94-3.79-16.32-2.1-4.68 1.61-5.9 6.94-6.39 11.3-.18 6.71-.76 14 3.13 19.88 5.74 4.1 13.49 2.61 19.52-.09 1.67 3.01 2.89 6.24 4.3 9.37-6.81 4.25-15.25 4.62-22.97 3.38-5.72-1.06-11.12-4.59-13.34-10.12-3.33-7.31-2.98-15.55-2.68-23.39.49-6.37 2.37-13.15 7.49-17.39zm217.22-3.46c3.79-.68 7.61-1.09 11.45-1.38.15 15.75 0 31.52.07 47.28.08 2.67.59 5.31.82 7.98H409.2c-1.33-3.85-1.44-7.95-1.46-11.98.01-13.97.03-27.93 0-41.9zm-68.64 1.87c3.78-.98 7.72-.95 11.55-1.65.55 4.23.09 8.52.24 12.77h8.17c-.04 2.99-.44 5.95-.93 8.9-2.42-.01-4.83-.01-7.24-.01.54 9.62-2.27 20.86 4.98 28.68-2.74 1.67-5.37 3.51-7.92 5.45-3.03-2.33-5.94-5.09-7.13-8.83-2.63-8.18-1.45-16.86-1.71-25.3-1.93 0-3.86 0-5.78-.01.01-2.93-.01-5.87.04-8.8 1.91-.06 3.82-.08 5.74-.1 0-3.7.01-7.4-.01-11.1zm-110.72 14.29c6.82-3.72 15.1-4.93 22.68-3.15 6.3 1.4 11.16 7.52 11.08 13.98.11 8.6-.19 17.21.99 25.75-2.94.86-5.97 1.4-8.91 2.27-.69-1.79-1.23-3.63-1.63-5.5-2.72 3.58-7.12 5.74-11.65 5.4-4.92.33-10.65-1.17-13.14-5.83-2.61-5.38-2.15-13.6 3.9-16.45 5.95-2.86 12.73-3.46 19.24-3.79-.67-2.55-1.45-5.69-4.35-6.5-4.88-1.4-10.09.24-14.5 2.39-1.55-2.72-2.49-5.71-3.71-8.57m10.85 22.81c-.3.42-.91 1.26-1.22 1.68-.01.77-.04 2.33-.05 3.11 1.94 2.36 4.89 2.31 7.69 2.13 3.56-1.56 5.92-5.2 5.19-9.15-4-.22-7.99.49-11.61 2.23zm41.11-21.28c6.16-8.45 22.13-7.22 25.42 3.26 2.53 8.35 2.81 17.86-.82 25.94-4.01 8.25-15.36 10.1-23.01 6.23.27 4.25.35 8.5.29 12.76h-11.44c.01-12.34-.01-24.68.03-37.02.14-4.91-1.05-9.75-.82-14.66 2.92-.42 5.75-1.25 8.6-1.99.72 1.77 1.35 3.59 1.75 5.48m1.92 9.25c.07 5.76-.43 11.65.24 17.34 2.96 1.74 6.97 1.99 10.04.32 2.79-1.87 2.88-5.64 3.39-8.64.14-4.9.43-11.08-4.17-14.16-3.93-.79-8.49 1.01-9.5 5.14zm82.55-10.81c5.5-3.19 12.02-4.1 18.28-3.89 6.14.29 12.61 3.66 14.61 9.8 2.96 9.94-.53 20.63 2.29 30.6-3.16.77-6.28 1.68-9.48 2.25-.53-1.82-1.13-3.61-1.69-5.41-2.47 3.46-6.46 5.74-10.79 5.42-5.69.58-12.73-1.52-14.54-7.59-1.16-4.65-1.23-10.74 3.27-13.71 5.92-4.03 13.54-4.22 20.45-4.78-.26-2.84-1.55-5.97-4.62-6.66-4.88-1-9.91.59-14.32 2.59-1.12-2.89-2.34-5.73-3.46-8.62m10.47 23.21c-.26.66-.77 1.96-1.02 2.62l.84 2.85c3.45 1.92 8.52 1.61 10.78-1.98 1.67-1.63 1.14-4.04 1.28-6.11-4.09-.05-8.31.5-11.88 2.62zm-59.07-25.04c3.6-.43 7.24-.57 10.79-1.35-.01 10.97.02 21.95-.02 32.92-.09 2.71.52 5.37 1.05 8.01-3.65 0-7.3-.02-10.95.02-1.27-3.2-1.45-6.69-1.73-10.08.01-9.57-.08-19.15.04-28.72.2-.2.61-.6.82-.8z" fill="#fbfbfb"/></svg>