<svg width="764" height="106pt" viewBox="0 0 573 106" xmlns="http://www.w3.org/2000/svg"><g fill="#fff"><path d="M20.1 12.15C31.31 2.88 46.51-1.28 60.89.76c20.82 2.51 39.09 18.71 44.19 39.04 2.43 8.11 1.51 16.62 1.67 24.95-4.75 0-9.5.01-14.25 0-.1-7.55.6-15.33-1.81-22.62-3.57-11.88-13.25-21.73-25.08-25.48-10.59-3.59-22.72-2.07-32.19 3.83C22.56 27.04 15.32 39.26 15 51.96V85.5H.5c0-11.17-.01-22.35 0-33.52.29-15.31 7.66-30.26 19.6-39.83z"/><path d="M41.17 24.33c8.47-3.62 18.5-3.31 26.74.84C78.35 30.18 85.47 41.4 85.51 53c-.01 10.83-.01 21.67-.01 32.5-4.75 0-9.5.01-14.26 0-.02-10.88.05-21.76-.02-32.64-.33-7.85-6.56-14.91-14.29-16.28-8.26-1.76-17.19 3.5-19.84 11.49-1.87 5.35-.82 11.14-1.09 16.69-4.75-.01-9.5-.01-14.25-.01.17-7.31-.8-14.92 1.92-21.9 2.9-8.28 9.44-15.11 17.5-18.52zm117.58 8.92h7.88c5.9 10.87 11.68 21.81 17.59 32.67.06-10.89.01-21.78.03-32.67h8v50.5c-2.7 0-5.4 0-8.1.02-5.84-10.8-11.66-21.61-17.41-32.46.02 10.81.01 21.63.01 32.44-2.67 0-5.34 0-8-.01 0-16.83-.01-33.66 0-50.49zm46.68.32c4.74-1.24 9.78-.27 14.65-.58 5.55-.44 11.03 4.12 11.13 9.79.06 10.42.08 20.85-.01 31.27-.16 5.29-5.06 9.64-10.24 9.69-3.99.04-7.97.03-11.95 0-5.31.08-10.52-4.35-10.5-9.83-.02-10.3-.02-20.6 0-30.9-.16-4.27 3.04-8.03 6.92-9.44m6.8 6.74c-2.88.28-5.64 2.63-5.68 5.65-.12 7.01-.01 14.03-.06 21.05-.18 3.8 1.78 8.1 5.6 9.34 2.87.32 6.33.64 8.4-1.82 3.98-4.19 2.48-10.34 2.76-15.54-.24-4.93.53-9.97-.48-14.84-1.7-4.17-6.75-4.28-10.54-3.84zm25.27-7.06c7.51 0 15.02 0 22.52-.02 5.33-.28 10.68 4.24 10.71 9.7.04 10.35.03 20.71.01 31.07-.02 5.51-5.35 9.9-10.68 9.76-7.52-.01-15.05 0-22.57-.02.02-16.83 0-33.66.01-50.49m8.25 7.25v36c4.05-.13 8.13.28 12.16-.21 3.04-1.48 4.78-4.97 4.83-8.27.03-7.01 0-14.03.01-21.04.32-3.26-2.51-6.35-5.76-6.44-3.74-.13-7.49 0-11.24-.04zM277 33.24c10.09.01 20.17 0 30.25.01v7.25c-7.42.01-14.83 0-22.25 0V54h16.25v7.5c-5.42.01-10.83 0-16.25 0v15c7.42 0 14.83-.01 22.25 0v7.25c-10.08.01-20.16 0-30.25.01V33.24zm50.53 1.39c2.47-1.73 5.59-1.38 8.43-1.39 3.99.08 7.98-.11 11.96.07 5.29.61 9.51 5.58 9.21 10.93-2.8-.17-5.89.44-8.51-.3-2.73-4.43-8.24-3.45-12.64-3.43-2.43-.25-4.49 1.98-4.21 4.37.01 9.35-.12 18.72.07 28.07-.03 2.6 2.88 3.77 5.12 3.57 4.21.13 9.7.6 11.8-4 2.77-.03 5.55-.02 8.33-.03.07 3.5-1.26 7.1-4.22 9.13-3.98 3.14-9.27 1.9-13.92 2.14-4.34.14-9.3.22-12.63-3.04-2.27-1.88-2.6-5.02-2.58-7.77.02-9.66 0-19.32.01-28.97.05-3.36.6-7.48 3.78-9.35zm35.96 8.3c-.21-5.54 5.14-10.08 10.49-9.94 4.05.01 8.1 0 12.16 0 5.32-.09 10.71 4.46 10.38 10.02-.04 13.58-.01 27.16-.02 40.75-2.68-.01-5.35 0-8.02-.04.04-7.41.01-14.81.01-22.22h-16.98c-.02 7.42 0 14.84-.02 22.26-2.66-.01-5.33-.01-7.99-.01-.01-13.6.01-27.21-.01-40.82m11.67-2.11c-5.29 2.21-3.32 8.74-3.65 13.18h16.98c-.18-3.3.44-6.71-.35-9.93-2.24-4.87-8.65-4.29-12.98-3.25zm27.59-7.57c6.76 0 13.53 0 20.29-.01 4.75-.05 9.33 2.81 11.58 6.95 1.73 3.37 1.43 7.28 1.32 10.94-.2 5.93-5.13 10.99-10.91 11.84-4.73.61-9.52.13-14.28.28v20.5h-8v-50.5m8 7.25V56c4.02-.15 8.09.37 12.07-.35 6.82-1.55 6.91-13.23.15-14.94-4.05-.48-8.15-.09-12.22-.21zm31.5-7.25c2.75 0 5.5-.01 8.26.01-.01 16.83 0 33.66-.01 50.49h-8.25c0-16.83-.01-33.67 0-50.5zm16 0c11.09-.11 22.16-.11 33.25 0v8H479c-.01 14.17.01 28.34 0 42.51-2.76-.01-5.5-.01-8.25-.01v-42.5c-4.15.01-8.3-.03-12.44.04-.08-2.68-.08-5.36-.06-8.04zm40.54 9.51c.08-5.69 5.6-10.22 11.16-9.77 4.36.07 8.72-.13 13.07.1 4.73.65 8.92 4.79 8.95 9.68.07 13.66.01 27.32.03 40.99-2.67-.01-5.34-.01-8 0-.01-7.42.01-14.84-.01-22.26-5.75.01-11.49-.01-17.24.01v22.24h-8c.03-13.66-.06-27.33.04-40.99m8.75.74c-1.4 3.3-.59 7.02-.78 10.5h17.23c-.05-2.95.21-5.93-.18-8.86-.51-3.11-3.78-5.06-6.77-4.9-3.38-.25-7.68-.16-9.5 3.26zm31.96-10.25h8c0 14.16.01 28.33 0 42.49 8.33.02 16.66 0 25 .01 0 2.66 0 5.33.01 7.99-11.08-.05-22.15.08-33.21.16.28-16.88.19-33.77.2-50.65zM21.75 71h14.5v14.25h-14.5V71zm70.74.01c4.76-.02 9.51-.01 14.27-.01-.01 4.75-.01 9.5-.01 14.25H92.5c-.01-4.75 0-9.49-.01-14.24zM.5 91.75H15V106H.5V91.75zm70.75 0H85.5V106H71.25V91.75z"/></g></svg>