<svg width="1172pt" height="233pt" viewBox="0 0 1172 233" xmlns="http://www.w3.org/2000/svg"><path d="M96.36 1.46c22.76-2.4 46.55-.26 67.43 9.62 15.59 7.37 29.48 18.51 39.55 32.56 15.2 21.13 22.49 47.39 22.23 73.29.11 26.03-7.52 52.43-23.26 73.34-17.31 23.1-44.74 38.01-73.39 40.82-25.35 2.68-52.1-.65-74.38-13.67-23.35-13.1-40.71-35.83-48.27-61.41-8.4-28.24-7.65-59.27 2.58-86.94 8.47-22.93 25.19-42.76 46.68-54.52C68.03 7.36 82.05 3.02 96.36 1.46m3.26 37.29c-18.78 3.19-35.18 16.44-43.04 33.68-8.51 18.43-10.01 39.41-7.82 59.37 2.07 17.8 8.62 35.95 22.24 48.17 11.6 10.55 27.46 15.65 43.01 15.11 15.87.26 31.88-5.6 43.14-16.91 13.04-12.57 18.83-30.73 20.69-48.34 1.62-16.98.46-34.48-5.24-50.65-4.88-13.81-14.21-26.34-27.11-33.55-13.72-8.05-30.43-9.43-45.87-6.88zM258.84 1.94c16.12.01 32.24 0 48.36.01.03 36.71-.02 73.43.02 110.15 26.58-36.7 53.06-73.47 79.65-110.16 18.65.02 37.31-.02 55.96.02-28.05 37.99-56.42 75.74-84.53 113.68 30.08 38.8 60.31 77.49 90.26 116.39-19.94.04-39.88-.01-59.82.03-27.32-37.5-54.44-75.15-81.74-112.67-.03 37.55.06 75.11-.04 112.66-16.04-.02-32.08 0-48.11-.01-.03-76.7-.02-153.4-.01-230.1zm223.57.35c10.78.25 21.58-.28 32.35.34l-.62.71c1.47.04 2.95.1 4.44.17l-.21.72c1.62.15 3.13.73 4.64 1.35 1.92 1.22 3.6 2.75 5.35 4.17.85 1.14 1.67 2.32 2.61 3.4.36 1.12.62 2.26.78 3.43l.75-.14c.21 3.39.2 6.78-.03 10.17l-.72-.22c-.17 1.19-.44 2.35-.81 3.49-1.97 2.17-3.66 4.86-6.51 5.94l.29.47c-3.58 1.85-7.1 4.07-11.36 3.66l6.56 1.16c1.08.3 2.09.75 3.05 1.34.35-.06 1.05-.17 1.4-.23l.14 1.39 1.79-.44.17 1.12c1.12.19 2.11.66 2.96 1.43l.21.75 1.03-.06-.27 1.12 1.13-.17.04 1 .74.22c.54.82 1.07 1.66 1.59 2.5.48 1.2.79 2.45.93 3.75l.6-.52c.25 3.42.25 6.85-.02 10.27l-.62-.28c-.16 1.24-.46 2.44-.89 3.61-1.55 3.22-4.17 5.83-7.02 7.92-.49.27-1.45.83-1.94 1.1-.65.2-1.96.61-2.61.81l.18 1.11c-.38-.08-1.15-.23-1.53-.31-1.02.87-2.23 1.29-3.63 1.24l.19.61c-1.8.12-3.6.24-5.38.31l.57.64c-10.09.55-20.21.11-30.31.32.1-26.45.13-52.91-.01-79.37m10.14 8.25c.17 8.65.15 17.31.02 25.96 5.71-.09 11.44-.1 17.16-.1l-.44-.9c.83-.02 2.49-.07 3.32-.1l.04-.68c1.21-.35 2.39-.81 3.58-1.26 2.03-1.58 3.62-3.61 5.47-5.38-.17-.39-.52-1.15-.69-1.53l1.34.22c.01-2.33.04-4.66.03-6.98-.81-1.39-1.54-2.82-2.04-4.34l-.87.06.06-1.11-1.16.17.18-.93c-1.26-.25-2.38-.86-3.49-1.46a16.51 16.51 0 0 0-3.72-.88l.35-.71c-6.38.07-12.76.09-19.14-.05m-.01 34.02c.18 9.62.18 19.25 0 28.88 6.44-.23 12.88-.14 19.32-.06l-.72-.84 4.47-.18-.13-.8c2.69-.05 4.57-2.17 6.82-3.33.44-1.3 1.32-2.34 2.42-3.16-.17-.37-.5-1.11-.66-1.48l1.27.21c.07-2.68.14-5.37.05-8.06-.88-1.21-1.47-2.58-2.06-3.94-.27-.33-.79-.98-1.05-1.31l-.76.07.04-.81c-1.79-1-3.55-2.02-5.31-3.05-2.59-.78-5.23-1.37-7.95-1.39l.48-.69c-5.41.07-10.82.16-16.23-.06zM550.48 2.3c3.66.06 7.32.06 10.98.01-.13 23.69-.04 47.38-.04 71.07 11.08-.23 22.17.05 33.25-.14-.12 2.81-.12 5.62-.02 8.44-14.72-.12-29.44-.07-44.16-.03.09-26.45.13-52.9-.01-79.35zm83.01.38c5.38-.46 10.78-.43 16.16-.04l-.4.64c2.5-.01 4.91.63 7.28 1.37l-.07.91c.56-.1 1.67-.31 2.22-.41l-.46 1.07c1.55.12 2.98.76 4.38 1.43l-.13.73c1.14.18 2.18.63 3.11 1.35l-.05.44c2.17 1.22 3.88 3.03 5.31 5.04 1.07 1.37 2.44 2.59 2.92 4.33l.93.19-.24 1.8 1.35.09c-.1.47-.29 1.41-.39 1.88l1.37.15-.24 1.33a7.167 7.167 0 0 1 1.26 3.7l.68-.24c.06 1.45.12 2.91.17 4.37l.81-.54c.12 2.19.21 4.39.21 6.59l.71-.64c.04 3.49.03 6.97-.01 10.46l-.7-.47c-.01 2.14-.12 4.28-.23 6.42l-.72-.36c-.08 1.56-.21 3.14-.84 4.59-.55 1.79-1.1 3.64-2.37 5.08l.16 1.3-1.02.24c-.47 2.59-2.47 4.62-4.31 6.37l.32.71-1.15-.14.09 1.19-1.13-.18.13 1.08-1.1.1-.04 1.09-.63-.35c-1.74 1.84-3.75 3.89-6.35 4.3l-.23 1.03-1.22-.12c-1.09.82-2.34 1.25-3.73 1.29l.37.65c-2.8.6-5.58 1.4-8.47 1.19l.54.69c-4.14.16-8.27.16-12.39-.01l.4-.71c-1.81-.02-3.6-.11-5.38-.2l.37-.83c-.85-.02-2.55-.05-3.4-.06l.38-.74c-1.25-.22-2.47-.57-3.64-1.03-1.72-.87-3.5-1.72-4.85-3.12-2.58-1.23-4.32-3.62-6.35-5.54-1.37-1.79-3.47-3.3-3.59-5.74l-.71.27c-.55-1.39-1.17-2.76-1.36-4.26l-1.02.02c.06-.36.17-1.08.23-1.44a6.528 6.528 0 0 1-1.2-3.57l-.67-.01c-.09-1.35-.15-2.7-.18-4.05-.2.03-.61.1-.81.13-.37-6.71-.45-13.45.04-20.17l.75.41c.03-1.49.09-2.98.17-4.46l.8.62.16-3.48.82.22c-.06-2.01.99-3.72 1.99-5.37.46-.95.93-1.89 1.41-2.84l.52.07c.61-1.41 1.44-2.73 2.63-3.72.21-.34.62-1.03.82-1.37l.94.1-.21-1.35 1.12.53-.14-1.19.86.02c1.7-1.85 3.73-3.82 6.31-4.23l.08-1.06 1.86.36.16-1.44c.33.09 1 .29 1.33.39 1.09-.95 2.38-1.4 3.89-1.38l-.58-.59c1.44-.08 2.88-.15 4.33-.2l-.14-.68m3.97 7.9l-.12.83c-1.76.08-3.51.18-5.24.3l.5.78c-2.37-.19-3.9 1.89-6.11 2.15l-.18 1.18c-.39-.11-1.17-.32-1.56-.43-.12 1.21-.77 2.02-1.96 2.42-.23.25-.7.74-.93.98-.42 1.09-1.2 1.78-2.32 2.06.04.43.13 1.27.17 1.69l-1.03-.11c-.18 1.76-1.11 3.28-2.31 4.52.14.4.43 1.21.57 1.61l-1.23-.49c-.06.9-.17 2.7-.23 3.61l-.88-.39c.02 1.78-.11 3.57-.23 5.35l-.73-.39c-.04 4.82.07 9.64-.06 14.45l.73-.4c.12 2.86 1.2 5.55 1.45 8.39l1.05-.24c-.1.5-.29 1.52-.39 2.02l1.38.29c-.12.34-.36 1.03-.48 1.38 1.11.72 2.14 1.78 2.24 3.18 2.29 2.23 4.16 5.03 7.15 6.44l-.39.55c.65.31 1.97.92 2.62 1.22.35-.08 1.06-.25 1.41-.33l-.03 1.16c.82.05 2.45.15 3.27.21l-.31.75c3.89-.01 7.63 1.31 11.54 1.1l-.61-.77c1.64-.08 3.28-.2 4.93-.33 1.29-.55 2.6-1.04 3.9-1.59 1.1-.55 2.19-1.13 3.43-1.35l.22-1.12c.36.06 1.07.19 1.42.25a4.068 4.068 0 0 1 2.06-2.36c.24-.25.71-.75.94-.99.54-.85 1.23-1.54 2.1-2.05 1.23-2.7 2.94-5.17 4.09-7.92 3.23-9.04 2.56-18.78.94-28.05l-.65.56c-.36-1.8-.99-3.52-1.3-5.32l-.95.26v-1.91l-.69-.38c-.9-1.28-1.74-2.6-2.49-3.96l-.85.22.29-1.25-.89.29-1.32-1.28.17-.47c-1.05-.65-2.06-1.34-3.07-2.04-1.9-1.02-3.74-2.3-5.93-2.6l.04-.64c-1.43-.07-2.86-.14-4.28-.22l.43-.78c-3.1.08-6.2.08-9.29-.04zm86.13-7.9c6.01-.48 12.06-.42 18.08-.02l-.45.64c3.2-.17 6.27.81 9.39 1.39l-.18.89c.57-.11 1.71-.34 2.28-.46-.01 2.17-.14 4.32-.28 6.48l-1.01-.19c.14.6.42 1.8.56 2.39-1.19-.13-2.38-.27-3.55-.4l.24-.76c-1.43-.06-2.86-.13-4.27-.21l.32-.78c-2.15-.02-4.26-.17-6.39-.26l.36-.79c-5.17-.29-10.21.68-15.32 1.07l.1.73c-.67.06-2.02.19-2.7.26a47.052 47.052 0 0 0-10.19 6.12c-.19.24-.57.71-.76.95-.47.92-1.14 1.63-2.01 2.14-1.04 2.59-3.28 4.65-3.52 7.56l-.64-.14c-.06.86-.18 2.59-.23 3.45l-.77-.57c-.03 1.91-.13 3.83-.21 5.74l-.81-.83c.11 3.9.12 7.81 0 11.71l.72-.51c-.14 3.29 1.02 6.39 1.49 9.6l1.05-.36c-.13.38-.4 1.14-.53 1.52 1.05 1.28 2.27 2.65 2.19 4.45l.61.02c1.96 2.92 4.5 5.45 7.47 7.35l-.18.78c.37-.06 1.11-.19 1.48-.26.98.71 1.97 1.43 2.95 2.15.42-.1 1.24-.29 1.65-.39l-.29 1.18c1.46.08 2.93.18 4.4.29l-.39.73c6.11.47 12.25.27 18.36.09l1.3 1.24-.79-2.04c1.14-.07 3.43-.23 4.58-.3l-.26-.75c1.5-.12 3.02-.24 4.54-.34.44 2.65.71 5.34.79 8.03-2.49.83-5.05 1.47-7.69 1.49l.74.64c-2.14.14-4.27.3-6.4.24l.06.72c-4.66.17-9.32.2-13.98-.01l.15-.69c-1.8-.02-3.57-.09-5.35-.17l.42-.78c-2.14.01-4.16-.65-6.19-1.24l-.03-.99c-.54.08-1.6.24-2.13.32l.17-1.02c-1.5-.13-2.81-.82-4.13-1.44l.11-.69c-1.55-.07-2.63-1.03-3.32-2.33l-.78.39.21-1.26-1.26.33.16-.88a4.944 4.944 0 0 1-2.42-2.09c-.21-.24-.61-.72-.82-.96-1.25-2.08-3.27-3.68-3.99-6.07-1.08-1.62-2-3.4-1.98-5.4l-.83.2c-.03-.83-.08-2.5-.11-3.33l-.72.35c-1.46-7.28-1.65-14.7-.98-22.1l.58.1c.09-2.67 1.02-5.21 1.11-7.87l.78 2.53c-.21-1.99.23-3.76 1.31-5.33-.04-.3-.13-.9-.18-1.2l1-.2c.26-2.49 2.45-4.07 3.48-6.23l.37.22c2.58-4.18 6.85-7.55 11.4-9.28l.21-1.02c.3.07.9.2 1.2.27 1.13-.9 2.45-1.36 3.98-1.37l-.69-.56c2.43-.51 4.84-1.22 7.35-1.3l.01-.58zm44.91-.38c3.65.06 7.32.06 10.98.01-.21 12.51.1 25.04-.16 37.55l1.86-.42c.96-2.04 2.68-3.54 4.18-5.17l.84-1.04c1.76-2.57 4.18-4.57 6.03-7.06.48-.84 1.12-1.52 1.95-2.04.84-1.79 2.75-2.73 3.57-4.55l.73-.22-.06-1.07.67.3c1.35-2.43 3.36-4.37 5.32-6.3.18-.25.55-.75.73-.99 1.53-2.19 3.37-4.13 5.23-6.05.18-.27.54-.8.73-1.07.32-.42.96-1.27 1.29-1.69 4.54-.39 9.12.02 13.69-.22-1.97 1.66-3.77 3.49-5.26 5.57-.53.8-1.19 1.48-1.97 2.02-1.23 1.78-2.63 3.46-4.31 4.84l-.72 1c-1.51 2.64-4.32 4.25-5.64 6.99l-.68-.35.1 1.1-.74.24c-1.48 2.65-4.37 4.24-5.58 7.01l-.45-.23c-.38 1.05-1.04 1.86-1.99 2.41a23.956 23.956 0 0 1-4.37 4.89l.1.91-1.22-.26.53 1.28-1.41-.43.38 1.32-4.3.27 3.38.76c.24.51.7 1.53.93 2.04l.9-.4-.4 1.35 1.27-.25-.28 1.2.84-.17c1.4 2.62 4.02 4.28 5.76 6.68a7.1 7.1 0 0 1 1.95 2.46l.76-.15-.12 1.2 1.2-.05-.41 1.07.9-.28c1.54 3.09 4.75 4.94 6.66 7.81.9.6 1.56 1.4 1.97 2.42l.54-.2c.29.34.85 1.01 1.13 1.35l-.16.48c2.29 2.19 4.54 4.46 6.52 6.95.9.6 1.56 1.41 1.99 2.43l.61-.22.13 1.04.93.3-.23.59c1.05.76 2.13 1.53 3.21 2.28-4.75.03-9.51.26-14.25-.04-.3-.4-.91-1.18-1.21-1.58a5.468 5.468 0 0 1-2-2.48l-.76.24.28-1.2-1.15.05.22-.71a24.829 24.829 0 0 1-4.52-4.92c-.8-.58-1.49-1.27-2.06-2.07-.18-.36-.53-1.08-.71-1.43l-.55.24c-1.04-2.32-3.46-3.56-4.67-5.78a8.549 8.549 0 0 1-2.04-2.03c-.19-.27-.55-.81-.74-1.08-1.46-1.57-3.13-2.97-4.16-4.88-1.03-.51-1.74-1.32-2.12-2.42l-.72.24.19-1.13-.81-.08c-1.43-2.65-4.31-4.14-5.59-6.9l-1.84-.44c.26 12.83-.03 25.67.15 38.51-3.66-.05-7.31-.05-10.96 0 .09-26.45.11-52.9-.01-79.35zm98.67.28c5.82-.32 11.65-.32 17.46.08l-.36.71c1.73 0 3.48.07 5.24.13l-.05.84c1.38.05 2.76.11 4.16.18l-.23 1.04c.59-.1 1.76-.31 2.35-.41-.07 2.15-.21 4.3-.35 6.45l-.97-.19c.14.6.4 1.8.54 2.4-1.22-.15-2.43-.28-3.63-.42l.46-.73c-1.49-.07-2.98-.15-4.45-.24l.43-.76c-2.21-.02-4.38-.19-6.56-.3l.61-.74c-3.03.09-6.05.04-9.07.14-2.04.79-4.25.86-6.39.91l.14.66c-.66.1-1.98.31-2.65.41-1.16.52-2.37.88-3.61 1.08l.47.65c-2.64.05-4.03 2.62-6.38 3.42l.19 1.08-1.37-.57.54 1.23-1.3-.25.37 1.3-.82-.3a41.41 41.41 0 0 1-2.12 3.21c-1.21 1.98-2.04 4.16-3.16 6.18-.07.71-.19 2.15-.26 2.86l-.75-.38c-.05 2.11-.22 4.2-.31 6.3l-.7-.25c.08 3.5.08 6.99-.01 10.48l.71-.49c.1 2.13.28 4.26.29 6.39l.84-.33c.05.87.17 2.62.22 3.49l.8-.36c-.36 2.29 1.94 3.6 2.04 5.72 2.55 2.68 4.8 5.72 8.03 7.65l-.12.47c1.7.19 3.22 1.04 4.48 2.19.39-.08 1.17-.23 1.56-.31l-.14 1.14c1.41.07 2.83.16 4.26.25l-.33.75c6 .2 12.08.81 18.04-.24 1.77-.47 3.57-.76 5.43-.8l-.36-.72c1.52-.12 3.05-.23 4.58-.33.45 2.73.73 5.48.81 8.25-.89.04-2.69.13-3.58.17l.51.85c-1.54.06-3.06.1-4.57.14l.64.73c-2.54.21-5.09.35-7.62.25l.7.77c-4.45.13-8.9.13-13.34-.06l.13-.63c-3.32-.03-6.76-.42-9.63-2.2-.37.07-1.11.22-1.48.29l.07-1.03c-2.32-.12-4.16-1.58-6.17-2.51l.1-.69c-1.5.12-2.54-.75-3.22-1.98-.25-.19-.77-.57-1.02-.75-1.31-.8-2.47-1.81-3.13-3.21l-.76-.12.05-.78c-1.77-1.65-3.34-3.66-4.12-5.97-1.32-1.52-1.92-3.5-2.08-5.48l-.78.35c-.03-.88-.1-2.64-.13-3.53l-.8.6c-.09-1.87-.21-3.75-.23-5.63l-.74.77c-.31-5.81-.36-11.65.09-17.46l.66.3c.01-3.73 1.06-7.57 3.16-10.67-.05-.33-.16-1-.22-1.33l1.28-.19c-.02-.36-.08-1.08-.11-1.43 2.87-3.92 5.6-8.13 9.77-10.81 1.15-1.12 2.68-1.73 3.85-2.84.36.03 1.08.1 1.44.13l.2-1.28 1.32.2c1.87-1.57 4.27-2.18 6.68-2.2l-.34-.79c1.84-.06 3.67-.14 5.53-.16l-.71-.74zm44.31-.28c3.65.06 7.32.06 10.98.01-.16 11.47.01 22.95-.09 34.42 2.16-.03 4.32-.04 6.5-.06l-.67 2.29 1.41-1.73 3.59.18-2.63-.94c3.09.3 6.2.28 9.31.16l-.74.76 3.65-.08-.45-.85c.93.04 2.79.1 3.72.14l-1.36.9 2.58-.31.94-1.49.24 1.67c2.67-.1 5.35-.1 8.04-.01l.51-1.75.46 1.73c1.73-.02 3.46-.01 5.21.04l-.27-1.01 1.09.36c-.28-11.49.07-22.98-.18-34.46 3.48.11 6.98.12 10.47-.03-.15 26.49-.13 52.98-.01 79.48-3.49-.15-6.97-.14-10.45-.03.21-12.04-.07-24.08.14-36.12-13.68.21-27.38.14-41.07.04.03 12.01-.07 24.02.05 36.04-3.66-.05-7.31-.06-10.96 0 .09-26.45.12-52.9-.01-79.35zm107.21.06c3.75-.02 7.52-.03 11.28 0 .37 1.7.62 3.42.83 5.16l1.29-1.44c-.15.48-.44 1.43-.58 1.91.79 1.06 1.21 2.26 1.26 3.61l1.04-.03c-.07.36-.2 1.07-.26 1.43a7.335 7.335 0 0 1 1.27 3.61l.96-.06c-.06.36-.17 1.09-.23 1.46a8.068 8.068 0 0 1 1.27 3.6l.91-.09c-.03.37-.1 1.1-.13 1.46.64 1.15 1.06 2.39 1.26 3.71l.62-.19c.43 1.74.96 3.46 1.35 5.22l.64-.21c.41 1.73.97 3.42 1.34 5.17l.64-.18c.39 1.73.99 3.41 1.36 5.16l.64-.13c.41 1.72.98 3.4 1.35 5.14l.62-.15c.42 1.71 1 3.38 1.38 5.11l.57-.12c.44 1.71 1.06 3.36 1.38 5.1l.64-.06c.45 1.7 1.02 3.38 1.41 5.11l.56-.19c.38 1.59.9 3.15 1.49 4.69.63 1.11.96 2.33.98 3.65l1.16-.41c-.13.39-.39 1.19-.52 1.59 1.01.98 1.46 2.25 1.37 3.79l1.15-.35c-.13.39-.38 1.16-.5 1.54 1.06 1.29 1.52 2.84 1.38 4.65l.8-1.69.12 2.8c-3.63-.18-7.25-.13-10.86-.1-.25-.94-.5-1.87-.73-2.8-.51-1.12-.85-2.29-1.01-3.51l-.55.21c-.39-1.59-.9-3.13-1.49-4.64-.49-1.12-.81-2.28-.95-3.49l-.58.11c-.43-1.69-1.08-3.32-1.32-5.06-12.65-.03-25.3.05-37.94-.04l.07 1-.66.06c-.43 1.74-.98 3.43-1.29 5.19l-.76-.55-.28 3.5-.63-.37c-.41 1.82-1.05 3.59-1.22 5.45l-.85-.63-.28 3.48-1.05-.08c.1.53.3 1.59.4 2.11-4.13-.02-8.29.34-12.38-.32l1.77-.77c.19-1.25.6-2.42 1.23-3.52-.05-.35-.14-1.06-.19-1.42l.96.1c.3-1.75.91-3.42 1.34-5.13l.64.08c.11-1.32.54-2.52 1.28-3.61-.07-.36-.2-1.08-.27-1.44l1 .12c.09-1.33.5-2.55 1.23-3.66-.04-.34-.14-1.03-.19-1.38l.96-.11c.1-1.32.55-2.51 1.33-3.58-.13-.39-.4-1.17-.54-1.56l1.11.55a9.65 9.65 0 0 1 1.22-3.87c-.07-.61-.22-1.82-.3-2.42l1.24 2.79c-.38-2.05.01-3.86 1.16-5.43-.12-.56-.35-1.68-.47-2.25l1.29 2.25c-.3-1.93.1-3.6 1.22-5.01-.07-.38-.21-1.13-.29-1.51l1.05.17c-.08-1.43.35-2.64 1.3-3.64-.12-.39-.36-1.17-.47-1.56l1.13.31c.03-1.3.36-2.5.99-3.6a49.26 49.26 0 0 0 1.48-4.6l.64.03c.26-1.72.91-3.34 1.37-5.01h.62c.27-1.73.9-3.36 1.37-5.03l.57.08c.36-1.72.93-3.37 1.38-5.06l.66.05c.28-1.74.92-3.4 1.37-5.1l.58.14c.33-1.81.97-3.53 1.49-5.29m4.55 10.77l.83 1.48-1.35-.51c-.06.88-.19 2.63-.25 3.51l-.68-.34c-.19 1.24-.5 2.44-.94 3.61-.62 1.55-1.17 3.13-1.5 4.77l-.52-.48c-.12 1.3-.44 2.53-.96 3.71-.66 1.52-1.16 3.11-1.37 4.75l-.81-.46c-.05.87-.16 2.61-.21 3.48l-.65-.46c-.21 1.27-.53 2.5-.98 3.7-.61 1.51-1.17 3.05-1.49 4.65l-.58-.2c-.04 1.35-.45 2.57-1.23 3.64.08.46.26 1.36.34 1.81l-1.22-.57c-.09 1.73-.24 3.45-.45 5.16 1.07-.02 3.21-.06 4.28-.09l1.11 1.98-.4-2.53c.86-.04 2.59-.1 3.45-.13l-.4.79c2.25.27 5.94-1.54 6.61 1.95l-.76-2.64c1.21 0 3.62 0 4.83-.01l-.81.77c1.85-.14 3.72-.18 5.6-.12l-.44-.7c.83.01 2.49.04 3.32.05l.3 3.35.74-3.8 1.56 1.84-.6-2.44 1.74 2.6.09-3.88-.95.11c-.06-1.12-.16-3.35-.22-4.46l-.97 2.14c.12-1.86-.34-3.67-1.21-5.29-.44-1.15-.73-2.32-.88-3.54l-.55.2c-.37-1.58-.91-3.12-1.49-4.63a15.1 15.1 0 0 1-.95-3.56l-.74.24c-.04-1.23-.14-3.68-.19-4.91l-1.09 2.62c.26-1.9-.21-3.76-1.11-5.43-.46-1.14-.75-2.32-.88-3.54l-.56.23c-.35-1.6-.89-3.15-1.5-4.66-.46-1.14-.77-2.33-.93-3.55-.5-.05-1.48-.16-1.98-.21zm51.97-10.89c3.49.15 7 .15 10.51.02-.15 26.48-.13 52.96-.01 79.44-3.5-.13-7-.14-10.49.02.12-26.49.15-52.99-.01-79.48zm30.37.08c3.55.03 7.1.04 10.66 0 .9 1.37 1.81 2.74 2.57 4.2l.99.16c-.08.36-.24 1.09-.32 1.46 2.31.86 3.15 3.43 4.3 5.39l1.03.18c-.08.36-.26 1.1-.35 1.46 2.81.79 2.89 4.4 5.28 5.81-.07.3-.21.9-.29 1.2 2.4.73 3.1 3.46 4.34 5.36l1.02.13c-.09.38-.28 1.15-.37 1.53 2.81.76 2.92 4.39 5.31 5.81-.08.31-.25.91-.34 1.21 2.36.57 2.99 3.26 4.23 5.03 1.17.75 1.96 1.91 2.01 3.33l.59-.22c.82 1.26 1.63 2.55 2.41 3.85 1.12.82 1.85 1.96 2.04 3.37l.57-.19c.79 1.26 1.59 2.53 2.38 3.81 1.06.87 1.9 1.95 2.06 3.38l.56-.18c1.72 1.96 2.07 5.29 5.07 5.61-.14-20.59.1-41.18-.12-61.77 3.18.15 6.38.15 9.58 0-.15 26.49-.13 52.98-.01 79.47-3.48-.14-6.96-.11-10.44-.06l.29-.86c-1.31-.73-2.1-1.92-2.34-3.38l-1.02.1c.05-.41.14-1.23.19-1.64-2.22-.92-3.23-3.4-4.21-5.43l-.93.05c.03-.4.08-1.2.11-1.6-2.2-.95-3.16-3.48-4.21-5.46l-1.1-.08c.12-.39.37-1.18.49-1.58-2.5-.56-3.21-3.38-4.36-5.29l-.51.02c-1.29-2.51-3.49-4.43-4.52-7.07l-1.05-.12c.1-.37.28-1.11.38-1.48-2.41-.74-3.15-3.47-4.35-5.39l-1.03-.14c.1-.37.29-1.12.39-1.5-2.87-.73-2.93-4.4-5.32-5.82.09-.3.26-.9.35-1.19-2.48-.6-3.09-3.44-4.35-5.3l-.52.1a6.726 6.726 0 0 1-1.35-3.11l-.61.13c-.83-1.27-1.67-2.51-2.48-3.78-.28-.39-.83-1.17-1.11-1.56-.38-.02-1.13-.07-1.51-.1.13 20.51-.09 41.03.11 61.54-3.4-.13-6.8-.12-10.19-.07.09-26.44.1-52.88 0-79.32zm-592.3 148.29c3.42-.27 6.85-.38 10.29-.26l.42-1.76.46 1.76c3.8.06 7.77-.46 11.41.9 1.26.15 2.53.25 3.81.3l-.38.87c.86-.02 2.59-.05 3.46-.07l-.47 1.16c.6-.1 1.8-.28 2.39-.38-.13 1.12-.26 2.24-.37 3.36l-.61-.12c-.13 1.81-.29 3.63-.45 5.44-1.91-.7-3.89-1.24-5.9-1.53l.36-.64c-1.83-.04-3.65-.15-5.47-.24l.64-.74c-4.71.03-9.43-.27-14.12.12-1.77.63-3.66.84-5.51.95l.39.72c-1.15.06-3.43.19-4.58.25l2.06 1.33c-.56-.13-1.67-.38-2.23-.51-.6.31-1.81.93-2.41 1.24l-.1 1.08c-.41-.1-1.23-.3-1.64-.41-.15 1.32-.92 2.14-2.29 2.45l.2.72-1.21-.03.1 1.2-.64-.31c-.39 1.23-1.19 2.03-2.4 2.4.06.36.2 1.08.26 1.44l-1.09.2c-.32 2.17-2.32 3.78-2.06 6.09l-.94-.29c-.05 1.41-.11 2.82-.17 4.23l-.84-.09c-.33 6.47-.32 12.94.01 19.42l.58-.64c.31 2.04.9 4.03 1.44 6.02.84 1.21 1.59 2.5 2.06 3.91l1.12 1.92c.9.61 1.56 1.43 2 2.45l.48-.17c.32.32.96.98 1.29 1.3l-.14.5c1.25.34 2.03 1.14 2.34 2.37.38-.08 1.14-.23 1.52-.31l.15 1.02c.6.31 1.81.93 2.41 1.24.37-.04 1.09-.12 1.46-.15l-.01.91c1.24.1 2.41.46 3.5 1.06 1.29.13 2.58.25 3.88.36l-.59.69c5.19.1 10.37.09 15.56.01l-.31-.71c1.74-.12 3.5-.23 5.26-.27l-.23-.79c1.83-.17 3.66-.25 5.5-.26l-2.11-1.36 2.49.64c.13 1.67.27 3.33.38 5.01l.57-.1c.17 1.15.35 2.3.55 3.45l-.77-.39c-1.36 1-3.07 1.09-4.68 1.15l.29.8c-1.43.04-2.84.07-4.25.11l.07.7c-6.15.53-12.32.43-18.47.31-3.64-.02-7.01-1.53-10.52-2.28l.05-.93c-.55.11-1.64.32-2.19.43l.42-1.08c-1.59-.1-3.02-.77-4.41-1.45l.17-.71a6.692 6.692 0 0 1-3.21-1.31l.23-.44c-2.66-1.48-4.93-3.72-6.39-6.39l-.41.15c-1.02-2.03-2.76-3.67-3.42-5.87a17.7 17.7 0 0 1-2.15-4.85c-.68-1.45-.89-3.04-.84-4.61l-.75.38c-.69-5.81-1.45-11.6-.98-17.48l.72.65c0-2.17.1-4.33.22-6.49l.73.31c.07-2.15.69-4.2 1.2-6.28l.73.34c.17-1.22.49-2.4.96-3.53 1.1-1.98 2.41-3.83 3.59-5.76l.41.06c1.48-2.63 3.73-4.82 6.33-6.35l-.1-.43c.93-.71 1.97-1.16 3.13-1.36l.07-1.14c.51.09 1.54.28 2.05.37l-.31-1.34c.55.06 1.65.19 2.21.25v-1.31c.38.07 1.14.2 1.52.27 1-.94 2.23-1.34 3.68-1.22l-.39-.73c1.49-.07 2.98-.13 4.48-.17l-.55-.73zm70.98 6.04c0-1.49.65-2.82 1.31-4.1 3.39.17 6.8.13 10.2.03l-.25 1.13 1.5-.17c-.15.36-.46 1.06-.61 1.42 1.36 1.42 1.8 3.22 1.32 5.4l1.23-2.68c-.09.6-.26 1.8-.34 2.4 1.02 1.36 1.4 2.96 1.12 4.79l1.33-2.01c-.13.54-.4 1.62-.53 2.16a6.91 6.91 0 0 1 1.27 3.63l1-.12c-.08.38-.25 1.15-.33 1.54 1.17 1.48 1.76 3.29 2.34 5.07.51 1.11.84 2.28.99 3.52l.98-.08c-.06.35-.18 1.04-.23 1.38.68 1.15 1.12 2.4 1.3 3.74l.63-.21c.4 1.74.94 3.45 1.32 5.21l.96-.16c-.06.35-.16 1.06-.21 1.41.64 1.16 1.07 2.39 1.29 3.71l.6-.13c.43 1.72.99 3.41 1.36 5.16l.61-.19c.42 1.71 1 3.39 1.37 5.12l.62-.08c.44 1.69 1.01 3.36 1.38 5.07l.6-.06c.46 1.68 1.02 3.34 1.38 5.05l.58-.04c.46 1.66 1.09 3.29 1.38 5.01h.59c.44 1.55.98 3.06 1.5 4.59.68 1.09 1.01 2.31 1.01 3.66l1.19-.41c-.15.4-.44 1.22-.59 1.63.86 1.26 1.67 2.56 2.67 3.73-4.08.02-8.24-.51-12.25.45l.73-1.13a6.034 6.034 0 0 1-1.38-3.73l-.56.17c-.39-1.58-.92-3.11-1.46-4.63-.86-1.63-1.18-3.41-.96-5.32l-1.22 2.76c.08-.6.25-1.8.33-2.4-.52-1.16-.91-2.35-1.19-3.58l-.92-.06c.15-.41.43-1.23.57-1.64-12.72.04-25.45.14-38.18-.05-.27 1.71-.81 3.36-1.22 5.04l-.56-.48c-.1 1.3-.41 2.53-.94 3.69-.75 1.68-1.41 3.48-1.14 5.36l-1-2.23c-.07 1.15-.21 3.45-.27 4.6l-.8-.33c-.1.86-.31 2.58-.41 3.44-3.84 0-7.68-.02-11.51.06.25-.61.76-1.81 1.02-2.42l.43.38c.34-1.77.91-3.47 1.33-5.22l.64.2c.35-1.75.94-3.44 1.36-5.17l.64.17c.32-1.76.93-3.44 1.35-5.16l.64.08c.14-1.33.58-2.55 1.3-3.66-.08-.38-.24-1.12-.32-1.5l.97.3c.17-1.35.6-2.61 1.28-3.77-.03-.36-.11-1.09-.14-1.45l.93.06c.15-1.2.47-2.35.97-3.45.66-1.73 1.06-3.62 2.36-5.03-.08-.37-.22-1.12-.29-1.5l.96-.16c.11-1.28.54-2.44 1.29-3.49-.13-.47-.41-1.4-.55-1.87l1.22 1.23c-.16-1.72.3-3.17 1.39-4.35l-.64-1.84 1.25 1.11c-.14-1.66.31-3.08 1.35-4.24-.11-.38-.34-1.15-.45-1.53l1.12.25c-.07-1.49.38-2.73 1.37-3.74l-.52-1.51 1.18.24c-.13-1.48.3-2.69 1.3-3.65-.09-.39-.28-1.15-.37-1.54l1.11.05c-.19-1.47.24-2.66 1.27-3.57-.12-.42-.36-1.24-.48-1.65l1.15.45c-.05-1.36.29-2.58 1.01-3.66.51-1.54 1.04-3.07 1.46-4.63l.61.13m5.39 6.65c-.04.81-.11 2.42-.15 3.23l-.72-.2c-.37 1.79-.91 3.53-1.24 5.33l-.9-.45-.08 3.35-.78-.25c-.14 1.23-.45 2.41-.92 3.55-.64 1.55-1.15 3.15-1.44 4.8l-.72-.51c-.06.84-.17 2.52-.23 3.36l-.7-.17c-.17 1.2-.47 2.37-.91 3.5-.65 1.51-1.17 3.07-1.52 4.67l-.53-.19c-.18 1.23-.49 2.41-.94 3.56-.66 1.53-1.18 3.11-1.47 4.75l-.68-.44c-.08.82-.26 2.44-.34 3.25 11.14-.21 22.28.06 33.43-.14l-3.19-.99c-.1-.8-.32-2.38-.43-3.18l-.7.54c-.21-1.66-.73-3.25-1.37-4.79a10.8 10.8 0 0 1-.98-5.37l-.86 2.8c.11-1.89-.32-3.74-1.14-5.43-.46-1.16-.77-2.37-.94-3.6l-.7.3c-.05-.85-.14-2.56-.19-3.42l-.83.47c-.33-1.79-.86-3.53-1.28-5.3l-.64.21c-.06-.84-.19-2.51-.25-3.35l-.69.44c-.35-1.62-.87-3.2-1.44-4.75-.51-1.14-.84-2.32-.99-3.56l-.87.11.32-1.92-1.99-.21zm52.12-9.61l-.67-1.1c7.6.13 15.19.04 22.78.06l-.81.67c2.53-.04 5.07.08 7.61.25l-.39.73c1.58.02 3.22.1 4.67.87.45.28 1.37.83 1.83 1.11 3.25.31 5.61 2.94 7.89 5.01 1.79 2.1 4.1 4.31 3.98 7.3l.87-.17c.06 1.96.09 3.92.09 5.9l.7-1.89c.02 2.11.05 4.23.08 6.35l-.71-.65c-.15 1.95.38 4.28-1.16 5.84l.28 1.4-1.35.1.2 1.49c-2.9 3.35-5.74 7.52-10.19 8.78l-.16 1.01c-.35-.07-1.05-.2-1.4-.27-1.76 1.75-4.29 2.16-6.65 2.26l.4.76c-1.83.07-3.68.14-5.5.16l.64.74c-4.44.2-8.89.31-13.33.14.18 10.41-.09 20.82.15 31.22-3.67-.08-7.33-.07-10.99-.02.08-5.1.12-10.19-.02-15.29l6.6-.45-6.56-.44-.04-4.37.77.59c-.01-.89-.04-2.68-.06-3.57l-.8.5-.32-4.78 1.09 3.17.07-4.75-1.74 1.93c.54-.92 1.63-2.76 2.17-3.67l-1.17.01c.05-2.38.06-4.76.02-7.14l1.05 3.05-.44-4.26-.68.45c.05-7.08.55-14.18-.03-21.26l5.62-.46-5.53-.46c0-.76-.01-2.3-.01-3.07l.72.03v-5.54l-.93 2.57.28-5.09 5.41-.44-5.47-.45c.02-1.79.03-3.58.02-5.37l1.12.51m9.72 7.66c.06 10.35.06 20.71 0 31.07 3.38-.16 6.77-.15 10.17-.02l-.22-.68c2.97-.15 6.03-.49 8.63-2.06 1.67-.2 2.7-1.71 4.16-2.4.33-.24.98-.73 1.3-.97l-.03-.76 1.08.05-.27-1.19.94.21c.47-1.36 1.02-2.7 1.38-4.09l.73.19c.11-2.98.2-5.96.02-8.94-.83-1.27-1.5-2.63-2.03-4.04-.25-.21-.74-.65-.98-.86l-1.15-1.47-.88.23.25-.88c-1.32-.47-2.62-1.01-3.94-1.46l.03-.63c-.84-.06-2.51-.19-3.34-.25l.39-.76c-5.41-.16-10.83-.35-16.24-.29zm50.81 70.93c.04-26.56.04-53.13 0-79.69 3.47.09 6.95.1 10.44 0-.01 26.41-.15 52.82.07 79.23-2.54-.12-5.08-.11-7.6-.25l.58.76c-.87-.02-2.62-.04-3.49-.05zm23.97-79.69c19.12.12 38.24.08 57.36.02-.04 2.97-.04 5.95.02 8.93-7.82-.17-15.63.04-23.44-.12l.36 1.06-.94-.12c.11 3.41.1 6.82.01 10.24l1.8.38-1.8.47c.11 12.71.1 25.43 0 38.14l1.82.39-1.82.47c.19 6.45-.08 12.91.17 19.36-3.5-.15-6.99-.14-10.47-.04.25-23.44-.04-46.89.15-70.33-7.75.13-15.5-.09-23.24.12.06-2.99.05-5.98.02-8.97zm95.27 1.93c-.08-.46-.23-1.4-.31-1.86 3.72-.01 7.44 0 11.17-.02.08.79.24 2.36.31 3.15l1.18-.31c-.1.37-.29 1.12-.39 1.5.8 1.06 1.23 2.27 1.3 3.62l.95-.07c-.04.36-.13 1.09-.17 1.46.68 1.13 1.1 2.35 1.28 3.67l.98-.09c-.07.34-.23 1.03-.31 1.37.7 1.15 1.15 2.41 1.33 3.77l.98-.15c-.08.34-.23 1.03-.31 1.38.7 1.15 1.15 2.41 1.32 3.77l.62-.2c.41 1.73.96 3.44 1.35 5.18l.63-.18c.41 1.72.97 3.41 1.35 5.15l.61-.17c.43 1.72 1.01 3.41 1.38 5.15l.63-.1c.43 1.7 1.01 3.37 1.37 5.09l.58-.1c.43 1.69 1.04 3.34 1.38 5.06l.59-.04c.47 1.67 1.11 3.29 1.38 5.02h.63c.39 1.54.92 3.05 1.48 4.56.61 1.02.93 2.16.96 3.4l1.06.01c-.08.38-.25 1.15-.33 1.53.96.98 1.39 2.2 1.28 3.67l1.15-.29c-.12.39-.35 1.18-.47 1.57 1 1.04 1.45 2.32 1.37 3.86l1.16-.51c-.12.38-.36 1.15-.49 1.53 1.17 1.6 1.57 3.43 1.22 5.51l1.26-2.8c-.12.68-.36 2.04-.49 2.72.46.3 1.37.92 1.82 1.22-2.08.34-4.69-.6-6.33 1.06-1.52-1.65-3.88-.76-5.8-.87.07-.6.2-1.8.26-2.39l-1.32.1c.08-.35.23-1.05.31-1.4a9.243 9.243 0 0 1-1.27-3.74l-.52.21c-.39-1.58-.91-3.12-1.51-4.63-.46-1.13-.78-2.31-.95-3.52l-.75.22-.12-3.45-1.6.79 1.16-1.3c-12.79.07-25.59.24-38.36-.09 0 .76.01 2.28.01 3.04l-.71-.28c-.19 1.36-.62 2.63-1.32 3.8.12.39.36 1.16.47 1.55l-1.26-.59c-.05.88-.17 2.63-.23 3.5l-.69-.26a9.961 9.961 0 0 1-1.19 3.72l.2 1.55-1.14-.3c-.06.86-.17 2.58-.23 3.44-3.92-.02-7.83.01-11.75-.02 1.21-1.09 1.86-2.55 1.74-4.19l.75.16c.3-1.75.91-3.42 1.36-5.13l.67.05c.12-1.2.45-2.35.97-3.44.57-1.7 1.12-3.42 2.11-4.93.39-1.87.99-3.75 2.3-5.19-.16-.44-.49-1.33-.66-1.77l1.19.87c-.03-1.52.39-2.86 1.26-4.03-.11-.6-.32-1.8-.42-2.4l1.31 2.72c-.42-2.07-.04-3.88 1.15-5.41-.13-.55-.38-1.66-.51-2.22l1.33 2.15c-.38-1.98.05-3.64 1.31-4.97-.15-.4-.44-1.2-.59-1.6l1.31.53.28-3.43 1.06.1c-.12-.53-.36-1.57-.48-2.09l1.08.19c.01-1.28.34-2.46.97-3.54.54-1.5 1.07-3.01 1.48-4.56l.63.02c.22-1.74.89-3.37 1.38-5.04l.55.07c.35-1.72.94-3.37 1.4-5.06l.64.04c.29-1.74.93-3.39 1.36-5.09l.58.16c.36-1.75.94-3.43 1.4-5.14l.6.13c.34-1.73.92-3.4 1.38-5.1l.96-.03m4.38 3.79c.14 3.82-.29 7.62-1.56 11.22l-.58-.22c-.14 1.22-.43 2.39-.87 3.53-.85 1.61-1.29 3.4-1.25 5.22l-.94-1.93c-.05 1.1-.16 3.29-.21 4.38l-.74-.16c-.18 1.21-.49 2.39-.93 3.54-.6 1.5-1.14 3.03-1.48 4.61l-.56-.16c-.16 1.21-.46 2.39-.91 3.53-.69 1.52-1.21 3.11-1.43 4.77l-.77-.46c-.06.83-.16 2.51-.22 3.35l-.75-.19c-.15 1.79-.77 3.47-1.45 5.11 12.47-.32 24.96.27 37.42-.38-4.64 1.53-7.15.47-7.54-3.2-.81-1.7-1.15-3.52-1.02-5.45l-.86 2.91c.13-1.9-.32-3.74-1.12-5.44-.47-1.17-.78-2.37-.95-3.61l-.73.29c-.04-1.09-.11-3.25-.14-4.33l-1.37 1.79c.12-.49.35-1.49.47-1.98-.62-1.17-1.04-2.4-1.26-3.7l-.61.2c-.1-1.27-.28-3.82-.38-5.09l-.87 2.79c.06-1.87-.41-3.67-1.13-5.36-.49-1.16-.82-2.36-.98-3.6l-.7.3c-.06-.97-.17-2.9-.23-3.87l-.86 1.22c-.01-.92-.04-2.75-.06-3.66-.41.05-1.25.17-1.66.23l-.77-6.2zm51.35-5.72c3.46.1 6.93.09 10.41 0-.1 23.65.09 47.3-.1 70.95 11.06-.17 22.12.1 33.18-.14-.08 2.97-.07 5.95-.04 8.93-.66-.01-1.98-.05-2.64-.07l.8-.78c-6.36.47-12.75.16-19.12.17-.44.23-1.32.71-1.76.94-3.15-1.49-7.85-1.45-11 0-2.83-1.96-6.59-.46-9.81-.78.22-26.41.07-52.82.08-79.22z" fill="#fff"/></svg>