<svg width="800" height="646pt" viewBox="0 0 600 646" xmlns="http://www.w3.org/2000/svg"><g fill="#e7f5fb"><path d="M299.99 0h.04C400 67.4 500.03 134.71 600 202.1v.65c-93.65 63.49-187.68 126.46-281.45 189.78-6.24 3.99-12.14 8.53-18.54 12.24-13.78-8.64-27.01-18.17-40.61-27.12C172.92 319.42 86.47 261.16 0 202.93v-.82C99.97 134.7 200 67.38 299.99 0m-86.97 160.89c-.04 8.74-.03 17.48 0 26.23.11 3.07 2.96 5.65 6.01 5.6 3.16.13 6.09-2.59 6.17-5.75.14-6.55-.04-13.1.09-19.65 24.92-16.86 49.82-33.76 74.79-50.54 24.98 16.79 49.87 33.71 74.81 50.55.14 6.58-.03 13.16.08 19.75.11 3.06 2.93 5.68 5.98 5.63 3.15.16 6.09-2.52 6.21-5.67.05-8.71.04-17.42 0-26.13-28.96-19.73-58.03-39.31-87.08-58.93-29.04 19.59-58.1 39.19-87.06 58.91m60.42 15.61c-8.4 8.39-12.27 20.97-10.07 32.64 2.54 15.16 15.44 27.65 30.56 30.07.01 14.96.01 29.93.01 44.89-22.9-15.46-45.8-30.92-68.66-46.43-.11-6.56.06-13.13-.08-19.69-.11-3.16-3.06-5.85-6.22-5.69-3.05-.04-5.87 2.58-5.96 5.64-.03 8.74-.04 17.47.01 26.2 28.97 19.67 57.98 39.34 87.04 58.85 29.08-19.51 58.11-39.19 87.09-58.87.04-8.72.05-17.43 0-26.15-.13-3.16-3.07-5.84-6.23-5.67-3.04-.03-5.83 2.56-5.96 5.6-.12 6.6.07 13.21-.09 19.81-22.91 15.48-45.81 30.95-68.7 46.45.02-14.97-.01-29.95.01-44.92 9.29-1.63 17.95-6.75 23.63-14.31 6.59-8.54 9.07-20.04 6.66-30.55-3.13-14.73-16.06-26.66-30.98-28.64-11.6-1.77-23.89 2.33-32.06 10.77z"/><path d="M293.4 178.47c13.86-4.31 29.7 6.01 31.43 20.39 2.63 14.38-10.1 29.31-24.8 28.37-13.15.75-25.04-11.23-24.97-24.26-.41-11.1 7.63-21.69 18.34-24.5z"/></g><g fill="#3660ac"><path d="M213.02 160.89c28.96-19.72 58.02-39.32 87.06-58.91 29.05 19.62 58.12 39.2 87.08 58.93.04 8.71.05 17.42 0 26.13-.12 3.15-3.06 5.83-6.21 5.67-3.05.05-5.87-2.57-5.98-5.63-.11-6.59.06-13.17-.08-19.75-24.94-16.84-49.83-33.76-74.81-50.55-24.97 16.78-49.87 33.68-74.79 50.54-.13 6.55.05 13.1-.09 19.65-.08 3.16-3.01 5.88-6.17 5.75-3.05.05-5.9-2.53-6.01-5.6-.03-8.75-.04-17.49 0-26.23z"/><path d="M273.44 176.5c8.17-8.44 20.46-12.54 32.06-10.77 14.92 1.98 27.85 13.91 30.98 28.64 2.41 10.51-.07 22.01-6.66 30.55-5.68 7.56-14.34 12.68-23.63 14.31-.02 14.97.01 29.95-.01 44.92 22.89-15.5 45.79-30.97 68.7-46.45.16-6.6-.03-13.21.09-19.81.13-3.04 2.92-5.63 5.96-5.6 3.16-.17 6.1 2.51 6.23 5.67.05 8.72.04 17.43 0 26.15-28.98 19.68-58.01 39.36-87.09 58.87-29.06-19.51-58.07-39.18-87.04-58.85-.05-8.73-.04-17.46-.01-26.2.09-3.06 2.91-5.68 5.96-5.64 3.16-.16 6.11 2.53 6.22 5.69.14 6.56-.03 13.13.08 19.69 22.86 15.51 45.76 30.97 68.66 46.43 0-14.96 0-29.93-.01-44.89-15.12-2.42-28.02-14.91-30.56-30.07-2.2-11.67 1.67-24.25 10.07-32.64m19.96 1.97c-10.71 2.81-18.75 13.4-18.34 24.5-.07 13.03 11.82 25.01 24.97 24.26 14.7.94 27.43-13.99 24.8-28.37-1.73-14.38-17.57-24.7-31.43-20.39zM0 312.69c10.47 6.55 20.5 13.78 30.83 20.55 71.1 47.85 142.15 95.77 213.25 143.61 17.63 12.16 35.65 23.74 53.22 35.97.82.53 1.69.98 2.61 1.35 3.06-1.04 5.44-3.37 8.12-5.07C405.4 443.63 502.63 377.96 600 312.5v47.95c-20.87 14.08-41.88 28.21-62.68 42.23C458.21 455.94 379.16 509.3 300 562.49c-79.16-53.18-158.2-106.55-237.32-159.81-20.8-14.02-41.81-28.14-62.68-42.23v-47.76z"/></g><g fill="#bad9f2"><path d="M0 202.93c86.47 58.23 172.92 116.49 259.4 174.72 13.6 8.95 26.83 18.48 40.61 27.12 6.4-3.71 12.3-8.25 18.54-12.24 93.77-63.32 187.8-126.29 281.45-189.78v64.6c-10.98 7.39-21.94 14.8-32.93 22.17C478.05 349.46 389.1 409.53 300 469.35c-89.1-59.82-178.05-119.89-267.07-179.83-10.99-7.37-21.96-14.78-32.93-22.17v-64.42z"/><path d="M61.9 401.98l.45.84c.09-.03.25-.1.33-.14C141.8 455.94 220.84 509.31 300 562.49c79.16-53.19 158.21-106.55 237.32-159.81.2-.17.6-.52.8-.69 20.61 13.92 41.25 27.79 61.88 41.69v.22c-99.19 66.82-198.38 133.63-297.57 200.45l-1.79 1.02c.01.16.01.47.02.63h-1.31c-.43-.41-1.31-1.22-1.74-1.62C198.44 577.54 99.21 510.8.08 443.91L0 445.02v-1.33c20.63-13.91 41.28-27.79 61.9-41.71z"/></g><path fill="#467bc8" d="M0 311.62c11-7.34 21.88-14.85 32.93-22.1C121.95 349.46 210.9 409.53 300 469.35c89.1-59.82 178.05-119.89 267.07-179.83 11.05 7.25 21.94 14.76 32.93 22.1v.88c-97.37 65.46-194.6 131.13-291.97 196.6-2.68 1.7-5.06 4.03-8.12 5.07-.92-.37-1.79-.82-2.61-1.35-17.57-12.23-35.59-23.81-53.22-35.97-71.1-47.84-142.15-95.76-213.25-143.61-10.33-6.77-20.36-14-30.83-20.55v-1.07z"/></svg>