<svg width="517pt" height="40pt" viewBox="0 0 517 40" xmlns="http://www.w3.org/2000/svg"><path d="M.84.64C10.57.63 20.3.65 30.03.63c2.94.09 6 .13 8.7 1.45 3.49 2.53 5.97 6.47 6.16 10.84-.45 4.57-3.02 8.88-7.2 10.95-1.89.34-3.7 1.17-5.65 1.13-8.27.01-16.54-.01-24.8 0-.04 4.95.07 9.89-.09 14.84-2.09 0-4.19 0-6.28-.01C.72 26.77.79 13.7.84.64m6.39 6.22V19c8.27-.01 16.53.03 24.8-.01 3.25.03 6.24-2.58 6.68-5.79.17-2.64-1.59-4.84-3.67-6.24-9.26-.34-18.54-.19-27.81-.1zM91.24 1c2.87 0 5.74.02 8.62-.04 2.64 3.93 4.48 8.32 6.88 12.4 4.35 8.88 9.51 17.36 13.62 26.36-2.28.11-4.56.12-6.84.16-1.75-2.86-3.12-5.93-4.78-8.85-8.53.19-17.06-.08-25.59.13-2.35 2.39-3.08 6.09-5.21 8.75-2.23-.07-4.46-.08-6.69-.16 3.53-8.02 8.21-15.48 12.02-23.37C85.96 11.27 88.96 6.31 91.24 1m4.37 5.72c-.61 1.32-1.22 2.63-1.85 3.93-2.79 4.71-5.07 9.7-7.89 14.39 6.49-.1 12.98.02 19.47-.07-3.02-6.19-5.97-12.47-9.73-18.25zM155.16 1h8.62c9.76 10.43 19.47 20.89 29.22 31.34 0-10.45.01-20.89-.01-31.34h6.59c-.15 12.94.28 25.9-.22 38.83-3.14-.42-7.25 1.27-9.48-1.72-6.3-7.01-12.95-13.7-19.16-20.79-2.98-2.93-5.81-6.02-8.7-9.04-.06 10.48.02 20.95-.04 31.43-2.29.15-4.6.28-6.84-.26.06-12.82.01-25.63.02-38.45zm79.41.01C249.09.99 263.62 1 278.14 1c-.02 1.91-.04 3.83-.11 5.74-6.05.09-12.1.02-18.15.04 0 1.92.02 3.83.06 5.75 4.02.02 8.03-.1 12.04.13.02 1.92.03 3.84.05 5.77-4.03.38-8.09.16-12.13.21-.02 6.93-.03 13.86.01 20.78-2.27.63-4.64.48-6.93.11.04-6.97.01-13.93.02-20.89-3.94-.01-7.89.01-11.83 0-.16-2-.21-4-.24-6.01 4.01-.17 8.04-.1 12.06-.1.01-1.92.01-3.83.01-5.75h-18.24c-.12-1.92-.16-3.85-.19-5.77zM313 1h41.02c-.02 1.91-.05 3.81-.09 5.72-11.31.13-22.62.03-33.93.06V17c7.45 0 14.89.01 22.34-.01.13 2 .18 4 .24 6-7.53.03-15.06 0-22.58.01v11h34.06c-.06 2-.13 4-.25 6h-40.38c-.4-1.96-.47-3.97-.46-5.96.06-11.01.02-22.03.03-33.04zm77.01-.29c10.61-.09 21.24-.16 31.85.02 4.97-.22 9.94 3.06 11.41 7.88 2.82 6.38-1.96 15.37-9.19 15.59 3.02 5.42 7.06 10.2 10.27 15.51-2.46.12-4.91.14-7.36.15-2.95-3.68-5.66-7.54-8.28-11.45-.83-1.09-1.61-2.2-2.34-3.35-6.51-.13-13.02-.03-19.53-.06 0 4.82-.03 9.64.02 14.45-2.26.55-4.58.4-6.86.24.01-12.99-.01-25.99.01-38.98m6.83 6.08c-.01 4.07-.01 8.14-.01 12.21 8.41-.04 16.83.07 25.24-.04 2.78-.2 4.67-2.27 5.95-4.56.74-3.66-2.13-7.79-6.03-7.58-8.38-.1-16.77-.01-25.15-.03zm91.41-5.74c2.8-.15 5.61-.02 8.42-.05 2.29 4.48 4.8 8.85 7.07 13.35 2.82 5.41 5.73 10.77 8.55 16.19 1.64 3.01 3.29 6.03 4.7 9.16-2.81-.26-7.42 1.65-8.31-2.29-1.14-2.04-2.16-4.15-3.21-6.24-8.73-.19-17.45.01-26.17-.11-1.44 2.95-2.97 5.85-4.57 8.71-2.35.07-4.69.08-7.03.03 3.01-6.61 6.81-12.82 10.02-19.33 3.6-6.41 6.61-13.23 10.53-19.42m.02 13.32c-1.87 3.52-3.93 6.95-5.51 10.62 6.48.02 12.95 0 19.43.01-3.34-6.02-6.48-12.15-9.59-18.3-1.72 2.39-2.93 5.08-4.33 7.67z" fill="#fff"/></svg>