<svg width="500pt" height="575pt" viewBox="0 0 500 575" xmlns="http://www.w3.org/2000/svg"><g fill="#3775b7"><path d="M249.47 0h.15c83.16 56.1 166.29 112.27 249.46 168.36.09 24.54.02 49.08.04 73.61.13 6.22-3.43 12.28-8.87 15.26-5.47 3.14-12.65 2.97-17.96-.43-5.03-3.08-8.22-8.88-8.15-14.78-.04-18.37 0-36.75-.02-55.12-71.49-48.31-143.03-96.55-214.54-144.84C178 90.3 106.48 138.62 34.94 186.92v50.04c.01 4.21.35 8.66-1.63 12.53-3.25 7.16-11.69 11.35-19.36 9.64C6.56 257.77.68 251.16 0 243.69V168.4C83.16 112.27 166.31 56.13 249.47 0z"/><path d="M184.42 203.34c19.68-15.21 44.79-23.12 69.63-21.98 27.07.98 53.5 12.85 72.29 32.34 18.5 18.87 29.54 44.86 30.01 71.3.69 24.33-7.48 48.75-22.59 67.83-16.28 20.84-40.54 35.28-66.68 39.48-.05 42.94 0 85.89-.02 128.83 65.69-44.34 131.39-88.66 197.06-133.02.05-18.72-.08-37.44.06-56.15.22-9.86 10.11-17.91 19.81-16.29 8.44.94 15.38 8.81 15.13 17.33-.02 24.55.07 49.11-.05 73.66C415.9 462.73 332.78 518.91 249.63 575h-.14C166.32 518.89 83.16 462.74 0 406.61v-75.25c.68-7.47 6.54-14.11 13.95-15.46 7.45-1.66 15.64 2.21 19.07 9.03 2.05 3.67 2.05 7.98 1.99 12.06-.02 17.05 0 34.09-.01 51.14 65.67 44.35 131.36 88.68 197.05 133 .01-42.93.03-85.87-.01-128.8-29.73-4.77-56.95-22.86-72.95-48.36-14.62-22.84-19.75-51.43-14.17-77.95 5.04-24.76 19.44-47.38 39.5-62.68m57.89 13.09c-25.71 2.34-49.26 19.78-59.07 43.65-6.92 16.34-7.34 35.31-1.14 51.95 5.06 13.81 14.56 25.92 26.68 34.24 12.02 8.31 26.62 12.8 41.23 12.65 15.98-.02 31.85-5.65 44.33-15.62 12.63-10 21.77-24.36 25.29-40.1 3.26-14.29 1.95-29.59-3.75-43.1-5.94-14.23-16.64-26.39-29.96-34.17-13.03-7.69-28.55-11.05-43.61-9.5z"/></g></svg>