<svg width="800" height="632pt" viewBox="0 0 600 632" xmlns="http://www.w3.org/2000/svg"><path fill="#eaf7fc" d="M299.96 0h.76c.36.4 1.1 1.21 1.47 1.61 99.27 70 198.58 139.97 297.81 210.03v1.07c-14.05 9.3-27.55 19.42-41.43 28.97-86.16 60.77-172.31 121.56-258.51 182.27-96.69-67.93-193.19-136.16-289.78-204.23-3.35-2.41-6.72-4.81-10.28-6.9v-1.19C99.94 141.03 200.06 70.66 299.96 0m-55.71 191.05c1.08 16.56 11.45 31.17 24.79 40.44-13.2 10.01-26.64 19.71-39.9 29.64-2.07 1.26-2.28 4.74-.15 6.04 3.04 2.28 6.15 4.5 9.28 6.65 2.68 1.87 6.56 1.56 9.06-.5 13.96-10.39 28.03-20.64 41.94-31.1 12.77-9.9 22.69-24.74 23.4-41.24.86-12.55-3.86-25.11-11.94-34.64-6.89-8.57-16.52-14.17-25.22-20.67-1.85-1.13-3.4-2.92-5.47-3.57-15.52 11.05-27.35 29.33-25.79 48.95m80.44 10.51c-.81 9.59-3.93 18.96-9.17 27.03-1.4 2.4-3.43 4.41-4.5 7.01 16.84 9.27 36.21 13.47 55.37 12.95 21.52-.54 43.42-6.56 60.82-19.58-1.75-1.67-3.81-2.94-5.76-4.35-8.71-6.13-17.07-13-27.01-17.08-21.83-9.35-46.63-10.81-69.75-5.98z"/><path d="M244.25 191.05c-1.56-19.62 10.27-37.9 25.79-48.95 2.07.65 3.62 2.44 5.47 3.57 8.7 6.5 18.33 12.1 25.22 20.67 8.08 9.53 12.8 22.09 11.94 34.64-.71 16.5-10.63 31.34-23.4 41.24-13.91 10.46-27.98 20.71-41.94 31.1-2.5 2.06-6.38 2.37-9.06.5-3.13-2.15-6.24-4.37-9.28-6.65-2.13-1.3-1.92-4.78.15-6.04 13.26-9.93 26.7-19.63 39.9-29.64-13.34-9.27-23.71-23.88-24.79-40.44zm80.44 10.51c23.12-4.83 47.92-3.37 69.75 5.98 9.94 4.08 18.3 10.95 27.01 17.08 1.95 1.41 4.01 2.68 5.76 4.35-17.4 13.02-39.3 19.04-60.82 19.58-19.16.52-38.53-3.68-55.37-12.95 1.07-2.6 3.1-4.61 4.5-7.01 5.24-8.07 8.36-17.44 9.17-27.03zM0 370.66c9.71 5.88 18.65 12.97 28.05 19.34 86.6 61.08 173.22 122.15 259.84 183.21 4.19 2.45 7.61 6.16 12.09 8.07 2.41-.75 4.3-2.52 6.32-3.96 71.78-50.57 143.51-101.22 215.3-151.79 26.12-18.36 52.05-37.02 78.4-55.04v49.92C500.13 491.04 399.99 561.29 300.18 632h-.11C200.02 561.51 99.97 491.01 0 420.4v-49.74z" fill="#3674b8"/><path fill="#c2e0f4" d="M0 212.82c3.56 2.09 6.93 4.49 10.28 6.9 96.59 68.07 193.09 136.3 289.78 204.23 86.2-60.71 172.35-121.5 258.51-182.27 13.88-9.55 27.38-19.67 41.43-28.97v67.17c-21.1 14.98-42.29 29.84-63.43 44.76-78.82 55.64-157.67 111.25-236.56 166.8-78.91-55.52-157.75-111.16-236.59-166.8C42.29 309.71 21.1 294.86 0 279.88v-67.06z"/><path fill="#478ed0" d="M0 369.38c21.1-14.97 42.26-29.85 63.42-44.74 78.84 55.64 157.68 111.28 236.59 166.8 78.89-55.55 157.74-111.16 236.56-166.8 21.17 14.89 42.33 29.77 63.43 44.74v1.11c-26.35 18.02-52.28 36.68-78.4 55.04-71.79 50.57-143.52 101.22-215.3 151.79-2.02 1.44-3.91 3.21-6.32 3.96-4.48-1.91-7.9-5.62-12.09-8.07C201.27 512.15 114.65 451.08 28.05 390c-9.4-6.37-18.34-13.46-28.05-19.34v-1.28z"/></svg>