<svg xmlns="http://www.w3.org/2000/svg" viewBox="0 0 559.3 510"><style>.st0{fill:none;stroke:#231f20;stroke-width:2;stroke-miterlimit:10}</style><g id="Layer_2"><path class="st0" d="M559.3 0l-153 103.2-9.7-14.3-61.7 41.6-5.5 26.3-66.8 45.1"/><path class="st0" d="M559.3 7.8L405 111.8l-9.8-14.6-54.4 36.7-5.3 27.3-53.9 36.4"/><path class="st0" d="M559.3 16.6L403 122l-9.5-14.1-46.4 31.3-5.1 26.2-43.6 29.4m260.9-44.2l-36.8 24.8-5.6 26.3-66.8 45.1"/><path class="st0" d="M559.3 158l-31 20.8-5.3 27.3-53.9 36.4"/><path class="st0" d="M559.3 167.5l-24.6 16.6-5.1 26.2-43.6 29.4m36.5-64.3l-139.7 94.2-9.7-14.3-61.7 41.6-5.5 26.3-78.9 53.2"/><path class="st0" d="M520.2 185.4L381.4 279l-9.8-14.6-54.5 36.7-5.3 27.3-69.5 46.9"/><path class="st0" d="M518.3 195.5l-138.9 93.7-9.5-14.1-46.4 31.3-5.1 26.2-70 47.3M462.1 93.1l-61 41.2-9.5-14.1-37.7 25.4-4.2 21.9-82.6 55.7-8.2-12.1L153 282.5l-5.3 27.3L3.6 406.9"/><path class="st0" d="M559.3 36.8L398.8 145l-9.4-13.8-25.2 17-4.7 24.2-92.7 62.5-10.1-14.9-97.4 65.7-5.5 28.2-138.1 93.2"/><path class="st0" d="M559.3 44.5L263.9 243.7l-9.3-13.8-88.2 59.5-5.3 27.2-134.3 90.6M559.3 53.4L308.8 222.3l26.9 39.8-119.3 80.5-5.1 26.6-77.9 52.5"/><path class="st0" d="M559.3 62.2L319 224.3l26.5 39.3-123.4 83.2-5 26.1-70 47.2"/><path class="st0" d="M559.3 90.5l-103.6 69.8-9.6-14.3-62 41.7-5.2 27.1-21.5 14.5-9.9-14.7"/><path class="st0" d="M559.3 98.3L454 169.2l-9.8-14.5-53.9 36.3-5.3 27.3-31.9 21.5-7-10.5"/><path class="st0" d="M559.3 107.1l-106.8 72L443 165l-46.1 31.1-5.3 27.3-42.8 28.8"/><path class="st0" d="M559.3 118.7l-108.2 73-9.8-14.6-30.9 20.8"/><path class="st0" d="M559.3 126.1L449 200.6l-9.5-14.1-32.8 22.1"/><path class="st0" d="M559.3 135.4l-112.6 75.9L437 197l-32.3 21.8"/><path class="st0" d="M543.8 154.6l-108.6 73.3-9.3-13.9-47.6 32.1 9.2 13.6 37.9-25.5-4.8-7.1-23.3 15.8m162-63.2l-17.4 11.7-4.1 20.9-83.7 56.4-8.2-12.1-59.7 40.2-5.4 27.8-47.5 32.1"/><path class="st0" d="M559.3 188l-7.7 5.2-4.6 23.6-93.1 62.9-9.7-14.4-52.1 35.1-5.3 27.4"/><path class="st0" d="M559.3 216.2l-108.4 73.1-9.7-14.3-42.8 28.9-5.2 26.8-39.2 26.4m205.3-132.6L496 267.2l26.9 39.8-87.9 59.3-5.2 26.6-46 31.1"/><path class="st0" d="M559.2 232.8L506 268.7l26.5 39.4-91 61.4-5.3 27.2-37.7 25.5"/><path class="st0" d="M559.3 263.4L544 273.7l-9.8-14.5"/><path class="st0" d="M559.3 272.6l-18 12.2-7.1-10.6m25.1 6.4l-22.9 15.5m22.9 6l-60.8 41-5.2 26.6-46.1 31.1"/><path class="st0" d="M559.3 310.9l-.4-.6-54.4 36.7-5.2 26.6-37.4 25.3"/><path class="st0" d="M559.3 324.1l-2.7-4-46.2 31.2-5.2 26.6-37.8 25.5"/><path class="st0" d="M559.3 370.3l-3.7 2.5-18.4-27.3m22.1 33.4l-7.1 4.8-15.4-22.9m22.5 26.7l-29 19.5m29 1.5l-77 51.9m26.2-17.4l-5 25.8-46.1 31.1m48.8-44.9l-43.4 29.3"/><path class="st0" d="M559.3 416.1l-43.4 29.3-5.1 26.6-37.4 25.2"/><path class="st0" d="M559.3 424.7L522 449.8l-5.3 27.6-38 25.5"/><path d="M281.7 197.8l-.1.1M3.9 407l-.1.1m11.9-.2v.1m11 .1l-.1.1m120.8 13.2h-.1m79.1-43.3l-.1.1m15.9-1.7h-.1m5.4 5l-.1.1m107-23.8l-.1.1m28.7 68h-.1m15.6-2.2l-.1.1m48.2-21.4l-.1.1m14.2-1.6l-.1.1m6.8 4.4l-.1.1m69-43.6h-.1m1.1-14.8l-.1.1m-6.9 60.8l-.1.1m-48.3 53.5h-.1m-19 23.7h-.1m-5.8 16.4v.1m15-2.4l-.1.1m6.2 5v.1M333.2 356.8l-.1.1m-35.3-161.3l-.1.1m164.6-102h-.1M347.4 214.8l-.1.1m.9 37.3l-.1.1m48.1-8.4v.1m54 3.3l-.1.1m18.5-4.3l-.1.1m16.4-2.7l-.1.1m49.4 18.6h-.1m-.4 14.7l-.1.1m1.9 23.1v.1m-131.1-78.3h-.1m1.9-9.8l-.1.1m3.9-11h-.1" stroke-width="6" stroke-linecap="round" stroke-linejoin="round" fill="none" stroke="#231f20" stroke-miterlimit="10"/></g></svg>