<svg width="800pt" height="1148" viewBox="0 0 800 861" xmlns="http://www.w3.org/2000/svg"><path fill="#eaf7fc" d="M399.99 0C533.33 89.79 666.68 179.55 800 269.37v1.18c-129.09 86.7-257.99 173.7-387.02 260.5-4.44 2.64-8.36 6.19-13.04 8.37-11.36-6.94-22.17-14.8-33.34-22.07C245.72 435.86 124.77 354.5 3.86 273.06c-1.25-.84-2.55-1.6-3.86-2.33v-1.34C133.29 179.53 266.68 89.83 399.99 0m17.07 189.14c-15.85 1.85-31.83 8.2-42.6 20.31-6.62 7.49-10.48 18.13-7.78 28.05 2.77 11.85 12.64 20.51 23.16 25.74 14.82 7.32 32.1 8.76 48.24 5.86 14.18-2.68 28.07-9.35 37.45-20.56 5.89-7.38 9.3-17.38 6.8-26.75-2.65-11.41-11.89-19.94-21.95-25.18-13.2-6.96-28.61-9.02-43.32-7.47m-128.49 46.68c-11.2 1.78-22.21 5.63-31.47 12.3-5 3.63-10.2 7.03-15.08 10.82-4.41 3.36-6.26 9.77-3.73 14.8 1.98 3.96 6.02 6.12 9.5 8.56 35.73 24.57 71.47 49.12 107.21 73.67 7.17 5.39 17 6.13 25.37 3.48 4.81-1.4 8.6-4.78 12.66-7.54 6.29-4.53 13.12-8.64 17.91-14.9 3.72-4.65 6.48-10.15 7.49-16.04 1.78-8.77-1.11-18.02-6.45-25.04-4.25-5.74-10.25-9.84-16.22-13.59-18.4-4.66-37.06-14.52-46.3-31.83-16.8-13.76-39.77-18.03-60.89-14.69m218.63 56.42c-7.42 4.88-14.47 10.62-21.98 15.16-6.67-4.53-13.3-9.13-19.96-13.68-3.03-2.3-7.49-2.23-10.56-.05-3.73 2.63-7.47 5.23-11.13 7.95-2.29 1.58-2.17 5.23.23 6.63 6.74 4.62 13.46 9.27 20.21 13.88l-.07.68c-6.88 4.84-13.71 9.74-20.6 14.56-2.23 1.4-2.53 5.03-.24 6.53 3.38 2.63 7.06 4.87 10.53 7.38 3.1 2.3 7.55 2.27 10.69.07 6.9-4.88 13.8-9.77 20.7-14.64 7.15 4.55 13.94 9.64 21.06 14.25 3.35 2.12 7.83 1.3 10.8-1.12 3.43-2.6 7.12-4.86 10.45-7.59 1.94-1.59 1.72-4.9-.49-6.16-6.82-4.89-13.85-9.49-20.71-14.32 7.11-5.14 14.35-10.1 21.44-15.27 1.97-1.48 1.94-4.58.1-6.14-3.53-2.49-7.13-4.86-10.66-7.35-2.72-2.16-6.76-2.21-9.81-.77z"/><path d="M417.06 189.14c14.71-1.55 30.12.51 43.32 7.47 10.06 5.24 19.3 13.77 21.95 25.18 2.5 9.37-.91 19.37-6.8 26.75-9.38 11.21-23.27 17.88-37.45 20.56-16.14 2.9-33.42 1.46-48.24-5.86-10.52-5.23-20.39-13.89-23.16-25.74-2.7-9.92 1.16-20.56 7.78-28.05 10.77-12.11 26.75-18.46 42.6-20.31zm-128.49 46.68c21.12-3.34 44.09.93 60.89 14.69 9.24 17.31 27.9 27.17 46.3 31.83 5.97 3.75 11.97 7.85 16.22 13.59 5.34 7.02 8.23 16.27 6.45 25.04-1.01 5.89-3.77 11.39-7.49 16.04-4.79 6.26-11.62 10.37-17.91 14.9-4.06 2.76-7.85 6.14-12.66 7.54-8.37 2.65-18.2 1.91-25.37-3.48-35.74-24.55-71.48-49.1-107.21-73.67-3.48-2.44-7.52-4.6-9.5-8.56-2.53-5.03-.68-11.44 3.73-14.8 4.88-3.79 10.08-7.19 15.08-10.82 9.26-6.67 20.27-10.52 31.47-12.3zm218.63 56.42c3.05-1.44 7.09-1.39 9.81.77 3.53 2.49 7.13 4.86 10.66 7.35 1.84 1.56 1.87 4.66-.1 6.14-7.09 5.17-14.33 10.13-21.44 15.27 6.86 4.83 13.89 9.43 20.71 14.32 2.21 1.26 2.43 4.57.49 6.16-3.33 2.73-7.02 4.99-10.45 7.59-2.97 2.42-7.45 3.24-10.8 1.12-7.12-4.61-13.91-9.7-21.06-14.25-6.9 4.87-13.8 9.76-20.7 14.64-3.14 2.2-7.59 2.23-10.69-.07-3.47-2.51-7.15-4.75-10.53-7.38-2.29-1.5-1.99-5.13.24-6.53 6.89-4.82 13.72-9.72 20.6-14.56l.07-.68c-6.75-4.61-13.47-9.26-20.21-13.88-2.4-1.4-2.52-5.05-.23-6.63 3.66-2.72 7.4-5.32 11.13-7.95 3.07-2.18 7.53-2.25 10.56.05 6.66 4.55 13.29 9.15 19.96 13.68 7.51-4.54 14.56-10.28 21.98-15.16zM0 416.7c.54.31 1.62.92 2.16 1.23 106.77 71.88 213.55 143.74 320.27 215.68 25.95 17.09 51.33 35.12 77.53 51.78 2.14-.85 3.99-2.25 5.88-3.54 69.75-46.91 139.46-93.89 209.18-140.84 61.7-41.42 123.21-83.13 184.98-124.43v63.82c-27.44 18.52-54.92 36.99-82.37 55.49C611.72 607.1 505.93 678.5 400 749.68 294.07 678.5 188.29 607.1 82.37 535.89 54.92 517.4 27.45 498.92 0 480.41V416.7z" fill="#3674b8"/><g fill="#c2e0f4"><path d="M0 270.73c1.31.73 2.61 1.49 3.86 2.33 120.91 81.44 241.86 162.8 362.74 244.29 11.17 7.27 21.98 15.13 33.34 22.07 4.68-2.18 8.6-5.73 13.04-8.37 129.03-86.8 257.93-173.8 387.02-260.5v85.76c-14.59 9.88-29.23 19.68-43.83 29.54-118.7 79.95-237.39 159.93-356.16 239.78C281.22 545.8 162.54 465.8 43.83 385.85 29.22 376 14.61 366.17 0 356.33v-85.6z"/><path d="M82.37 535.89C188.29 607.1 294.07 678.5 400 749.68 505.93 678.5 611.72 607.1 717.63 535.89c27.46 18.48 54.9 36.98 82.37 55.45v.3C666.69 681.44 533.32 771.16 400.03 861 266.68 771.22 133.34 681.43 0 591.65v-.3c27.46-18.48 54.91-36.98 82.37-55.46z"/></g><path fill="#478ed0" d="M43.83 385.85C162.54 465.8 281.22 545.8 400.01 625.63c118.77-79.85 237.46-159.83 356.16-239.78 14.62 9.81 29.23 19.65 43.83 29.51v1.22c-61.77 41.3-123.28 83.01-184.98 124.43-69.72 46.95-139.43 93.93-209.18 140.84-1.89 1.29-3.74 2.69-5.88 3.54-26.2-16.66-51.58-34.69-77.53-51.78-106.72-71.94-213.5-143.8-320.27-215.68-.54-.31-1.62-.92-2.16-1.23v-1.32c14.58-9.89 29.21-19.7 43.83-29.53z"/></svg>