<svg width="400pt" height="288" viewBox="0 0 400 216" xmlns="http://www.w3.org/2000/svg"><path d="M14.66 0h97.26c-2.4 10.5-5.01 20.95-7.5 31.43-10.42.03-20.84-.02-31.26.03-9.83 41-19.78 81.98-29.48 123.01-12.04.06-24.07.04-36.1.01 10.09-40.97 19.65-82.07 29.7-123.06-10.13.03-20.26.04-30.38-.01 2.88-10.39 5-20.98 7.76-31.41zm100.42 0h35.95c-9.68 40.99-19.6 81.93-29.46 122.88 16.54-.04 33.07.01 49.6-.03-2.6 10.52-5.15 21.04-7.58 31.6-28.58.1-57.16.05-85.74.03C90.49 103.04 102.59 51.47 115.08 0zm88.77 0h48.01c8.1.43 16.4 1.65 23.58 5.67 7.69 4.16 13.43 11.49 16.03 19.8 3.5 11.52 2.8 23.83 1.3 35.62-3.99 26.99-14.27 54.18-34.25 73.42-12.55 12.4-29.9 19.48-47.5 19.94-14.46.13-28.92.01-43.38.05 12.53-51.46 24.69-103.02 37.2-154.49l-.99-.01m29.64 30.13c-7.56 31.38-14.98 62.81-22.67 94.16 6.93.34 14.06-1.42 19.58-5.74 9.21-7.12 14.47-17.99 18.37-28.69 4.14-12.2 7.58-24.89 7.63-37.86-.23-6.63-1.1-14.41-6.81-18.72-4.57-3.53-10.63-3.27-16.1-3.15zM310.17 0h57.29c7.48.43 15.23 1.72 21.57 5.98 5.86 3.74 10.02 10.08 10.7 17.04 1.01 10.98-2.35 22.16-8.45 31.27-8.38 12.48-22.15 20.02-36.1 24.68 4.51.65 9.04 2.19 12.44 5.35 4.97 4.37 6.96 11.19 7.12 17.62.02 17.51-1.05 35.01-1.14 52.53-13.19.04-26.38.09-39.57-.03 1.76-14.09 3.07-28.23 4.59-42.35.29-5.65 1.1-11.84-1.75-17-2.6-4.28-8.15-4.25-12.56-4.23-5.22 21.19-10.19 42.43-15.34 63.63-12.02 0-24.04.06-36.06-.03 12.69-51.42 24.73-103 37.26-154.46m20.65 63.2c5.3-.16 10.83.59 15.89-1.4 9.41-3.55 15.03-14.16 14.04-23.95-.47-3.91-3.97-6.79-7.73-7.35-4.69-.77-9.46-.25-14.18-.39-2.68 11.03-5.22 22.09-8.02 33.09zM4.58 177.53c7.24-10.29 24.12-11.57 32.88-2.6-.51.41-1.54 1.23-2.06 1.65-4.8-3.98-11.38-5.73-17.48-4.27-6.43 1.12-11.61 6.33-13.36 12.52-2.18 7.55-1.3 16.54 4.03 22.62 6.96 7.78 20.45 7.51 27.58.08.53.43 1.58 1.29 2.11 1.72-5.94 6.62-15.89 8.12-24.09 5.55-6.4-2.06-11.25-7.69-12.99-14.1-2.09-7.7-1.39-16.57 3.38-23.17zm134.11-8.01c7.04.33 14.46-1.12 21.16 1.62 9.08 3.71 9.49 18.09 1.31 23.01-5.57 3.82-12.62 2.55-18.96 2.75-.06 6.19-.03 12.38 0 18.56-.88 0-2.62 0-3.5-.01.06-15.31.07-30.62-.01-45.93m3.4 2.74c.13 7.32.14 14.65 0 21.98 3.33 0 6.67.11 10-.02 4.38-.17 8.87-2.56 10.67-6.69 2-4.81.64-11.37-4.3-13.84-5.1-2.41-10.93-1.27-16.37-1.43zm58.79-2.76c1.15 0 2.31.01 3.47.02-.09 15.31-.06 30.62-.01 45.93-.87 0-2.59 0-3.46.01.02-15.32.03-30.64 0-45.96zm35.69.04c11.97-.07 23.94-.07 35.91-.01l-.04 2.82c-5.42.01-10.83-.02-16.24.02.16 14.36-.02 28.72.1 43.08-.87.01-2.61.01-3.47.01.08-14.36-.1-28.72.09-43.08-5.43-.06-10.86-.02-16.3-.03-.01-.7-.04-2.11-.05-2.81zm-152.29.09c1.15-.07 2.29-.12 3.44-.16 6.35 15.33 12.45 30.76 18.92 46.04-1.63-.04-3.75.44-4.18-1.64-1.74-4.15-3.36-8.34-5.01-12.53-7.51-.17-15.03.03-22.54-.1-2.11 4.67-3.74 9.55-5.93 14.19-.84.02-2.53.05-3.38.07 6.28-15.27 12.63-30.52 18.68-45.87m1.71 3.48c-3.15 8.64-6.69 17.14-10.24 25.62 6.88.06 13.77-.02 20.65.05-3.57-8.52-6.85-17.17-10.41-25.67zm208.15 42.39c6.52-15.24 12.54-30.7 18.95-45.99.8-.02 2.38-.04 3.17-.05 6.49 15.26 12.45 30.75 18.98 46l-3.3.04c-2.36-4.58-3.91-9.53-6-14.23-7.5.02-15-.01-22.5.02-1.92 4.65-3.78 9.33-5.64 14.01l-3.66.2m10.25-16.73c6.9-.08 13.8.09 20.71-.1-3.65-8.38-7.1-16.86-10.21-25.46-3.76 8.4-6.87 17.1-10.5 25.56zm62.88-29.22c1.2 0 2.4 0 3.61.02-.38 14.35-.01 28.71-.2 43.06 7.29.07 14.58 0 21.87.04l.04 2.76c-8.41.06-16.83.01-25.24.03.03-15.3.18-30.61-.08-45.91z" fill="#fff"/></svg>