<?xml version="1.0" encoding="UTF-8" ?>
<!DOCTYPE svg PUBLIC "-//W3C//DTD SVG 1.1//EN" "http://www.w3.org/Graphics/SVG/1.1/DTD/svg11.dtd">
<svg width="1122pt" height="193pt" viewBox="0 0 1122 193" version="1.1" xmlns="http://www.w3.org/2000/svg">
<g id="#fefefefe">
<path fill="#fefefe" opacity="1.00" d=" M 390.78 0.00 L 401.34 0.00 C 408.04 1.04 414.73 2.89 420.70 6.18 C 430.31 11.88 438.70 20.24 443.20 30.56 C 449.06 43.32 449.04 58.67 443.21 71.44 C 442.06 74.36 440.38 77.01 438.72 79.66 C 436.97 82.54 433.88 84.32 432.41 87.40 C 429.63 88.93 427.62 91.46 424.92 93.11 C 418.45 97.94 410.55 100.38 402.66 101.67 C 398.25 102.20 393.75 102.22 389.34 101.66 C 372.44 99.71 356.96 88.69 349.37 73.54 C 346.60 68.31 345.05 62.51 344.35 56.66 C 343.80 52.91 343.79 49.09 344.35 45.35 C 344.89 39.85 346.40 34.52 348.77 29.54 C 356.49 13.34 372.91 1.88 390.78 0.00 M 381.41 17.61 C 379.79 19.00 377.75 19.72 376.00 20.91 C 371.38 23.66 367.82 27.98 365.19 32.57 C 362.41 36.29 361.82 40.91 360.47 45.23 C 360.37 49.07 360.38 52.92 360.47 56.76 C 361.76 60.72 362.23 64.98 364.62 68.50 C 368.13 75.68 374.60 80.61 381.41 84.39 C 392.03 88.74 404.69 88.15 414.42 81.85 C 416.61 81.13 417.78 78.96 419.66 77.74 C 422.13 75.79 424.20 73.09 425.85 70.42 C 429.77 64.43 431.07 57.14 431.60 50.12 C 430.76 43.67 429.45 36.99 425.79 31.50 C 424.13 28.89 422.12 26.17 419.66 24.26 C 417.79 23.04 416.60 20.87 414.42 20.15 C 410.68 17.45 406.12 16.30 401.70 15.28 C 394.89 13.90 387.86 15.23 381.41 17.61 Z" />
<path fill="#fefefe" opacity="1.00" d=" M 583.78 0.00 L 593.29 0.00 C 603.74 0.79 613.61 4.62 622.45 10.09 C 622.38 15.85 622.49 21.61 622.38 27.38 C 618.24 25.20 614.80 21.86 610.45 20.07 C 609.17 19.37 607.88 18.72 606.58 18.10 C 601.78 15.86 596.44 15.62 591.36 14.44 C 587.77 14.61 584.21 15.19 580.65 15.63 C 570.92 18.10 562.27 24.60 557.55 33.51 C 551.63 44.54 551.80 58.68 558.12 69.50 C 562.03 76.46 568.50 81.55 575.69 84.78 C 580.63 86.88 586.08 87.07 591.36 87.56 C 596.38 86.33 601.76 86.26 606.47 83.85 C 612.32 81.76 617.07 77.72 622.38 74.63 C 622.49 80.39 622.38 86.15 622.45 91.91 C 619.02 93.51 615.99 95.85 612.45 97.21 C 606.86 99.69 600.79 101.35 594.67 101.60 C 590.60 102.26 586.42 102.19 582.34 101.65 C 572.12 100.49 562.34 95.97 554.64 89.20 C 551.01 86.84 549.07 82.84 546.04 79.88 C 544.30 77.61 543.26 74.89 541.76 72.46 C 537.97 64.04 536.12 54.55 537.35 45.34 C 537.98 39.89 539.44 34.53 541.76 29.54 C 546.57 19.48 554.75 11.39 564.37 5.84 C 570.53 2.96 577.00 0.82 583.78 0.00 Z" />
<path fill="#fefefe" opacity="1.00" d=" M 889.78 0.00 L 902.30 0.00 C 912.14 1.11 922.63 2.78 930.50 9.31 C 930.20 14.85 930.83 20.42 930.08 25.93 C 923.80 21.02 916.43 17.34 908.52 16.05 C 904.53 14.97 900.34 15.38 896.35 14.47 C 893.66 14.74 891.00 15.09 888.33 15.39 C 877.94 17.01 868.18 23.24 863.07 32.55 C 860.51 36.37 859.45 40.90 858.52 45.34 C 857.95 53.54 858.52 62.34 863.07 69.45 C 868.80 79.67 880.09 86.19 891.67 87.00 C 900.53 88.56 909.39 85.69 917.66 82.72 C 917.48 75.81 917.59 68.89 917.60 61.98 C 917.43 60.81 918.00 59.21 916.71 58.52 C 910.48 58.25 904.23 58.52 898.00 58.43 C 898.00 53.81 898.00 49.19 898.00 44.57 C 909.07 44.54 920.15 44.64 931.23 44.51 C 931.73 59.90 931.20 75.31 931.50 90.70 C 919.68 99.79 903.99 103.09 889.33 101.64 C 883.09 101.21 877.13 99.14 871.45 96.67 C 865.65 94.11 860.93 89.87 856.02 86.01 C 852.81 82.04 849.60 78.01 847.28 73.43 C 844.59 68.20 842.91 62.51 842.35 56.65 C 841.79 52.91 841.79 49.08 842.35 45.34 C 842.97 39.88 844.44 34.53 846.76 29.54 C 848.83 25.77 850.86 21.90 854.03 18.92 C 857.08 14.18 861.99 11.22 866.38 7.85 C 868.99 6.28 871.73 4.96 874.54 3.77 C 879.43 1.85 884.62 0.87 889.78 0.00 Z" />
<path fill="#fefefe" opacity="1.00" d=" M 2.03 0.78 C 2.39 0.98 3.09 1.38 3.45 1.59 C 4.88 0.84 6.44 1.73 7.95 1.58 C 46.64 1.55 85.33 1.59 124.01 1.56 C 146.65 2.43 169.32 1.82 191.97 2.00 C 195.47 2.18 199.07 1.54 202.50 2.41 C 203.17 2.18 203.84 2.17 204.52 2.41 C 205.01 2.41 205.99 2.40 206.48 2.40 C 208.62 2.12 210.78 2.83 212.95 2.54 C 211.10 6.26 209.28 9.98 207.16 13.55 C 203.19 20.73 199.82 28.22 195.77 35.37 C 186.45 35.49 177.11 35.46 167.78 35.38 C 159.91 34.35 151.91 35.75 144.07 34.46 C 134.31 34.34 124.55 34.53 114.80 34.38 C 107.58 33.40 100.23 34.71 93.05 33.45 C 80.00 33.37 66.95 33.65 53.92 32.92 C 54.22 33.28 54.81 33.98 55.10 34.33 C 58.41 41.61 60.78 49.46 64.34 56.53 C 70.13 56.58 75.95 56.67 81.74 56.48 C 86.26 55.50 90.89 56.35 95.45 55.84 C 98.38 55.47 101.34 55.52 104.28 55.62 C 103.61 56.96 102.84 58.25 102.13 59.57 C 100.73 61.86 99.47 64.24 98.13 66.57 C 96.73 68.86 95.48 71.25 94.14 73.58 C 91.86 77.61 89.34 81.49 87.14 85.56 C 85.74 87.86 84.48 90.24 83.13 92.56 C 80.88 96.61 78.43 100.55 76.14 104.57 C 74.74 106.82 73.52 109.17 72.21 111.47 C 70.26 114.92 68.05 118.25 66.45 121.88 C 64.64 118.42 62.85 114.93 60.86 111.57 C 55.87 102.57 50.89 93.55 45.86 84.58 C 44.04 81.66 42.70 78.47 40.86 75.57 C 37.51 69.58 34.24 63.54 30.86 57.57 C 29.04 54.66 27.71 51.47 25.86 48.57 C 24.05 45.65 22.70 42.47 20.86 39.57 C 19.04 36.66 17.71 33.47 15.86 30.57 C 14.04 27.66 12.71 24.47 10.86 21.58 C 9.03 18.62 7.69 15.39 5.78 12.49 C 3.83 8.59 1.14 4.96 0.01 0.74 L 1.96 1.77 L 2.03 0.78 Z" />
<path fill="#fefefe" opacity="1.00" d=" M 269.07 2.07 C 294.85 1.90 320.64 2.05 346.43 2.00 C 346.43 6.67 346.43 11.33 346.43 16.00 C 335.76 16.00 325.09 15.99 314.43 16.00 C 314.43 44.00 314.43 72.00 314.43 100.00 C 309.81 100.00 305.19 100.00 300.57 100.00 C 300.57 72.00 300.57 44.00 300.57 16.00 C 290.08 15.94 279.58 16.11 269.09 15.93 C 268.84 15.68 268.33 15.19 268.07 14.94 C 267.93 11.00 267.93 7.03 268.07 3.08 C 268.32 2.83 268.82 2.33 269.07 2.07 Z" />
<path fill="#fefefe" opacity="1.00" d=" M 462.98 4.98 C 462.72 3.68 463.26 1.74 464.96 2.01 C 474.81 2.11 484.70 1.75 494.54 2.20 C 505.89 2.79 518.08 9.04 521.64 20.50 C 527.03 33.62 519.96 50.15 506.74 55.29 C 515.99 67.98 525.21 80.69 534.51 93.33 C 535.80 95.42 537.14 97.50 539.01 99.15 C 537.60 100.38 535.66 99.92 533.97 100.02 C 529.64 99.99 525.30 99.99 520.97 100.02 C 510.77 85.83 500.13 71.97 489.63 58.01 C 485.56 57.99 481.49 58.00 477.42 58.00 C 477.44 70.69 477.40 83.38 477.45 96.06 C 477.45 97.40 477.30 98.72 477.01 100.02 C 472.69 99.91 468.38 100.15 464.07 99.93 C 463.82 99.68 463.32 99.17 463.08 98.92 C 462.89 67.61 463.07 36.29 462.98 4.98 M 477.43 16.00 C 477.43 25.33 477.43 34.67 477.43 44.00 C 484.06 43.78 490.83 44.62 497.35 43.12 C 501.01 42.44 504.14 39.81 505.82 36.56 C 506.99 34.73 506.92 32.52 507.44 30.48 C 506.71 28.15 507.31 25.52 505.82 23.44 C 504.84 21.20 502.80 19.61 500.93 18.14 C 493.54 14.85 485.25 16.34 477.43 16.00 Z" />
<path fill="#fefefe" opacity="1.00" d=" M 640.07 2.07 C 644.37 1.85 648.69 2.09 653.00 1.98 C 653.30 3.30 653.45 4.63 653.45 5.98 C 653.40 16.99 653.44 27.99 653.43 39.00 C 671.14 39.00 688.86 39.00 706.58 39.00 C 706.56 26.66 706.57 14.33 706.57 2.00 C 711.19 2.00 715.81 2.00 720.43 2.00 C 720.43 34.67 720.43 67.33 720.43 100.00 C 715.81 100.00 711.19 100.00 706.57 100.00 C 706.57 84.32 706.56 68.63 706.58 52.95 C 704.54 53.14 702.50 53.17 700.47 53.18 C 699.48 53.11 698.49 53.11 697.51 53.18 C 683.49 53.25 669.46 52.98 655.45 53.29 C 654.94 53.19 653.93 52.97 653.42 52.87 C 653.44 65.92 653.42 78.97 653.43 92.02 C 653.41 94.69 653.64 97.40 653.01 100.02 C 648.70 99.91 644.38 100.14 640.08 99.93 C 639.83 99.68 639.33 99.18 639.07 98.93 C 638.95 66.99 638.95 35.02 639.08 3.07 C 639.33 2.82 639.82 2.32 640.07 2.07 Z" />
<path fill="#fefefe" opacity="1.00" d=" M 741.06 2.07 C 745.37 1.85 749.69 2.09 754.01 1.98 C 754.30 3.31 754.45 4.66 754.45 6.03 C 754.40 32.69 754.45 59.34 754.43 86.00 C 769.76 86.01 785.09 86.00 800.43 86.00 C 800.43 90.67 800.43 95.33 800.43 100.00 C 780.64 99.95 760.84 100.10 741.06 99.92 C 740.81 99.67 740.32 99.17 740.07 98.92 C 739.95 66.98 739.95 35.02 740.07 3.09 C 740.32 2.83 740.81 2.33 741.06 2.07 Z" />
<path fill="#fefefe" opacity="1.00" d=" M 813.07 2.07 C 817.38 1.85 821.69 2.09 826.01 1.97 C 826.66 4.94 826.39 7.99 826.43 11.00 C 826.43 37.66 826.43 64.32 826.43 90.97 C 826.39 93.99 826.66 97.05 826.01 100.03 C 821.69 99.91 817.38 100.14 813.07 99.93 C 812.82 99.68 812.32 99.17 812.07 98.92 C 811.95 66.98 811.95 35.02 812.07 3.07 C 812.32 2.82 812.82 2.32 813.07 2.07 Z" />
<path fill="#fefefe" opacity="1.00" d=" M 950.08 2.07 C 954.38 1.85 958.70 2.09 963.01 1.97 C 963.66 4.95 963.39 8.01 963.43 11.03 C 963.42 20.35 963.43 29.67 963.43 39.00 C 981.14 39.00 998.86 39.00 1016.57 39.00 C 1016.56 26.66 1016.57 14.33 1016.57 2.00 C 1021.19 2.00 1025.80 2.00 1030.43 2.00 C 1030.43 34.67 1030.43 67.33 1030.43 100.00 C 1025.80 100.00 1021.19 100.00 1016.57 100.00 C 1016.57 84.31 1016.56 68.62 1016.58 52.94 C 1013.56 53.39 1010.53 52.97 1007.52 53.20 C 997.51 53.14 987.49 53.14 977.49 53.20 C 973.47 53.09 969.44 53.03 965.45 53.29 C 964.94 53.19 963.93 52.98 963.42 52.87 C 963.44 65.92 963.42 78.97 963.43 92.01 C 963.41 94.68 963.64 97.40 963.01 100.02 C 958.69 99.91 954.37 100.14 950.07 99.93 C 949.82 99.68 949.32 99.17 949.07 98.92 C 948.95 66.98 948.95 35.01 949.07 3.07 C 949.33 2.82 949.83 2.32 950.08 2.07 Z" />
<path fill="#fefefe" opacity="1.00" d=" M 1044.07 2.07 C 1069.85 1.90 1095.64 2.05 1121.43 2.00 C 1121.42 6.67 1121.42 11.33 1121.43 16.00 C 1110.76 16.00 1100.09 15.99 1089.43 16.00 C 1089.43 44.00 1089.43 72.00 1089.43 100.00 C 1084.80 100.00 1080.18 100.00 1075.57 100.00 C 1075.57 72.00 1075.56 44.00 1075.58 16.00 C 1065.08 15.94 1054.57 16.11 1044.08 15.93 C 1043.83 15.68 1043.33 15.18 1043.07 14.93 C 1042.92 10.98 1042.92 7.02 1043.07 3.07 C 1043.32 2.82 1043.82 2.32 1044.07 2.07 Z" />
<path fill="#fefefe" opacity="1.00" d=" M 139.71 58.82 C 152.45 58.23 165.25 58.77 178.02 58.54 C 175.56 62.42 173.45 66.47 171.21 70.48 C 169.76 72.79 168.50 75.21 167.13 77.57 C 165.74 79.86 164.46 82.23 163.14 84.58 C 161.29 87.47 159.97 90.66 158.13 93.56 C 155.37 98.19 152.73 102.85 150.13 107.57 C 148.74 109.83 147.51 112.17 146.20 114.48 C 144.76 116.79 143.48 119.20 142.14 121.58 C 140.75 123.56 139.79 125.80 138.76 127.98 C 136.34 130.78 135.23 134.41 133.21 137.48 C 131.76 139.79 130.49 142.21 129.13 144.57 C 127.73 146.86 126.47 149.24 125.13 151.57 C 123.74 153.82 122.50 156.17 121.21 158.48 C 119.76 160.79 118.47 163.20 117.14 165.58 C 115.29 168.47 113.96 171.66 112.13 174.57 C 109.10 179.60 106.25 184.72 103.45 189.89 C 102.87 188.36 102.11 186.94 101.38 185.50 C 99.17 182.39 97.85 178.77 95.82 175.56 C 94.08 172.61 92.67 169.47 90.86 166.56 C 88.71 162.97 86.94 159.17 84.81 155.57 C 83.81 153.47 82.47 151.56 81.40 149.50 C 91.95 133.65 101.96 117.48 112.59 101.69 C 116.85 94.01 122.49 87.15 126.76 79.49 C 130.69 73.52 134.65 67.57 138.65 61.65 C 139.27 60.81 139.63 59.87 139.71 58.82 Z" />
<path fill="#fefefe" opacity="1.00" d=" M 942.49 139.49 C 945.36 136.14 949.81 135.10 954.00 134.54 C 956.75 135.07 959.65 135.35 962.13 136.81 C 964.93 138.19 966.60 140.93 968.30 143.43 C 969.09 145.52 969.53 147.72 969.56 149.97 C 967.69 149.99 965.84 150.01 963.99 150.03 C 963.79 148.86 963.62 147.70 963.47 146.53 C 962.11 143.94 960.00 141.99 957.55 140.45 C 953.66 139.62 948.94 140.03 946.38 143.45 C 942.69 146.96 943.21 153.65 947.47 156.48 C 951.39 158.98 956.15 159.54 960.35 161.45 C 965.43 163.45 969.87 167.80 970.75 173.36 C 971.27 176.76 970.57 180.25 969.50 183.47 C 966.80 188.88 961.16 192.26 955.25 193.00 L 951.62 193.00 C 948.41 192.43 945.35 191.20 942.62 189.46 C 938.68 186.23 936.96 181.27 936.26 176.39 C 937.33 176.35 938.45 176.31 939.55 176.29 C 940.53 176.30 941.52 176.33 942.53 176.35 C 942.52 180.03 944.27 184.03 947.45 186.05 C 950.39 188.00 954.04 187.84 957.40 187.43 C 962.03 185.94 964.98 181.24 965.49 176.55 C 965.01 174.79 964.51 173.05 963.95 171.33 C 958.41 163.26 945.68 165.69 940.18 157.50 C 938.29 155.25 938.62 152.23 938.24 149.51 C 938.57 145.83 939.46 141.93 942.49 139.49 Z" />
<path fill="#fefefe" opacity="1.00" d=" M 378.22 136.04 C 380.51 135.34 382.93 135.43 385.28 135.82 C 391.00 152.41 398.63 168.41 404.34 185.02 C 404.61 184.69 405.14 184.03 405.41 183.71 C 410.64 169.86 416.35 156.18 421.80 142.41 C 423.23 140.63 422.81 137.92 424.71 136.44 L 424.05 135.48 C 426.34 135.57 428.64 135.58 430.95 135.52 C 428.24 140.67 426.51 146.26 424.19 151.59 C 422.26 155.47 420.90 159.61 419.18 163.58 C 414.99 172.99 411.54 182.74 407.12 192.03 C 405.37 192.00 403.61 192.01 401.87 192.07 C 400.34 188.96 399.41 185.58 397.80 182.50 C 396.02 178.58 394.80 174.40 392.76 170.61 C 392.15 168.89 391.80 167.04 390.78 165.50 C 389.05 161.56 387.78 157.41 385.77 153.61 C 385.15 151.92 384.84 150.08 383.80 148.59 C 381.86 144.45 380.87 139.77 378.22 136.04 Z" />
<path fill="#fefefe" opacity="1.00" d=" M 470.41 135.41 C 480.76 135.93 491.15 135.15 501.49 135.82 C 501.23 137.54 501.10 139.27 500.94 141.01 C 492.62 140.99 484.31 141.00 476.00 141.00 C 476.00 147.67 476.00 154.33 476.00 161.00 C 484.14 161.00 492.27 161.00 500.41 161.00 C 500.42 162.71 500.44 164.42 500.50 166.13 C 492.36 166.80 484.16 166.25 476.01 166.42 C 475.99 173.28 476.00 180.14 476.00 187.00 C 484.28 187.04 492.57 186.93 500.85 187.04 C 501.59 188.60 501.27 190.40 500.95 192.02 C 490.82 191.97 480.70 192.02 470.57 192.00 C 470.46 173.14 470.79 154.26 470.41 135.41 Z" />
<path fill="#fefefe" opacity="1.00" d=" M 545.51 135.88 C 548.22 135.45 551.06 135.28 553.76 135.99 C 563.87 151.56 574.19 167.03 584.70 182.34 C 584.37 166.85 584.73 151.36 584.51 135.88 C 586.48 135.44 588.52 135.41 590.50 135.90 C 590.34 154.60 590.47 173.29 590.43 191.99 C 588.61 191.99 586.81 192.00 585.01 192.05 C 577.34 181.61 570.75 170.38 563.09 159.92 C 558.92 154.32 555.64 148.07 551.14 142.72 C 551.81 159.12 551.24 175.58 551.43 192.00 C 549.47 192.00 547.52 192.00 545.57 192.00 C 545.53 173.29 545.65 154.58 545.51 135.88 Z" />
<path fill="#fefefe" opacity="1.00" d=" M 630.41 135.41 C 640.94 135.78 651.49 135.47 662.03 135.57 C 661.69 137.32 662.81 139.82 660.93 140.92 C 656.95 141.14 652.97 140.93 649.00 141.00 C 649.00 158.00 649.00 175.00 649.00 192.00 C 647.18 192.00 645.37 192.00 643.57 192.00 C 643.57 175.00 643.57 158.00 643.57 141.00 C 639.25 141.00 634.92 141.00 630.60 141.00 C 630.58 139.13 630.53 137.27 630.41 135.41 Z" />
<path fill="#fefefe" opacity="1.00" d=" M 701.76 135.53 C 703.58 135.54 705.41 135.54 707.24 135.53 C 707.66 145.02 707.31 154.52 707.43 164.02 C 707.58 169.18 706.78 174.52 708.58 179.49 C 709.43 182.53 712.23 184.28 714.31 186.44 C 719.03 188.08 724.92 188.57 728.98 185.09 C 734.37 180.86 734.70 173.35 734.59 167.06 C 734.48 156.52 734.73 145.98 734.45 135.44 C 736.29 135.52 738.15 135.57 740.00 135.62 C 739.76 148.62 740.47 161.68 739.65 174.66 C 739.26 178.38 738.66 182.28 736.18 185.26 C 733.30 190.14 727.63 192.41 722.23 193.00 L 719.66 193.00 C 716.37 192.62 713.30 191.45 710.27 190.20 C 707.66 187.59 704.65 185.10 703.44 181.49 C 701.68 176.20 701.43 170.56 701.56 165.04 C 701.69 155.20 701.33 145.35 701.76 135.53 Z" />
<path fill="#fefefe" opacity="1.00" d=" M 785.41 135.41 C 793.25 136.00 801.20 134.80 808.95 136.54 C 811.94 136.41 814.01 138.82 816.64 139.77 C 819.21 141.83 821.22 144.38 822.28 147.52 C 823.90 151.67 823.82 156.34 822.32 160.52 C 820.21 164.07 817.66 167.74 813.65 169.26 C 811.51 170.02 809.35 170.70 807.14 171.15 C 812.15 178.25 817.32 185.35 822.89 192.02 C 820.37 191.99 817.87 192.00 815.37 191.99 C 808.93 183.40 802.68 174.67 796.01 166.27 C 800.85 166.79 806.09 167.11 810.58 164.82 C 812.20 164.15 813.34 162.75 814.71 161.69 C 815.27 160.99 815.84 160.31 816.44 159.63 C 819.53 153.22 816.83 144.80 810.04 142.16 C 803.92 140.22 797.32 141.27 791.00 141.00 C 791.00 158.00 791.00 175.00 791.00 192.00 C 789.18 192.00 787.37 192.00 785.57 192.00 C 785.46 173.14 785.79 154.26 785.41 135.41 Z" />
<path fill="#fefefe" opacity="1.00" d=" M 866.41 135.41 C 876.76 135.96 887.17 135.10 897.51 135.86 C 897.26 137.57 897.07 139.28 896.93 141.00 C 888.62 140.99 880.31 141.00 872.00 141.00 C 872.00 147.67 872.00 154.33 872.00 161.00 C 880.15 161.00 888.29 161.00 896.44 161.00 C 896.06 162.68 897.29 165.28 895.67 166.39 C 887.78 166.50 879.89 166.39 872.00 166.42 C 871.99 173.28 872.00 180.14 872.00 187.00 C 880.28 187.04 888.57 186.93 896.85 187.04 C 897.58 188.61 897.25 190.40 896.95 192.02 C 886.82 191.97 876.70 192.02 866.57 192.00 C 866.46 173.14 866.78 154.26 866.41 135.41 Z" />
</g>
</svg>
