<svg width="788pt" height="151pt" viewBox="0 0 788 151" xmlns="http://www.w3.org/2000/svg"><path d="M6.49 0h139.54c1.57 1.1 3.03 2.34 4.53 3.54.65 1.75 1.24 3.57 1.16 5.48-.04 18.28-.02 36.57.01 54.86-12.8.02-25.6.02-38.39 0 .04-8.65 0-17.3.04-25.94 0-2.53-.17-5.38-1.99-7.33-5.95-.59-11.97-.14-17.94-.19-.48 1.84-.92 3.7-.9 5.61-.02 17.28.15 34.57-.08 51.85-.91 5.62-3.04 12.76-9.35 14.22-5.53.44-11.63 1.31-16.63-1.7-2.16-2.24-3.94-4.8-5.6-7.41-.5-3.22-1.36-6.4-1.36-9.68-.29-16.78.35-33.57-.36-50.35-.51-.85-1.02-1.7-1.52-2.55-5.8-.08-11.61-.08-17.41 0-1.75 5.37-1.49 11.07-1.1 16.63-.59 13.3-.18 26.62-.32 39.94.27 7.34 1.55 15.1 6.11 21.1 1.73 2.54 4.27 4.34 6.47 6.44 12.09 7.24 27.44 8.88 40.75 4.21.92-.26 1.85-.51 2.78-.75 2.97-1.62 6.22-2.93 8.6-5.42 3.37-3.16 5.49-7.33 7.74-11.3.9-4.96 2.73-9.84 2.1-14.96 12.79-.04 25.59-.03 38.38 0-.09 16.24-.06 32.48-.06 48.71-.12 4.41.72 9.1-1.57 13.12-1.49.94-2.94 1.94-4.44 2.87H7.17c-3.93-1.16-6.52-5-6.67-9.01C.55 99 .5 56.01.53 13.02.49 9.77.63 6.48 1.7 3.37 3.33 2.31 4.94 1.19 6.49 0zm772.02 46.36c3.16-.11 6.32-.47 9.49-.41v.58c-1.13 2.33-.43 4.98-.56 7.46-.05 15.46.17 30.93-.07 46.38-2.85.58-5.82.48-8.66.01-.38-2.11-.29-4.27-.29-6.4.09-15.87-.1-31.75.09-47.62zm-216.48 7.76c4.09-6.11 11.98-8.19 18.96-7.91 5.69.06 12.42-.81 16.87 3.53-.69 1.96-1.64 3.81-2.64 5.63-5.95-2.49-12.75-2.87-18.95-1.17-4.38 1.3-6.69 5.89-6.73 10.22-.03 6.83-.29 13.67-.01 20.5.09 4.27 3.22 8.11 7.39 9.04 6.33 1.9 12.73-.32 18.85-1.71 1.16 2.01 1.46 4.36 1.54 6.64-5.16 2.06-10.73 2.87-16.26 2.62-6.95.26-14.81-1.72-19.03-7.66-3.79-5.54-2.03-12.58-2.4-18.84.44-6.96-1.45-14.59 2.41-20.89zm-369.64-6.8c1.56-1.2 3.74-.67 5.57-.71 1.54-.04 4.08.33 3.83 2.42.16 11.31-.02 22.64.07 33.96.02 3.87 1.81 7.88 5.29 9.82 4 2.01 9.1 1.67 12.81-.84 2.79-2.42 3.28-6.41 3.37-9.9-.01-10.37 0-20.75-.01-31.12.09-1.35-.19-2.88.63-4.07 3.04-.25 6.43-.83 9.21.78-.02 12.12-.01 24.24 0 36.37-.21 5.11-1.59 10.93-6.16 13.91-5.8 3.95-13.16 3.92-19.87 3.3-7.04-1.01-14.59-5.94-14.81-13.71 0-13.4-.14-26.82.07-40.21zm94.31-.34c3.22-.24 6.62-.88 9.7.44.02 6.85-.05 13.7.03 20.55.13.18.38.54.5.72 7.52.17 15.05.18 22.57-.01-.12-7.09-.11-14.19-.03-21.28 3.22-1.1 6.81-1.08 10.04-.04.05 15.86 0 31.73.05 47.6.01 1.89-.07 3.8-.41 5.67-2.93.02-5.88.22-8.8-.09-.19-.26-.59-.78-.78-1.04-.36-7.68-.04-15.39-.16-23.08-5.46-.95-10.98.05-16.46-.41-2.17-.21-4.34-.07-6.48.31-.16 7.25-.02 14.51-.06 21.76-.03 1.06-.02 2.56-1.48 2.51-2.66-.11-5.93.83-8.22-.6-.24-17.65-.2-35.35-.01-53.01zm403.98.45c3.02-1.16 6.57-1.25 9.53.16-.05 2.26.02 4.59-.89 6.72-2.48-.03-4.96.08-7.43-.1-2.06-1.57-.8-4.58-1.21-6.78zm-184.64 5.84c2.6-.99 5.44-1.22 8.2-1.51.71 3.23.42 6.55.35 9.82 2.81.02 5.64-.14 8.44.2 1.8 1.32.87 3.81 1.21 5.69-3.11.64-6.29.39-9.44.41.08 8.47.06 16.94.02 25.41 1.86 2.72 5.26 1.66 8.06 1.92.27 1.74.47 3.49.65 5.24-4.75 1.11-10.05 1.9-14.57-.42-2.09-1.74-3.6-4.31-3.62-7.09-.11-8.32.04-16.65.03-24.98-1.84-.07-3.66-.15-5.46-.5 0-1.57-.02-3.14-.04-4.72.43-.31 1.29-.92 1.71-1.23 1.36.04 2.72.08 4.09.1.24-2.75-.74-5.81.37-8.34zm205.7-.3c2.78-.5 5.56-1.05 8.4-1.19.07 3.26.14 6.53.05 9.79 3.18.05 6.41-.23 9.54.56.01 1.89 0 3.78-.05 5.66-3 .13-6.01.1-9.01.1.14 8.37-.35 16.78.25 25.13.85 3.45 5.25 1.56 7.77 2.3.22 1.7.25 3.42.34 5.14-4.38 1-9.25 1.88-13.47-.13-2.57-1.44-4.46-4.32-4.27-7.32-.03-8.35 0-16.7.01-25.05-1.86-.08-3.69-.17-5.52-.42.29-1.91-.8-4.45.99-5.85 1.53-.21 3.07-.11 4.63-.15-.03-2.86-.28-5.76.34-8.57zm-460.31 12.1c5.1-4.87 13.47-7.08 19.78-3.25 4.37 2.76 6.16 8.05 6.97 12.9.82 7.54.76 16.08-4.04 22.39-5.71 6.57-16.44 5.26-22.74.2-.26 6.1.68 12.47-.45 18.39-2.77.27-5.55.12-8.32.13-.58-18.08-.24-36.22-.19-54.32 2.89-.97 6.11-1.06 8.97.08.01.87.01 2.61.02 3.48m.77 8.88c-.01 5.37-.17 10.75.08 16.11 1.81 4.5 7.85 7.17 12.15 4.39 4.37-2.45 4.34-8.08 4.37-12.44.08-5.49.22-12.28-5.01-15.64-5.25-2.5-11.55 1.96-11.59 7.58zm101.07-13.72c4.68-.93 9.55-.13 13.96 1.58 4 1.94 6.9 5.79 7.89 10.1 1.7 7 1.71 14.79-1.73 21.27-3.35 6.11-10.75 8.77-17.41 8.31-6.54.2-14.06-2.5-16.6-9.03-2.67-7.1-2.63-15.26-.07-22.38 2.16-5.76 7.99-9.32 13.96-9.85m-.31 6.15c-3.68 2.19-5.89 6.24-5.69 10.52.23 4.75-.93 9.97 1.58 14.3 2.42 4.31 8.47 5.43 12.69 3.32 4.01-2.25 5.38-7.17 5.13-11.49-.24-4.96 1.09-10.88-2.78-14.81-2.84-2.97-7.27-2.55-10.93-1.84zm76.19-1.19c4.97-5.23 13.03-6.28 19.76-4.55 4.05.62 7.76 3.11 9.75 6.71 2.68 4.26 2 9.51 1.84 14.28-.12 1.78-2.26 1.45-3.48 1.55-7.66.09-15.33-.12-22.98.08-.99 4.52 2.01 10.18 6.86 11.18 6.24 2.11 12.57-.67 18.82-1.12.04 1.95.01 3.9 0 5.86-2.36 1.25-4.97 1.66-7.61 1.69-7.02 1.26-14.87 1.03-21.08-2.9-5.14-3.48-6.54-10.15-6.66-15.97-.03-5.84.76-12.26 4.78-16.81m8.34 2.16c-3.05 2.4-3.34 6.49-3.61 10.05 5.95.18 11.91.18 17.86.01.14-4.8-1.26-10.77-6.69-11.93-2.63-.07-5.56-.13-7.56 1.87zm34.64-5.27c6.63-3.14 14.25-2.54 21.24-1.08.18 1.97-.35 3.85-1.16 5.62-4.78-.24-9.62-2.12-14.31-.22-.85 1.21-1.66 2.44-2.44 3.69 3.13 5.65 10.28 6.47 14.95 10.38 4.72 3.19 6.94 9.97 4.07 15.09-1.93 3.84-6.37 5.19-10.31 5.78-4.89.39-9.84.12-14.61-1.06-1.32-.45-2.85-.76-3.69-1.98-.15-1.7.36-3.37.61-5.03 5.26 1.18 10.73 2.85 16.11 1.39 2.16-.59 3.78-2.56 3.68-4.86-.92-4.02-5.02-5.91-8.34-7.62-4.23-2.07-9.25-4.28-10.86-9.1-1.77-4.32 1.28-8.97 5.06-11zm136.86.98c6.05-5.27 16.14-3.65 21.33 2.09.38-1.45-.61-4.01 1.67-4.21 2.51-.36 5.1-.22 7.52.59-.14 12.97.12 25.96-.13 38.93-2.9.28-5.82.24-8.72.22a83.23 83.23 0 0 1-.24-4.17c-5.12 4.64-13.14 6.72-19.45 3.37-5.02-3.06-7.04-9.22-7.49-14.78-.49-7.57-.12-16.29 5.51-22.04m8.32 3.56c-3.46 2.17-4.49 6.58-4.19 10.41.29 5.61-1.31 12.34 3.12 16.76 4.98 4.75 13.91-.39 13.57-6.82-.09-4.37.13-8.73-.1-13.09-.6-5.59-7.13-10.46-12.4-7.26zM657 65.01c3.81-4.02 9.73-5.64 15.12-4.91 5.19.74 8.9 5.22 10.38 10 2.1 7.51 2.07 15.63-.54 23.02-1.14 3.34-4.05 5.6-6.85 7.52-6.2 1.79-13.3.93-18.24-3.45.03 6.11.9 12.47-.39 18.43-2.78.05-6.51 1.11-8.74-.66-.11-17.66-.27-35.37.05-53.03 2.77-2.1 10.49-2.22 9.21 3.08m7.89.79c-4.11.47-7.27 4.26-7.26 8.34-.12 5.28-.22 10.59.03 15.86 2.1 5.79 11.03 7.74 14.63 2.33 2.86-4.87 2.2-10.86 2.03-16.27-.36-4.91-3.63-11.25-9.43-10.26zm73.4-.72c2.8-4.53 8.74-5.62 13.66-5.1 3.8.8 7.12 2.74 9.66 5.69.23-1.62-.9-4 1.12-4.78 2.58-.25 5.21-.13 7.73.58-.17 12.86.22 25.74-.19 38.58-2.17 1.21-4.89.51-7.26.59-2.58.24-1-3.21-1.51-4.61-4.64 4.91-12.38 7.15-18.64 4.16-5.1-2.28-7.31-8.06-8.25-13.19-.43-7.41-.74-15.53 3.68-21.92m10.06 1.47c-5.3 3.18-4.18 10.19-4.26 15.43-.27 4.45-.01 10.03 4.23 12.63 4.76 3.03 11-.72 12.48-5.67.11-4.67.03-9.34.04-14 .03-6.01-6.8-11.53-12.49-8.39zM383.1 61.59c2.37-.85 4.88-.84 7.36-.92 1.16 1.08 1.62 2.58 2.19 4.01 4.2-4.04 10.57-5.73 16.17-4.04 5.05.64 8.53 5.54 8.65 10.41.03 8.31-.03 16.63.03 24.94-.08 1.53.29 3.27-.81 4.53-2.59.3-5.21.13-7.8.18-.28-.86-.51-1.73-.7-2.61-.29-8.36.2-16.75-.23-25.1-.39-4.21-5.17-6.29-8.92-5.34-3.93.56-6.98 4.32-6.85 8.27-.13 8.17.03 16.33-.04 24.5-2.82.27-5.7.51-8.51.04-.69-1.41-.46-3-.5-4.51-.03-11.45 0-22.91-.04-34.36zm307.7 0c2.61-.68 5.58-1.36 8.17-.4 1.64.56 1.02 2.5 1.19 3.82a5338.9 5338.9 0 0 0 0 31c-.04 1.53.13 3.19-.82 4.52-2.76.33-5.54.13-8.3.07-.63-12.98-.11-26.01-.24-39.01z" fill="#fefefe"/></svg>